<?xml version="1.0" encoding="UTF-8"?>
<svg version="1.1" xmlns="http://www.w3.org/2000/svg" width="220" height="130">
<path d="M0 0 C72.6 0 145.2 0 220 0 C220 42.9 220 85.8 220 130 C147.4 130 74.8 130 0 130 C0 87.1 0 44.2 0 0 Z " fill="#F9F9F9" transform="translate(0,0)"/>
<path d="M0 0 C33 0 66 0 100 0 C99.34 0.33 98.68 0.66 98 1 C98 1.66 98 2.32 98 3 C96.35697047 4.68997323 94.68528688 6.35216394 93 8 C86.17694667 15.7689049 86.17694667 15.7689049 84.77734375 25.59765625 C85.4166757 32.49571151 86.82306851 37.34093153 91 43 C91.33 43.99 91.66 44.98 92 46 C88.37 46.33 84.74 46.66 81 47 C81 46.34 81 45.68 81 45 C78.62556577 44.77645276 76.25174905 44.570837 73.875 44.375 C73.20984375 44.31054688 72.5446875 44.24609375 71.859375 44.1796875 C67.4164316 43.83122135 64.08166667 44.19604911 60 46 C57.44688274 48.9786368 56.95268769 50.37311192 57.25 54.3125 C56.8825809 59.73193171 53.75665825 62.31042493 50 66 C50.99 65.401875 51.98 64.80375 53 64.1875 C59.99690899 60.64492086 69.1965096 59 77 59 C77 58.34 77 57.68 77 57 C76.35933594 56.81824219 75.71867187 56.63648438 75.05859375 56.44921875 C69.85604103 54.93729955 64.92855673 53.24999329 60 51 C60 50.01 60 49.02 60 48 C66.45285915 47.5966963 71.08159877 48.35785659 77 51 C77.33 51.33 77.66 51.66 78 52 C79.68608966 52.07205511 81.37500659 52.08386068 83.0625 52.0625 C83.98160156 52.05347656 84.90070313 52.04445312 85.84765625 52.03515625 C86.55792969 52.02355469 87.26820312 52.01195312 88 52 C88 51.34 88 50.68 88 50 C88.66 50 89.32 50 90 50 C89.7363239 53.76142028 89.44269776 55.54012526 86.78515625 58.30078125 C85.88667969 58.96464844 84.98820312 59.62851562 84.0625 60.3125 C83.16660156 60.98925781 82.27070312 61.66601562 81.34765625 62.36328125 C79 64 79 64 77 65 C76.505 66.485 76.505 66.485 76 68 C81.88522641 66.49155362 86.40630999 65.16303157 91 61 C91.66 61 92.32 61 93 61 C91.58281955 64.42485275 90.16223712 66.06636976 87 68 C83.5390625 68.84375 83.5390625 68.84375 79.625 69.5 C74.4986424 70.36295399 70.601536 71.6137749 66 74 C62.625 74.1875 62.625 74.1875 60 74 C60 73.34 60 72.68 60 72 C57.69 72 55.38 72 53 72 C52.505 73.485 52.505 73.485 52 75 C34.84 75 17.68 75 0 75 C0 50.25 0 25.5 0 0 Z " fill="#003187" transform="translate(0,0)"/>
<path d="M0 0 C72.6 0 145.2 0 220 0 C220 8.91 220 17.82 220 27 C147.4 27 74.8 27 0 27 C0 18.09 0 9.18 0 0 Z " fill="#E5E5E5" transform="translate(0,103)"/>
<path d="M0 0 C26.07 0 52.14 0 79 0 C79 24.75 79 49.5 79 75 C47.98 75 16.96 75 -15 75 C-13.2 67.8 -13.2 67.8 -9 65 C-6.23344676 64.85754103 -3.57346694 64.81230555 -0.8125 64.875 C-0.06291016 64.88402344 0.68667969 64.89304687 1.45898438 64.90234375 C3.30612654 64.92587422 5.15310412 64.96174439 7 65 C8.21380435 60.87408522 9.31492651 56.78645461 10.125 52.5625 C10.29257813 51.69753906 10.46015625 50.83257812 10.6328125 49.94140625 C10.75398438 49.30074219 10.87515625 48.66007812 11 48 C11.99 48 12.98 48 14 48 C12.8127857 43.82195672 12.8127857 43.82195672 10.49609375 40.21875 C8.50284448 37.26270408 8.29836927 34.77551134 7.875 31.25 C7.72160156 30.0125 7.56820312 28.775 7.41015625 27.5 C7.27480469 26.345 7.13945312 25.19 7 24 C6.7714407 22.41657888 6.5424168 20.83322458 6.3125 19.25 C6 16 6 16 7 14 C5.68 13.67 4.36 13.34 3 13 C3 12.34 3 11.68 3 11 C1.35 10.34 -0.3 9.68 -2 9 C-2 8.67 -2 8.34 -2 8 C-0.35 7.67 1.3 7.34 3 7 C2.38722388 4.03824877 1.74627478 2.61941217 0 0 Z " fill="#E0011C" transform="translate(141,0)"/>
<path d="M0 0 C6.45285915 -0.4033037 11.08159877 0.35785659 17 3 C17.495 3.495 17.495 3.495 18 4 C19.68608966 4.07205511 21.37500659 4.08386068 23.0625 4.0625 C23.98160156 4.05347656 24.90070313 4.04445313 25.84765625 4.03515625 C26.55792969 4.02355469 27.26820312 4.01195312 28 4 C28 3.34 28 2.68 28 2 C28.66 2 29.32 2 30 2 C29.7363239 5.76142028 29.44269776 7.54012526 26.78515625 10.30078125 C25.88667969 10.96464844 24.98820312 11.62851562 24.0625 12.3125 C23.16660156 12.98925781 22.27070312 13.66601562 21.34765625 14.36328125 C19 16 19 16 17 17 C16.505 18.485 16.505 18.485 16 20 C21.88522641 18.49155362 26.40630999 17.16303157 31 13 C31.66 13 32.32 13 33 13 C31.58281955 16.42485275 30.16223712 18.06636976 27 20 C23.5390625 20.84375 23.5390625 20.84375 19.625 21.5 C14.4986424 22.36295399 10.601536 23.6137749 6 26 C2.625 26.1875 2.625 26.1875 0 26 C0 25.34 0 24.68 0 24 C-2.31 24 -4.62 24 -7 24 C-7.495 25.485 -7.495 25.485 -8 27 C-25.16 27 -42.32 27 -60 27 C-60 26.34 -60 25.68 -60 25 C-43.5 24.67 -27 24.34 -10 24 C-10 23.34 -10 22.68 -10 22 C-9.195625 21.87625 -8.39125 21.7525 -7.5625 21.625 C-6.716875 21.41875 -5.87125 21.2125 -5 21 C-4.67 20.34 -4.34 19.68 -4 19 C-5.32 18.67 -6.64 18.34 -8 18 C-5.72258763 15.35463528 -4.06055868 14.51123551 -0.65625 13.83203125 C0.59478516 13.57583008 0.59478516 13.57583008 1.87109375 13.31445312 C2.73863281 13.14880859 3.60617188 12.98316406 4.5 12.8125 C5.80130859 12.54663086 5.80130859 12.54663086 7.12890625 12.27539062 C10.4917469 11.60230274 13.56130081 11 17 11 C17 10.34 17 9.68 17 9 C16.35933594 8.81824219 15.71867187 8.63648438 15.05859375 8.44921875 C9.85604103 6.93729955 4.92855673 5.24999329 0 3 C0 2.01 0 1.02 0 0 Z " fill="#264A82" transform="translate(60,48)"/>
<path d="M0 0 C2.4294516 3.6441774 2.16179575 5.71241272 2 10 C4.64 9.67 7.28 9.34 10 9 C10.66 7.35 11.32 5.7 12 4 C12.66 4.33 13.32 4.66 14 5 C13.67 6.98 13.34 8.96 13 11 C17.95 11 22.9 11 28 11 C28 10.34 28 9.68 28 9 C29.6065676 9.25620684 31.2102483 9.53055871 32.8125 9.8125 C33.70582031 9.96332031 34.59914063 10.11414063 35.51953125 10.26953125 C38 11 38 11 41 14 C11.3 14 -18.4 14 -49 14 C-49 12.02 -49 10.04 -49 8 C-48.67 8.99 -48.34 9.98 -48 11 C-47.42894531 10.91621094 -46.85789063 10.83242187 -46.26953125 10.74609375 C-39.06065968 9.84068699 -32.21238721 10.26519566 -25 11 C-25 10.34 -25 9.68 -25 9 C-24.34 9 -23.68 9 -23 9 C-23 9.66 -23 10.32 -23 11 C-21.35 11 -19.7 11 -18 11 C-18.33 9.02 -18.66 7.04 -19 5 C-15.535 3.515 -15.535 3.515 -12 2 C-11.690625 3.134375 -11.38125 4.26875 -11.0625 5.4375 C-10.37075469 8.78775099 -10.37075469 8.78775099 -9 10 C-6.54190002 10.2500773 -6.54190002 10.2500773 -4 10 C-1.80202597 7.80202597 -1.54102483 6.82453855 -0.875 3.875 C-0.58625 2.59625 -0.2975 1.3175 0 0 Z " fill="#F9F9F9" transform="translate(49,116)"/>
<path d="M0 0 C6.15234375 -0.09765625 6.15234375 -0.09765625 8 0 C8.33 0.33 8.66 0.66 9 1 C11.01594582 1.23427778 13.038474 1.41336124 15.0625 1.5625 C16.16722656 1.64628906 17.27195312 1.73007813 18.41015625 1.81640625 C19.26480469 1.87699219 20.11945312 1.93757813 21 2 C21 2.66 21 3.32 21 4 C21.99 4 22.98 4 24 4 C24 3.34 24 2.68 24 2 C26.33294775 1.95758277 28.66702567 1.95907063 31 2 C32 3 32 3 32.0625 5.5625 C32.041875 6.366875 32.02125 7.17125 32 8 C30.35 8.33 28.7 8.66 27 9 C27.33 10.98 27.66 12.96 28 15 C26.35 15 24.7 15 23 15 C23 14.34 23 13.68 23 13 C22.34 13 21.68 13 21 13 C21 13.66 21 14.32 21 15 C9.20807175 15.92017937 9.20807175 15.92017937 6.24609375 13.6640625 C5.1875 12 5.1875 12 4 9 C3.67 10.65 3.34 12.3 3 14 C2.01 14 1.02 14 0 14 C0 9.38 0 4.76 0 0 Z " fill="#E4E4E4" transform="translate(3,112)"/>
<path d="M0 0 C0.66 0.33 1.32 0.66 2 1 C1.55120234 3.62696231 1.09145886 6.25116893 0.625 8.875 C0.43550781 9.99455078 0.43550781 9.99455078 0.2421875 11.13671875 C-0.7734375 16.7734375 -0.7734375 16.7734375 -3 19 C-5.58064129 19.14497985 -8.04943884 19.18677545 -10.625 19.125 C-11.68460938 19.11146484 -11.68460938 19.11146484 -12.765625 19.09765625 C-14.51056098 19.07407603 -16.25532295 19.03820461 -18 19 C-18.66 20.32 -19.32 21.64 -20 23 C-20.99 23 -21.98 23 -23 23 C-23 23.66 -23 24.32 -23 25 C7.03 25 37.06 25 68 25 C68 25.66 68 26.32 68 27 C36.98 27 5.96 27 -26 27 C-24.2 19.8 -24.2 19.8 -20 17 C-17.23344676 16.85754103 -14.57346694 16.81230555 -11.8125 16.875 C-11.06291016 16.88402344 -10.31332031 16.89304687 -9.54101562 16.90234375 C-7.69387346 16.92587422 -5.84689588 16.96174439 -4 17 C-2.78619565 12.87408522 -1.68507349 8.78645461 -0.875 4.5625 C-0.70742187 3.69753906 -0.53984375 2.83257812 -0.3671875 1.94140625 C-0.24601562 1.30074219 -0.12484375 0.66007812 0 0 Z " fill="#C84759" transform="translate(152,48)"/>
<path d="M0 0 C-1.31914629 2.63829259 -2.23857335 2.98263229 -5 4 C-7.33203812 4.0777346 -9.66839059 4.08967728 -12 4 C-12 4.99 -12 5.98 -12 7 C-11.47921875 7.11214844 -10.9584375 7.22429688 -10.421875 7.33984375 C-7.27142197 8.19859627 -4.29170481 9.37623512 -1.25 10.5625 C-0.07953125 11.01753906 1.0909375 11.47257812 2.296875 11.94140625 C3.18890625 12.29074219 4.0809375 12.64007813 5 13 C5 13.66 5 14.32 5 15 C-1.45858936 16.87386539 -7.84532591 18.43098391 -14.4921875 19.47265625 C-17.15788878 20.03320091 -19.50337618 20.92170907 -22 22 C-20.9008948 19.4354212 -20.02726476 18.02325524 -17.875 16.1875 C-15.63392985 14.05310277 -15.63392985 14.05310277 -16 10.625 C-16 6.09278604 -14.97714427 4.36887378 -12 1 C-7.66866325 -1.16566837 -4.66293206 -1.11022192 0 0 Z " fill="#EEF5F7" transform="translate(72,44)"/>
<path d="M0 0 C-0.33 0.99 -0.66 1.98 -1 3 C-1.99 3.33 -2.98 3.66 -4 4 C-3.01 4.33 -2.02 4.66 -1 5 C-1.33 6.32 -1.66 7.64 -2 9 C-0.68 9.33 0.64 9.66 2 10 C3.32 6.7 4.64 3.4 6 0 C6.66 0 7.32 0 8 0 C8.64690922 1.6037331 9.29248764 3.20800306 9.9375 4.8125 C10.29714844 5.70582031 10.65679687 6.59914063 11.02734375 7.51953125 C11.73613486 9.3270909 12.3860247 11.15807409 13 13 C11.35 13 9.7 13 8 13 C8 11.68 8 10.36 8 9 C7.01 9 6.02 9 5 9 C5 10.32 5 11.64 5 13 C3.9375 14.75 3.9375 14.75 2 16 C-1.6875 16.1875 -1.6875 16.1875 -5 16 C-5 14.68 -5 13.36 -5 12 C-5.639375 11.87625 -6.27875 11.7525 -6.9375 11.625 C-7.618125 11.41875 -8.29875 11.2125 -9 11 C-10.39935013 8.20129973 -10.25265405 6.09501208 -10 3 C-7.7109263 -1.03954182 -4.21983723 -0.23885871 0 0 Z " fill="#F4F4F4" transform="translate(181,114)"/>
<path d="M0 0 C0.66 0.33 1.32 0.66 2 1 C1.67 1.66 1.34 2.32 1 3 C4.465 2.505 4.465 2.505 8 2 C8 1.34 8 0.68 8 0 C9.32 0 10.64 0 12 0 C10.97208168 3.08375495 10.29893164 3.87790925 8 6 C7.58129639 6.5153833 7.16259277 7.0307666 6.73120117 7.56176758 C4.36064818 9.5311552 2.73142189 9.42730879 -0.32421875 9.51171875 C-1.35224609 9.54716797 -2.38027344 9.58261719 -3.43945312 9.61914062 C-4.51130859 9.64169922 -5.58316406 9.66425781 -6.6875 9.6875 C-8.31268555 9.73874023 -8.31268555 9.73874023 -9.97070312 9.79101562 C-12.6470322 9.8735456 -15.32303159 9.94267937 -18 10 C-18 9.34 -18 8.68 -18 8 C-19.32 7.67 -20.64 7.34 -22 7 C-17.49819393 4.49355121 -13.22429212 3.23985406 -8.1875 2.375 C-3.73086022 1.93036537 -3.73086022 1.93036537 0 0 Z " fill="#E3F1F6" transform="translate(88,66)"/>
<path d="M0 0 C6.45285915 -0.4033037 11.08159877 0.35785659 17 3 C17.33 3.33 17.66 3.66 18 4 C19.68608966 4.07205511 21.37500659 4.08386068 23.0625 4.0625 C23.98160156 4.05347656 24.90070313 4.04445313 25.84765625 4.03515625 C26.55792969 4.02355469 27.26820312 4.01195312 28 4 C28 3.34 28 2.68 28 2 C28.66 2 29.32 2 30 2 C29.73935572 5.82278276 29.38828678 7.57935599 26.75 10.4375 C24 12 24 12 21.1875 11.75 C20.1046875 11.37875 20.1046875 11.37875 19 11 C19 10.34 19 9.68 19 9 C18.15179688 8.88785156 17.30359375 8.77570312 16.4296875 8.66015625 C12.76867123 7.95547316 9.58613003 6.81488848 6.125 5.4375 C4.97257812 4.98246094 3.82015625 4.52742188 2.6328125 4.05859375 C1.76398437 3.70925781 0.89515625 3.35992187 0 3 C0 2.01 0 1.02 0 0 Z " fill="#133973" transform="translate(60,48)"/>
<path d="M0 0 C3.42353094 -0.3734761 5.91060954 -0.57873868 9 1.0625 C10.61744399 4.19629772 9.77495033 6.66175243 9 10 C8.01 11.485 8.01 11.485 7 13 C9.64 13.33 12.28 13.66 15 14 C14.67 14.66 14.34 15.32 14 16 C8.76033841 15.45420192 3.68820149 14.52192908 -1 12 C-3 9 -3 9 -2.75 6 C-2 3 -2 3 0 0 Z " fill="#414141" transform="translate(81,114)"/>
<path d="M0 0 C1.98 0 3.96 0 6 0 C7 7.625 7 7.625 7 11 C7.99 11 8.98 11 10 11 C10.33 12.65 10.66 14.3 11 16 C10.34 16 9.68 16 9 16 C9.28277618 18.89695169 9.57587413 21.7922295 9.875 24.6875 C9.95363281 25.50412109 10.03226563 26.32074219 10.11328125 27.16210938 C10.72446397 33.30920679 10.72446397 33.30920679 13 39 C13.99 39.33 14.98 39.66 16 40 C16 42.64 16 45.28 16 48 C15.34 48 14.68 48 14 48 C13.5978125 46.63875 13.5978125 46.63875 13.1875 45.25 C12.23869005 42.07570295 12.23869005 42.07570295 10.49609375 40.21875 C8.50284448 37.26270408 8.29836927 34.77551134 7.875 31.25 C7.72160156 30.0125 7.56820312 28.775 7.41015625 27.5 C7.27480469 26.345 7.13945312 25.19 7 24 C6.7714407 22.41657888 6.5424168 20.83322458 6.3125 19.25 C6 16 6 16 7 14 C5.68 13.67 4.36 13.34 3 13 C3 12.34 3 11.68 3 11 C0.525 10.01 0.525 10.01 -2 9 C-2 8.67 -2 8.34 -2 8 C-0.35 7.67 1.3 7.34 3 7 C2.38722388 4.03824877 1.74627478 2.61941217 0 0 Z " fill="#BF3A4B" transform="translate(141,0)"/>
<path d="M0 0 C2.33294775 -0.04241723 4.66702567 -0.04092937 7 0 C8 1 8 1 8.09765625 2.84765625 C8.04882812 5.92382812 8.04882812 5.92382812 8 9 C9.32 9.33 10.64 9.66 12 10 C12.99 6.7 13.98 3.4 15 0 C18 1 18 1 18.94921875 2.7421875 C19.31466797 3.79792969 19.31466797 3.79792969 19.6875 4.875 C19.93886719 5.57367188 20.19023437 6.27234375 20.44921875 6.9921875 C21 9 21 9 21 12 C20.01 12 19.02 12 18 12 C18 11.01 18 10.02 18 9 C16.68 9 15.36 9 14 9 C14 10.32 14 11.64 14 13 C11.69 13 9.38 13 7 13 C6.34 11.35 5.68 9.7 5 8 C4.34 8 3.68 8 3 8 C3 9.32 3 10.64 3 12 C2.34 12 1.68 12 1 12 C0.67 8.04 0.34 4.08 0 0 Z " fill="#686868" transform="translate(134,114)"/>
<path d="M0 0 C0 0.66 0 1.32 0 2 C0.99 2 1.98 2 3 2 C3 2.66 3 3.32 3 4 C2.071875 4.226875 1.14375 4.45375 0.1875 4.6875 C-3.07012076 5.74661886 -3.07012076 5.74661886 -4.875 8.1875 C-6.24361955 11.60904888 -6.21485027 14.3475454 -6 18 C-7.32 17.67 -8.64 17.34 -10 17 C-10 16.34 -10 15.68 -10 15 C-9.34 15 -8.68 15 -8 15 C-8 14.34 -8 13.68 -8 13 C-8.70125 13.28875 -9.4025 13.5775 -10.125 13.875 C-13.05425301 15.02122944 -16.0165139 16.00550463 -19 17 C-19.66 17.33 -20.32 17.66 -21 18 C-19.50867052 13.27745665 -19.50867052 13.27745665 -16.9375 11.875 C-16.298125 11.58625 -15.65875 11.2975 -15 11 C-14.67 10.01 -14.34 9.02 -14 8 C-13.34 8 -12.68 8 -12 8 C-12 7.34 -12 6.68 -12 6 C-10.390625 4.4921875 -10.390625 4.4921875 -8.25 2.875 C-7.55390625 2.33617187 -6.8578125 1.79734375 -6.140625 1.2421875 C-4 0 -4 0 0 0 Z " fill="#1F4175" transform="translate(63,40)"/>
<path d="M0 0 C0.99 0 1.98 0 3 0 C3 1.32 3 2.64 3 4 C5.93782469 3.85924795 8.87515171 3.7126162 11.8125 3.5625 C13.06256836 3.50352539 13.06256836 3.50352539 14.33789062 3.44335938 C15.14033203 3.40146484 15.94277344 3.35957031 16.76953125 3.31640625 C17.50792236 3.27974854 18.24631348 3.24309082 19.00708008 3.20532227 C21.207495 3.05157859 21.207495 3.05157859 24 2 C24 2.66 24 3.32 24 4 C27.3 3.67 30.6 3.34 34 3 C34 4.32 34 5.64 34 7 C21.79 7 9.58 7 -3 7 C-2.67 6.01 -2.34 5.02 -2 4 C-1.34 4 -0.68 4 0 4 C0 2.68 0 1.36 0 0 Z " fill="#FCFCFC" transform="translate(186,123)"/>
<path d="M0 0 C-1.231394 3.69418201 -3.20791354 5.35109746 -6 8 C-3.79567618 7.5276449 -1.99973904 6.99986136 0 5.9375 C2 5 2 5 6 5 C5.67 6.32 5.34 7.64 5 9 C5.66 9 6.32 9 7 9 C5.4169423 13.2742558 2.49431596 15.26531794 -1 18 C-1.33 16.35 -1.66 14.7 -2 13 C-1.34 12.67 -0.68 12.34 0 12 C-0.66 11.01 -1.32 10.02 -2 9 C-2 9.66 -2 10.32 -2 11 C-2.66 11 -3.32 11 -4 11 C-4.66 12.32 -5.32 13.64 -6 15 C-6.66 15 -7.32 15 -8 15 C-9.16279782 10.73640798 -8.95710633 7.3069785 -8 3 C-5.83408093 -0.35717456 -3.82960446 -0.31050847 0 0 Z " fill="#0C337C" transform="translate(49,48)"/>
<path d="M0 0 C0.33 0 0.66 0 1 0 C1.35271085 7.40692783 0.33113024 13.33773952 -3 20 C-3.99 20 -4.98 20 -6 20 C-5.67 21.32 -5.34 22.64 -5 24 C-11.27 24 -17.54 24 -24 24 C-24 23.34 -24 22.68 -24 22 C-23.360625 21.71125 -22.72125 21.4225 -22.0625 21.125 C-19.84793921 20.17176549 -19.84793921 20.17176549 -19 18 C-16.45058627 17.68758629 -13.99638487 17.48696579 -11.4375 17.375 C-10.72658203 17.33632812 -10.01566406 17.29765625 -9.28320312 17.2578125 C-7.52257575 17.16328217 -5.76132272 17.08054183 -4 17 C-2.78619565 12.87408522 -1.68507349 8.78645461 -0.875 4.5625 C-0.70742187 3.69753906 -0.53984375 2.83257812 -0.3671875 1.94140625 C-0.24601562 1.30074219 -0.12484375 0.66007812 0 0 Z " fill="#D70A27" transform="translate(153,49)"/>
<path d="M0 0 C-1.875 5.875 -1.875 5.875 -3 7 C-3.86115417 15.9720248 -2.37384755 23.71930332 3 31 C3.33 31.99 3.66 32.98 4 34 C-1.445 34.495 -1.445 34.495 -7 35 C-7 34.34 -7 33.68 -7 33 C-10.63 32.67 -14.26 32.34 -18 32 C-18 31.67 -18 31.34 -18 31 C-13.05 31 -8.1 31 -3 31 C-3.2165625 29.9378125 -3.433125 28.875625 -3.65625 27.78125 C-3.93789578 26.35424472 -4.21912338 24.92715687 -4.5 23.5 C-4.64308594 22.80390625 -4.78617188 22.1078125 -4.93359375 21.390625 C-6.06310992 15.58168471 -7.29672182 8.63740811 -5 3 C-2.53571429 0 -2.53571429 0 0 0 Z " fill="#17376D" transform="translate(88,12)"/>
<path d="M0 0 C0.99 0 1.98 0 3 0 C3.33 2.97 3.66 5.94 4 9 C4.99 9 5.98 9 7 9 C6.814375 7.700625 6.62875 6.40125 6.4375 5.0625 C6.12109375 2.84765625 6.12109375 2.84765625 6 1 C7 0 7 0 10.0625 -0.0625 C11.5165625 -0.0315625 11.5165625 -0.0315625 13 0 C13 0.99 13 1.98 13 3 C11.35 2.67 9.7 2.34 8 2 C8 2.99 8 3.98 8 5 C8.639375 5.2475 9.27875 5.495 9.9375 5.75 C12 7 12 7 12.875 9 C12.936875 9.99 12.936875 9.99 13 11 C11 13 11 13 8.3984375 13.1953125 C5.59895833 13.13020833 2.79947917 13.06510417 0 13 C0 8.71 0 4.42 0 0 Z " fill="#B0B0B0" transform="translate(196,114)"/>
<path d="M0 0 C0.66 0 1.32 0 2 0 C1.67 2.97 1.34 5.94 1 9 C-0.32 8.67 -1.64 8.34 -3 8 C-4.34262065 8.29369827 -5.67696283 8.6278958 -7 9 C-10 9 -13 9 -16 9 C-16.04254356 7.00045254 -16.04080783 4.99958364 -16 3 C-15 2 -15 2 -12.27734375 1.90234375 C-10.62412109 1.91974609 -10.62412109 1.91974609 -8.9375 1.9375 C-7.28041016 1.95103516 -7.28041016 1.95103516 -5.58984375 1.96484375 C-4.73519531 1.97644531 -3.88054688 1.98804687 -3 2 C-3 2.66 -3 3.32 -3 4 C-2.34 4 -1.68 4 -1 4 C-0.67 2.68 -0.34 1.36 0 0 Z " fill="#999999" transform="translate(41,87)"/>
<path d="M0 0 C0.99 0.33 1.98 0.66 3 1 C3 1.66 3 2.32 3 3 C3.66 3 4.32 3 5 3 C5 2.34 5 1.68 5 1 C6.98 1 8.96 1 11 1 C10.67 4.63 10.34 8.26 10 12 C8.68 11.67 7.36 11.34 6 11 C5.67 11.33 5.34 11.66 5 12 C2.32941149 12.14115161 -0.32432238 12.04247107 -3 12 C-2.01 8.04 -1.02 4.08 0 0 Z " fill="#E6E6E6" transform="translate(3,84)"/>
<path d="M0 0 C1.32 0 2.64 0 4 0 C4 4.29 4 8.58 4 13 C-0.01221324 13.80244265 -1.98892255 14.07611488 -5.8125 13.5625 C-7.194375 13.376875 -8.57625 13.19125 -10 13 C-9.67 9.04 -9.34 5.08 -9 1 C-8.34 1 -7.68 1 -7 1 C-7 4.3 -7 7.6 -7 11 C-2.87596527 9.35143175 -2.87596527 9.35143175 -1 6 C-0.60986284 4.0103005 -0.26797351 2.00980131 0 0 Z " fill="#626262" transform="translate(72,114)"/>
<path d="M0 0 C2.97 0 5.94 0 9 0 C9 3.96 9 7.92 9 12 C6.36 12 3.72 12 1 12 C0.67 8.04 0.34 4.08 0 0 Z " fill="#313131" transform="translate(211,114)"/>
<path d="M0 0 C6 0 6 0 8 1 C7.979375 1.721875 7.95875 2.44375 7.9375 3.1875 C7.91643458 6.00835294 7.91643458 6.00835294 8.5625 8.75 C8.706875 9.4925 8.85125 10.235 9 11 C8 12 8 12 6.15234375 12.09765625 C4.1015625 12.06510417 2.05078125 12.03255208 0 12 C0 8.04 0 4.08 0 0 Z " fill="#4F4F4F" transform="translate(51,114)"/>
<path d="M0 0 C1.77736058 3.09419048 2.31378764 5.5795259 2.5625 9.125 C2.78049065 12.69798773 2.78049065 12.69798773 4 16 C0.7 15.67 -2.6 15.34 -6 15 C-6 14.34 -6 13.68 -6 13 C-6.66 13 -7.32 13 -8 13 C-7.34 11.68 -6.68 10.36 -6 9 C-5.34 9 -4.68 9 -4 9 C-4 8.34 -4 7.68 -4 7 C-4.99 7 -5.98 7 -7 7 C-7 6.34 -7 5.68 -7 5 C-4.69 5 -2.38 5 0 5 C0 3.35 0 1.7 0 0 Z " fill="#F5ECEC" transform="translate(148,24)"/>
<path d="M0 0 C0.79921875 0.11085937 1.5984375 0.22171875 2.421875 0.3359375 C3.32679687 0.47902344 3.32679687 0.47902344 4.25 0.625 C4.58 1.945 4.91 3.265 5.25 4.625 C4.59 4.625 3.93 4.625 3.25 4.625 C3.25 5.285 3.25 5.945 3.25 6.625 C5.23 6.295 7.21 5.965 9.25 5.625 C8.92 6.615 8.59 7.605 8.25 8.625 C4.875 8.75 4.875 8.75 1.25 8.625 C0.59 7.965 -0.07 7.305 -0.75 6.625 C-2.27056618 6.02665446 -3.81612088 5.48993344 -5.375 5 C-6.19226563 4.73960938 -7.00953125 4.47921875 -7.8515625 4.2109375 C-8.79128906 3.92089844 -8.79128906 3.92089844 -9.75 3.625 C-7.67609396 -0.52281207 -4.21494357 -0.61984464 0 0 Z " fill="#E1ECF2" transform="translate(76.75,44.375)"/>
<path d="M0 0 C2.64 0 5.28 0 8 0 C8.268125 0.639375 8.53625 1.27875 8.8125 1.9375 C9.88667752 4.33131686 9.88667752 4.33131686 13 5 C12.67 5.66 12.34 6.32 12 7 C11.34 6.67 10.68 6.34 10 6 C9.67 7.98 9.34 9.96 9 12 C8.67 12 8.34 12 8 12 C7.67 10.35 7.34 8.7 7 7 C4.03 6.505 4.03 6.505 1 6 C1 7.98 1 9.96 1 12 C0.01 12 -0.98 12 -2 12 C-1.34 8.04 -0.68 4.08 0 0 Z " fill="#A3A3A3" transform="translate(148,84)"/>
<path d="M0 0 C2.64 0 5.28 0 8 0 C8.33 1.65 8.66 3.3 9 5 C8.01 5.495 8.01 5.495 7 6 C7 4.68 7 3.36 7 2 C5.68 1.67 4.36 1.34 3 1 C3 2.98 3 4.96 3 7 C3.99 7 4.98 7 6 7 C8.1875 8.8125 8.1875 8.8125 10 11 C10 11.99 10 12.98 10 14 C6.83884224 12.63016497 6.0072908 12.0109362 4 9 C3.67 10.65 3.34 12.3 3 14 C2.01 14 1.02 14 0 14 C0 9.38 0 4.76 0 0 Z " fill="#212121" transform="translate(3,112)"/>
<path d="M0 0 C1.2065625 0.0309375 1.2065625 0.0309375 2.4375 0.0625 C2.4375 1.3825 2.4375 2.7025 2.4375 4.0625 C1.7775 4.0625 1.1175 4.0625 0.4375 4.0625 C0.4375 3.0725 0.4375 2.0825 0.4375 1.0625 C-0.2225 1.0625 -0.8825 1.0625 -1.5625 1.0625 C-1.5625 2.7125 -1.5625 4.3625 -1.5625 6.0625 C-0.5725 6.0625 0.4175 6.0625 1.4375 6.0625 C1.7675 7.0525 2.0975 8.0425 2.4375 9.0625 C4.4175 9.0625 6.3975 9.0625 8.4375 9.0625 C8.4375 9.3925 8.4375 9.7225 8.4375 10.0625 C6.4575 10.7225 4.4775 11.3825 2.4375 12.0625 C2.4375 12.7225 2.4375 13.3825 2.4375 14.0625 C-0.93712715 13.51526317 -2.64485 13.0076 -5.5625 11.0625 C-5.5625 9.7425 -5.5625 8.4225 -5.5625 7.0625 C-4.9025 7.0625 -4.2425 7.0625 -3.5625 7.0625 C-3.583125 6.093125 -3.60375 5.12375 -3.625 4.125 C-3.54257968 0.08640438 -3.54257968 0.08640438 0 0 Z " fill="#8B8B8B" transform="translate(87.5625,88.9375)"/>
<path d="M0 0 C0.93423645 3.01031744 1.04449911 3.86650268 0 7 C-0.99 7 -1.98 7 -3 7 C-5.31208534 12.03218575 -4.90883586 15.99232337 -4.19140625 21.31640625 C-3.99331792 24.09368551 -4.33326132 26.30871175 -5 29 C-5.33 29 -5.66 29 -6 29 C-9.82091604 14.56921887 -9.82091604 14.56921887 -6.7265625 8.50390625 C-4.69331238 5.4044396 -2.62249688 2.62249688 0 0 Z " fill="#D6E3EF" transform="translate(92,8)"/>
<path d="M0 0 C0.66 0.33 1.32 0.66 2 1 C1.55120234 3.62696231 1.09145886 6.25116893 0.625 8.875 C0.43550781 9.99455078 0.43550781 9.99455078 0.2421875 11.13671875 C-0.7734375 16.7734375 -0.7734375 16.7734375 -3 19 C-5.58064129 19.14497985 -8.04943884 19.18677545 -10.625 19.125 C-11.68460938 19.11146484 -11.68460938 19.11146484 -12.765625 19.09765625 C-14.51056098 19.07407603 -16.25532295 19.03820461 -18 19 C-18.66 20.32 -19.32 21.64 -20 23 C-20.99 23 -21.98 23 -23 23 C-23 23.99 -23 24.98 -23 26 C-23.66 26 -24.32 26 -25 26 C-24.67488752 23.0739877 -24.18525339 21.26086703 -22.46875 18.84375 C-19.01359784 16.26331991 -15.87538538 16.56049466 -11.75 16.75 C-10.63238281 16.77707031 -10.63238281 16.77707031 -9.4921875 16.8046875 C-7.66090299 16.85164351 -5.83028351 16.92338348 -4 17 C-2.78619565 12.87408522 -1.68507349 8.78645461 -0.875 4.5625 C-0.70742187 3.69753906 -0.53984375 2.83257812 -0.3671875 1.94140625 C-0.24601562 1.30074219 -0.12484375 0.66007812 0 0 Z " fill="#C54256" transform="translate(152,48)"/>
<path d="M0 0 C3.625 -0.1875 3.625 -0.1875 7 0 C7 0.33 7 0.66 7 1 C5.02 1 3.04 1 1 1 C1 5.62 1 10.24 1 15 C1.99 15 2.98 15 4 15 C4 13.02 4 11.04 4 9 C5.65 10.65 7.3 12.3 9 14 C5.3558226 16.4294516 3.28758728 16.16179575 -1 16 C-1.97551509 13.07345473 -2.16478088 11.05345004 -2.1875 8 C-2.20167969 7.13375 -2.21585937 6.2675 -2.23046875 5.375 C-2 3 -2 3 0 0 Z " fill="#DFDFDF" transform="translate(2,111)"/>
<path d="M0 0 C0.66 0 1.32 0 2 0 C2 0.66 2 1.32 2 2 C2.99 1.67 3.98 1.34 5 1 C5.33 1.99 5.66 2.98 6 4 C3.69 5.32 1.38 6.64 -1 8 C-1.5775 7.484375 -2.155 6.96875 -2.75 6.4375 C-4.87827523 4.73494807 -4.87827523 4.73494807 -7.25 5.3125 C-7.8275 5.539375 -8.405 5.76625 -9 6 C-9 6.66 -9 7.32 -9 8 C-16.75 7.25 -16.75 7.25 -19 5 C-16.39643759 4.49666458 -13.79223349 3.99720622 -11.1875 3.5 C-10.08051758 3.28537109 -10.08051758 3.28537109 -8.95117188 3.06640625 C-5.92205609 2.49073719 -3.090804 2 0 2 C0 1.34 0 0.68 0 0 Z " fill="#143A75" transform="translate(77,57)"/>
<path d="M0 0 C1.98 0 3.96 0 6 0 C7 7.625 7 7.625 7 11 C7.99 11 8.98 11 10 11 C10.33 12.65 10.66 14.3 11 16 C10.34 16 9.68 16 9 16 C9 14.68 9 13.36 9 12 C8.484375 12.2475 7.96875 12.495 7.4375 12.75 C3.53477349 13.15027964 1.25833935 11.06779228 -2 9 C-2 8.67 -2 8.34 -2 8 C-0.35 7.67 1.3 7.34 3 7 C2.38722388 4.03824877 1.74627478 2.61941217 0 0 Z " fill="#D60E2A" transform="translate(141,0)"/>
<path d="M0 0 C0.66 0 1.32 0 2 0 C2.64690922 1.6037331 3.29248764 3.20800306 3.9375 4.8125 C4.29714844 5.70582031 4.65679687 6.59914063 5.02734375 7.51953125 C5.73613486 9.3270909 6.3860247 11.15807409 7 13 C5.35 13 3.7 13 2 13 C2 11.68 2 10.36 2 9 C0.68 9 -0.64 9 -2 9 C-2 9.99 -2 10.98 -2 12 C-2.66 12 -3.32 12 -4 12 C-3.52309796 10.37433394 -3.04340334 8.74948689 -2.5625 7.125 C-2.29566406 6.22007813 -2.02882812 5.31515625 -1.75390625 4.3828125 C-1 2 -1 2 0 0 Z " fill="#464646" transform="translate(187,114)"/>
<path d="M0 0 C2.64 0 5.28 0 8 0 C7.67 0.66 7.34 1.32 7 2 C5.68 1.67 4.36 1.34 3 1 C3 2.65 3 4.3 3 6 C4.32 6 5.64 6 7 6 C7 6.66 7 7.32 7 8 C5.68 8 4.36 8 3 8 C3.33 10.31 3.66 12.62 4 15 C2.35 15 0.7 15 -1 15 C-0.67 10.05 -0.34 5.1 0 0 Z " fill="#0F0F0F" transform="translate(123,112)"/>
<path d="M0 0 C0.66 0 1.32 0 2 0 C1.67 2.64 1.34 5.28 1 8 C-0.32 8 -1.64 8 -3 8 C-3 8.66 -3 9.32 -3 10 C-2.34 10.33 -1.68 10.66 -1 11 C-1.99 11 -2.98 11 -4 11 C-4.33 9.35 -4.66 7.7 -5 6 C-5.66 6 -6.32 6 -7 6 C-7.33 7.65 -7.66 9.3 -8 11 C-8.66 11 -9.32 11 -10 11 C-9.34 8.03 -8.68 5.06 -8 2 C-6.68 1.67 -5.36 1.34 -4 1 C-3.01 1.66 -2.02 2.32 -1 3 C-0.67 2.01 -0.34 1.02 0 0 Z " fill="#8D8D8D" transform="translate(122,85)"/>
<path d="M0 0 C1.32 0 2.64 0 4 0 C2.98379995 3.04860014 2.22608429 3.86666922 0 6 C-0.33 6.66 -0.66 7.32 -1 8 C-6.94 8 -12.88 8 -19 8 C-19 7.67 -19 7.34 -19 7 C-18.25234375 6.89042969 -17.5046875 6.78085938 -16.734375 6.66796875 C-15.74953125 6.50941406 -14.7646875 6.35085937 -13.75 6.1875 C-12.28820312 5.96126953 -12.28820312 5.96126953 -10.796875 5.73046875 C-7.84270653 4.95891916 -6.39908888 3.80923025 -4 2 C-2.68 2 -1.36 2 0 2 C0 1.34 0 0.68 0 0 Z " fill="#38506F" transform="translate(96,66)"/>
<path d="M0 0 C0.99 0 1.98 0 3 0 C4.38671875 1.53125 4.38671875 1.53125 5.6875 3.5 C6.12449219 4.1496875 6.56148437 4.799375 7.01171875 5.46875 C7.33785156 5.9740625 7.66398438 6.479375 8 7 C8.33 5.02 8.66 3.04 9 1 C9.33 1 9.66 1 10 1 C10 4.63 10 8.26 10 12 C9.34 12 8.68 12 8 12 C6.2856382 10.04072937 4.61594832 8.04119788 3 6 C2.67 7.98 2.34 9.96 2 12 C1.34 12 0.68 12 0 12 C0 8.04 0 4.08 0 0 Z " fill="#3C3C3C" transform="translate(158,114)"/>
<path d="M0 0 C0.57234375 0.22300781 1.1446875 0.44601563 1.734375 0.67578125 C0.3421875 1.51109375 0.3421875 1.51109375 -1.078125 2.36328125 C-4.32749967 4.38904525 -4.32749967 4.38904525 -5.703125 7.17578125 C-7.5130144 10.07160429 -9.48950129 11.1395014 -12.48046875 12.6953125 C-14.98170511 14.06907689 -17.09571387 15.83464453 -19.265625 17.67578125 C-17.77429552 12.9532379 -17.77429552 12.9532379 -15.203125 11.55078125 C-14.56375 11.26203125 -13.924375 10.97328125 -13.265625 10.67578125 C-12.935625 9.68578125 -12.605625 8.69578125 -12.265625 7.67578125 C-11.605625 7.67578125 -10.945625 7.67578125 -10.265625 7.67578125 C-10.265625 7.01578125 -10.265625 6.35578125 -10.265625 5.67578125 C-8.65625 4.1328125 -8.65625 4.1328125 -6.515625 2.48828125 C-5.81953125 1.93785156 -5.1234375 1.38742188 -4.40625 0.8203125 C-2.265625 -0.32421875 -2.265625 -0.32421875 0 0 Z " fill="#BDD5EC" transform="translate(61.265625,40.32421875)"/>
<path d="M0 0 C2.64 0 5.28 0 8 0 C7.67 0.99 7.34 1.98 7 3 C5.68 2.67 4.36 2.34 3 2 C3 2.99 3 3.98 3 5 C4.32 5 5.64 5 7 5 C7 5.66 7 6.32 7 7 C5.68 7 4.36 7 3 7 C3 8.32 3 9.64 3 11 C4.65 10.67 6.3 10.34 8 10 C8 10.66 8 11.32 8 12 C5.36 12 2.72 12 0 12 C0 8.04 0 4.08 0 0 Z " fill="#333333" transform="translate(16,114)"/>
<path d="M0 0 C3 1 3 1 3.94921875 2.7421875 C4.31466797 3.79792969 4.31466797 3.79792969 4.6875 4.875 C5.06455078 5.92300781 5.06455078 5.92300781 5.44921875 6.9921875 C6 9 6 9 6 12 C5.01 12 4.02 12 3 12 C3 11.01 3 10.02 3 9 C1.68 9 0.36 9 -1 9 C-1 9.99 -1 10.98 -1 12 C-1.99 11.67 -2.98 11.34 -4 11 C-2.68 7.37 -1.36 3.74 0 0 Z " fill="#393939" transform="translate(149,114)"/>
<path d="M0 0 C0.99 0 1.98 0 3 0 C2.88610125 1.79240663 2.75852313 3.58394835 2.625 5.375 C2.55539063 6.37273437 2.48578125 7.37046875 2.4140625 8.3984375 C2 11 2 11 0 13 C-3.0625 13.1875 -3.0625 13.1875 -6 13 C-7 12 -7 12 -7.09765625 9.49609375 C-7.08605469 8.48675781 -7.07445313 7.47742188 -7.0625 6.4375 C-7.05347656 5.42558594 -7.04445313 4.41367188 -7.03515625 3.37109375 C-7.02355469 2.58863281 -7.01195313 1.80617188 -7 1 C-6.34 1 -5.68 1 -5 1 C-5 4.3 -5 7.6 -5 11 C-3.68 10.67 -2.36 10.34 -1 10 C-0.67 6.7 -0.34 3.4 0 0 Z " fill="#3B3B3B" transform="translate(101,114)"/>
<path d="M0 0 C2 2 2 2 2.1953125 4.3828125 C2.17210937 5.28773437 2.14890625 6.19265625 2.125 7.125 C2.10695312 8.03507812 2.08890625 8.94515625 2.0703125 9.8828125 C2.04710937 10.58148438 2.02390625 11.28015625 2 12 C4.31 12 6.62 12 9 12 C9 12.33 9 12.66 9 13 C6.03 13 3.06 13 0 13 C-0.433125 12.05125 -0.86625 11.1025 -1.3125 10.125 C-2.79302201 6.79958063 -2.79302201 6.79958063 -6 5 C-6 4.01 -6 3.02 -6 2 C-4.35 2 -2.7 2 -1 2 C-0.67 1.34 -0.34 0.68 0 0 Z " fill="#DCDCDC" transform="translate(210,114)"/>
<path d="M0 0 C-0.33 0.99 -0.66 1.98 -1 3 C-2.65 3 -4.3 3 -6 3 C-6 4.98 -6 6.96 -6 9 C-4.02 9.66 -2.04 10.32 0 11 C-0.99 11.33 -1.98 11.66 -3 12 C-3 13.32 -3 14.64 -3 16 C-3.66 15.67 -4.32 15.34 -5 15 C-5 14.01 -5 13.02 -5 12 C-5.639375 11.87625 -6.27875 11.7525 -6.9375 11.625 C-7.618125 11.41875 -8.29875 11.2125 -9 11 C-10.39935013 8.20129973 -10.25265405 6.09501208 -10 3 C-7.7109263 -1.03954182 -4.21983723 -0.23885871 0 0 Z " fill="#333333" transform="translate(181,114)"/>
<path d="M0 0 C2.25245881 2.68841859 3.88213958 4.64641875 5 8 C1.37 8.33 -2.26 8.66 -6 9 C-6 8.34 -6 7.68 -6 7 C-9.63 6.67 -13.26 6.34 -17 6 C-17 5.67 -17 5.34 -17 5 C-12.05 5 -7.1 5 -2 5 C-1.34 3.35 -0.68 1.7 0 0 Z " fill="#3A5582" transform="translate(87,38)"/>
<path d="M0 0 C0.99 0 1.98 0 3 0 C2.88610125 1.79240663 2.75852313 3.58394835 2.625 5.375 C2.55539063 6.37273437 2.48578125 7.37046875 2.4140625 8.3984375 C2 11 2 11 0 13 C-2.5 13.25 -2.5 13.25 -5 13 C-7 11 -7 11 -7.1953125 8.6171875 C-7.17210937 7.71226563 -7.14890625 6.80734375 -7.125 5.875 C-7.10695312 4.96492188 -7.08890625 4.05484375 -7.0703125 3.1171875 C-7.04710937 2.41851562 -7.02390625 1.71984375 -7 1 C-6.34 1 -5.68 1 -5 1 C-4.67 3.97 -4.34 6.94 -4 10 C-3.01 10 -2.02 10 -1 10 C-0.67 6.7 -0.34 3.4 0 0 Z " fill="#282828" transform="translate(45,114)"/>
<path d="M0 0 C2.31 0 4.62 0 7 0 C7 0.66 7 1.32 7 2 C5.68 2 4.36 2 3 2 C3 2.99 3 3.98 3 5 C3.99 5 4.98 5 6 5 C6 5.66 6 6.32 6 7 C5.01 7 4.02 7 3 7 C3 8.32 3 9.64 3 11 C4.65 10.34 6.3 9.68 8 9 C8 9.99 8 10.98 8 12 C5.36 12 2.72 12 0 12 C0 8.04 0 4.08 0 0 Z " fill="#363636" transform="translate(107,114)"/>
<path d="M0 0 C0.66 0 1.32 0 2 0 C2 1.65 2 3.3 2 5 C3.32 5 4.64 5 6 5 C6 7.31 6 9.62 6 12 C3.69 12 1.38 12 -1 12 C-0.67 8.04 -0.34 4.08 0 0 Z " fill="#818181" transform="translate(103,84)"/>
<path d="M0 0 C2.5 0.125 2.5 0.125 3.5 1.125 C3.54092937 3.45797433 3.54241723 5.79205225 3.5 8.125 C1.125 8.75 1.125 8.75 -1.5 9.125 C-3.5 7.125 -3.5 7.125 -3.6875 4.0625 C-3.43916756 0.17195838 -3.43916756 0.17195838 0 0 Z " fill="#F2F2F2" transform="translate(84.5,115.875)"/>
<path d="M0 0 C0.66 0 1.32 0 2 0 C2 3.96 2 7.92 2 12 C4.31 12 6.62 12 9 12 C9 12.33 9 12.66 9 13 C5.37 13 1.74 13 -2 13 C-3.26026798 10.47946405 -2.91874445 9.1457902 -2.5625 6.375 C-2.46066406 5.55773437 -2.35882813 4.74046875 -2.25390625 3.8984375 C-2.17011719 3.27195312 -2.08632812 2.64546875 -2 2 C-1.34 2 -0.68 2 0 2 C0 1.34 0 0.68 0 0 Z " fill="#E5E5E5" transform="translate(105,114)"/>
<path d="M0 0 C-1.42336952 3.43980968 -2.79596229 5.09380035 -6 7 C-8.88427674 7.78198394 -11.79772179 8.23951749 -14.75 8.6875 C-15.54277344 8.81705078 -16.33554688 8.94660156 -17.15234375 9.08007812 C-19.09994074 9.39685595 -21.04977861 9.69980217 -23 10 C-23 9.01 -23 8.02 -23 7 C-21.68 7 -20.36 7 -19 7 C-19 6.01 -19 5.02 -19 4 C-18.34 4 -17.68 4 -17 4 C-17 4.99 -17 5.98 -17 7 C-11.75769235 5.65634056 -4.41732463 0 0 0 Z " fill="#2F4974" transform="translate(93,61)"/>
<path d="M0 0 C0.33 1.32 0.66 2.64 1 4 C0.01 4.66 -0.98 5.32 -2 6 C-0.68 6.33 0.64 6.66 2 7 C-5.28571429 10.42857143 -5.28571429 10.42857143 -10 10 C-9.65514457 7.1157546 -9.21744593 6.1792182 -6.93359375 4.296875 C-6.10988281 3.78640625 -5.28617187 3.2759375 -4.4375 2.75 C-3.61121094 2.22921875 -2.78492187 1.7084375 -1.93359375 1.171875 C-1.29550781 0.78515625 -0.65742187 0.3984375 0 0 Z " fill="#CDD9E8" transform="translate(86,58)"/>
<path d="M0 0 C0.66 0 1.32 0 2 0 C2 1.65 2 3.3 2 5 C3.32 5 4.64 5 6 5 C5.125 10.875 5.125 10.875 4 12 C2.35 12 0.7 12 -1 12 C-0.67 8.04 -0.34 4.08 0 0 Z " fill="#646464" transform="translate(17,84)"/>
<path d="M0 0 C1.9375 0.8125 1.9375 0.8125 3.9375 3.8125 C3.2775 3.8125 2.6175 3.8125 1.9375 3.8125 C1.9375 4.8025 1.9375 5.7925 1.9375 6.8125 C-0.3725 7.4725 -2.6825 8.1325 -5.0625 8.8125 C-5.7225 7.8225 -6.3825 6.8325 -7.0625 5.8125 C-5.59136702 2.41757774 -4.19857512 -0.38168865 0 0 Z " fill="#05327C" transform="translate(72.0625,61.1875)"/>
<path d="M0 0 C1.0725 0.103125 2.145 0.20625 3.25 0.3125 C2.26 0.8075 2.26 0.8075 1.25 1.3125 C1.25 1.9725 1.25 2.6325 1.25 3.3125 C-1.83225674 6.65895017 -5.15147125 9.5364921 -8.75 12.3125 C-8.2344419 5.73913418 -7.32876169 0.61073014 0 0 Z " fill="#1C3E74" transform="translate(96.75,-0.3125)"/>
<path d="M0 0 C1.32 0 2.64 0 4 0 C4.33 0.66 4.66 1.32 5 2 C5.33 1.34 5.66 0.68 6 0 C6.66 0 7.32 0 8 0 C8 3.3 8 6.6 8 10 C6.68 10.33 5.36 10.66 4 11 C3 10 3 10 2.90234375 7.93359375 C2.91974609 6.69802734 2.91974609 6.69802734 2.9375 5.4375 C2.94652344 4.61121094 2.95554688 3.78492187 2.96484375 2.93359375 C2.97644531 2.29550781 2.98804688 1.65742187 3 1 C2.01 1.33 1.02 1.66 0 2 C0 1.34 0 0.68 0 0 Z " fill="#DCDCDC" transform="translate(37,114)"/>
<path d="M0 0 C0.66 0 1.32 0 2 0 C2.66 0.99 3.32 1.98 4 3 C4.33 2.67 4.66 2.34 5 2 C6.66617115 1.95936168 8.33388095 1.957279 10 2 C10 2.99 10 3.98 10 5 C9.34 5 8.68 5 8 5 C8 4.34 8 3.68 8 3 C7.34 3 6.68 3 6 3 C6.33 3.99 6.66 4.98 7 6 C6.34 6 5.68 6 5 6 C5 6.66 5 7.32 5 8 C5.66 8.33 6.32 8.66 7 9 C6.01 9 5.02 9 4 9 C3.67 8.01 3.34 7.02 3 6 C2.01 7.485 2.01 7.485 1 9 C0.01 9 -0.98 9 -2 9 C-1.34 6.03 -0.68 3.06 0 0 Z " fill="#6C6C6C" transform="translate(209,87)"/>
<path d="M0 0 C1.134375 0.020625 2.26875 0.04125 3.4375 0.0625 C3.4375 2.3725 3.4375 4.6825 3.4375 7.0625 C0.77083333 7.0625 -1.89583333 7.0625 -4.5625 7.0625 C-4.60504356 5.06295254 -4.60330783 3.06208364 -4.5625 1.0625 C-3.5625 0.0625 -3.5625 0.0625 0 0 Z " fill="#D7D7D7" transform="translate(29.5625,88.9375)"/>
<path d="M0 0 C-1 3 -1 3 -3.5625 5.4375 C-6.45947584 7.89359894 -6.45947584 7.89359894 -6 12 C-5.34 11.67 -4.68 11.34 -4 11 C-4.66 12.32 -5.32 13.64 -6 15 C-6.66 15 -7.32 15 -8 15 C-9.16279782 10.73640798 -8.95710633 7.3069785 -8 3 C-5.83408093 -0.35717456 -3.82960446 -0.31050847 0 0 Z " fill="#174189" transform="translate(49,48)"/>
<path d="M0 0 C0.53625 0.226875 1.0725 0.45375 1.625 0.6875 C0.635 1.1825 0.635 1.1825 -0.375 1.6875 C3.33779469 2.92509823 6.93806346 3.04358897 10.8125 3.25 C11.56208984 3.29318359 12.31167969 3.33636719 13.08398438 3.38085938 C14.93078375 3.48672685 16.77786834 3.5875976 18.625 3.6875 C18.625 4.0175 18.625 4.3475 18.625 4.6875 C11.035 5.0175 3.445 5.3475 -4.375 5.6875 C-4.375 5.0275 -4.375 4.3675 -4.375 3.6875 C-5.695 3.3575 -7.015 3.0275 -8.375 2.6875 C-2.95961538 -0.38942308 -2.95961538 -0.38942308 0 0 Z " fill="#A8B8C2" transform="translate(74.375,70.3125)"/>
<path d="M0 0 C1.4540625 0.0309375 1.4540625 0.0309375 2.9375 0.0625 C2.9375 1.0525 2.9375 2.0425 2.9375 3.0625 C1.2875 2.7325 -0.3625 2.4025 -2.0625 2.0625 C-2.0625 3.0525 -2.0625 4.0425 -2.0625 5.0625 C-1.423125 5.31 -0.78375 5.5575 -0.125 5.8125 C1.9375 7.0625 1.9375 7.0625 2.8125 9.0625 C2.874375 10.0525 2.874375 10.0525 2.9375 11.0625 C0.9375 13.0625 0.9375 13.0625 -1.6875 13.1875 C-2.47125 13.14625 -3.255 13.105 -4.0625 13.0625 C-3.7325 12.0725 -3.4025 11.0825 -3.0625 10.0625 C-1.0825 10.5575 -1.0825 10.5575 0.9375 11.0625 C0.26881686 7.94917752 0.26881686 7.94917752 -2.125 6.875 C-2.764375 6.606875 -3.40375 6.33875 -4.0625 6.0625 C-4.105221 4.39638095 -4.10313832 2.72867115 -4.0625 1.0625 C-3.0625 0.0625 -3.0625 0.0625 0 0 Z " fill="#3B3B3B" transform="translate(206.0625,113.9375)"/>
<path d="M0 0 C2.31 0 4.62 0 7 0 C6.67 0.66 6.34 1.32 6 2 C4.68 1.67 3.36 1.34 2 1 C2 2.32 2 3.64 2 5 C3.32 4.67 4.64 4.34 6 4 C6 4.99 6 5.98 6 7 C4.35 7 2.7 7 1 7 C1 8.32 1 9.64 1 11 C2.65 10.34 4.3 9.68 6 9 C5.67 9.99 5.34 10.98 5 12 C2.69 12 0.38 12 -2 12 C-1.34 8.04 -0.68 4.08 0 0 Z " fill="#363636" transform="translate(75,84)"/>
<path d="M0 0 C1.2065625 0.0309375 1.2065625 0.0309375 2.4375 0.0625 C2.4375 2.3725 2.4375 4.6825 2.4375 7.0625 C0.1275 7.0625 -2.1825 7.0625 -4.5625 7.0625 C-3.5234375 0.0859375 -3.5234375 0.0859375 0 0 Z " fill="#6F6F6F" transform="translate(166.5625,88.9375)"/>
<path d="M0 0 C-1.31914629 2.63829259 -2.23857335 2.98263229 -5 4 C-7.33203812 4.0777346 -9.66839059 4.08967728 -12 4 C-12 4.66 -12 5.32 -12 6 C-12.66 5.67 -13.32 5.34 -14 5 C-13.375 3.125 -13.375 3.125 -12 1 C-7.65093808 -1.07568864 -4.6465893 -1.10633079 0 0 Z " fill="#ACC0D7" transform="translate(72,44)"/>
<path d="M0 0 C0.78375 0.04125 1.5675 0.0825 2.375 0.125 C2.375 2.435 2.375 4.745 2.375 7.125 C0.065 7.125 -2.245 7.125 -4.625 7.125 C-4.75 4.75 -4.75 4.75 -4.625 2.125 C-2.625 0.125 -2.625 0.125 0 0 Z " fill="#6C6C6C" transform="translate(96.625,88.875)"/>
<path d="M0 0 C2.31 0 4.62 0 7 0 C6.01 2.97 5.02 5.94 4 9 C3.01 9 2.02 9 1 9 C1 8.34 1 7.68 1 7 C0.34 7 -0.32 7 -1 7 C-0.34 5.68 0.32 4.36 1 3 C1.66 3 2.32 3 3 3 C3 2.34 3 1.68 3 1 C2.01 0.67 1.02 0.34 0 0 Z " fill="#959296" transform="translate(141,30)"/>
<path d="M0 0 C1.98 0 3.96 0 6 0 C6.33 4.95 6.66 9.9 7 15 C3.07453145 11.07453145 3.34297932 9.40192429 3 4 C3.33 3.34 3.66 2.68 4 2 C2.68 1.67 1.36 1.34 0 1 C0 0.67 0 0.34 0 0 Z " fill="#C7394E" transform="translate(144,12)"/>
<path d="M0 0 C0.66 0 1.32 0 2 0 C2 1.65 2 3.3 2 5 C2.66 4.67 3.32 4.34 4 4 C4 2.68 4 1.36 4 0 C4.99 0 5.98 0 7 0 C7 1.65 7 3.3 7 5 C5.35 5.33 3.7 5.66 2 6 C2 7.65 2 9.3 2 11 C1.34 11 0.68 11 0 11 C0 7.37 0 3.74 0 0 Z " fill="#191919" transform="translate(28,115)"/>
<path d="M0 0 C2.01822917 0.06510417 4.03645833 0.13020833 6.0546875 0.1953125 C6.7146875 2.1753125 7.3746875 4.1553125 8.0546875 6.1953125 C5.29204461 6.79264069 2.89435981 7.1953125 0.0546875 7.1953125 C1.3746875 5.5453125 2.6946875 3.8953125 4.0546875 2.1953125 C2.7346875 2.1953125 1.4146875 2.1953125 0.0546875 2.1953125 C0.0546875 2.8553125 0.0546875 3.5153125 0.0546875 4.1953125 C-1.2653125 3.5353125 -2.5853125 2.8753125 -3.9453125 2.1953125 C-1.9453125 0.1953125 -1.9453125 0.1953125 0 0 Z " fill="#D7E0E6" transform="translate(95.9453125,63.8046875)"/>
<path d="M0 0 C0.99 0.33 1.98 0.66 3 1 C3 1.99 3 2.98 3 4 C0.6875 5.5625 0.6875 5.5625 -2 7 C-2.99 7.66 -3.98 8.32 -5 9 C-5.66 8.67 -6.32 8.34 -7 8 C-6.1875 6.0625 -6.1875 6.0625 -5 4 C-4.01 3.67 -3.02 3.34 -2 3 C-2 2.34 -2 1.68 -2 1 C-1.34 0.67 -0.68 0.34 0 0 Z " fill="#E2EDF4" transform="translate(100,0)"/>
<path d="M0 0 C2.31 0 4.62 0 7 0 C6.01 0.495 6.01 0.495 5 1 C5.33 2.32 5.66 3.64 6 5 C5.01 5.33 4.02 5.66 3 6 C3 4.35 3 2.7 3 1 C2.34 1 1.68 1 1 1 C1 4.63 1 8.26 1 12 C1.99 11.67 2.98 11.34 4 11 C4 11.66 4 12.32 4 13 C2.35 13 0.7 13 -1 13 C-0.67 8.71 -0.34 4.42 0 0 Z " fill="#959595" transform="translate(27,114)"/>
<path d="M0 0 C0.66 0 1.32 0 2 0 C1.52369209 5.52767863 0.95647691 10.78272824 -1 16 C-1.99 16.33 -2.98 16.66 -4 17 C-4 16.34 -4 15.68 -4 15 C-3.34 15 -2.68 15 -2 15 C-2.04125 13.824375 -2.0825 12.64875 -2.125 11.4375 C-2.13983635 7.27590326 -1.31170778 3.93512333 0 0 Z " fill="#F7D6DA" transform="translate(150,49)"/>
<path d="M0 0 C2.31 0 4.62 0 7 0 C7 0.66 7 1.32 7 2 C5.35 1.67 3.7 1.34 2 1 C2 2.32 2 3.64 2 5 C2.99 5 3.98 5 5 5 C4.67 5.66 4.34 6.32 4 7 C3.01 6.67 2.02 6.34 1 6 C1 7.98 1 9.96 1 12 C0.01 12 -0.98 12 -2 12 C-1.34 8.04 -0.68 4.08 0 0 Z " fill="#292929" transform="translate(148,84)"/>
<path d="M0 0 C1.32 0 2.64 0 4 0 C4 3.63 4 7.26 4 11 C3.67 11 3.34 11 3 11 C3 7.7 3 4.4 3 1 C2.34 1 1.68 1 1 1 C1.061875 1.928125 1.12375 2.85625 1.1875 3.8125 C1 7 1 7 -0.5 8.875 C-1.2425 9.431875 -1.2425 9.431875 -2 10 C-3.125 7.6875 -3.125 7.6875 -4 5 C-3.34 4.01 -2.68 3.02 -2 2 C-1.67 2.33 -1.34 2.66 -1 3 C-0.67 2.01 -0.34 1.02 0 0 Z " fill="#C0C0C0" transform="translate(62,114)"/>
<path d="M0 0 C2 0 2 0 3.625 1.5 C4.07875 1.995 4.5325 2.49 5 3 C5.33 2.01 5.66 1.02 6 0 C6 4 6 4 4.8125 5.75 C2.44116664 7.38540232 0.81923877 7.22858693 -2 7 C-1.125 1.125 -1.125 1.125 0 0 Z " fill="#C2C2C2" transform="translate(180,123)"/>
<path d="M0 0 C1.32 0 2.64 0 4 0 C3.67 0.66 3.34 1.32 3 2 C2.34 1.67 1.68 1.34 1 1 C1.020625 2.27875 1.04125 3.5575 1.0625 4.875 C1.125 8.75 1.125 8.75 0 11 C-0.66 11 -1.32 11 -2 11 C-2 11.66 -2 12.32 -2 13 C-2.99 13 -3.98 13 -5 13 C-4.34 11.35 -3.68 9.7 -3 8 C-2.34 8 -1.68 8 -1 8 C-0.67 5.36 -0.34 2.72 0 0 Z " fill="#BABABA" transform="translate(93,114)"/>
<path d="M0 0 C-0.33 0.99 -0.66 1.98 -1 3 C-4.41270242 4.51675663 -7.44169126 3.72783588 -11 3 C-8.59404283 -1.81191435 -4.65715828 -1.05844506 0 0 Z " fill="#F1FAFC" transform="translate(78,45)"/>
<path d="M0 0 C1.0828125 0.37125 1.0828125 0.37125 2.1875 0.75 C2.1875 1.41 2.1875 2.07 2.1875 2.75 C1.135625 3.183125 0.08375 3.61625 -1 4.0625 C-4.10710982 5.38870541 -6.95768195 6.9332976 -9.8125 8.75 C-8.2839655 3.74752345 -5.72433694 -0.50882995 0 0 Z " fill="#2F4C75" transform="translate(63.8125,41.25)"/>
<path d="M0 0 C1.10844919 3.32534757 0.84454356 5.62182575 0 9 C-0.66 8.67 -1.32 8.34 -2 8 C-1.67 7.34 -1.34 6.68 -1 6 C-2.32 6 -3.64 6 -5 6 C-5 4.35 -5 2.7 -5 1 C-3.35 0.67 -1.7 0.34 0 0 Z " fill="#BDBDBD" transform="translate(131,112)"/>
<path d="M0 0 C0.99 0.33 1.98 0.66 3 1 C2.34 4.3 1.68 7.6 1 11 C2.32 10.67 3.64 10.34 5 10 C5 10.66 5 11.32 5 12 C2.36 12 -0.28 12 -3 12 C-2.01 8.04 -1.02 4.08 0 0 Z " fill="#2E2E2E" transform="translate(3,84)"/>
<path d="M0 0 C0.66 0 1.32 0 2 0 C2.33 0.66 2.66 1.32 3 2 C3.99 2.33 4.98 2.66 6 3 C6 6.3 6 9.6 6 13 C5.01 13 4.02 13 3 13 C3.04125 12.05125 3.0825 11.1025 3.125 10.125 C3.34973818 6.89755144 3.34973818 6.89755144 1 5 C0.375 2.375 0.375 2.375 0 0 Z " fill="#F5D7DA" transform="translate(142,11)"/>
<path d="M0 0 C2.64 0 5.28 0 8 0 C8.33 1.65 8.66 3.3 9 5 C8.01 5.495 8.01 5.495 7 6 C7 4.68 7 3.36 7 2 C5.35 1.67 3.7 1.34 2 1 C1.67 3.31 1.34 5.62 1 8 C0.67 8 0.34 8 0 8 C0 5.36 0 2.72 0 0 Z " fill="#101010" transform="translate(3,112)"/>
<path d="M0 0 C0.99 0.33 1.98 0.66 3 1 C2.67 2.65 2.34 4.3 2 6 C1.34 6 0.68 6 0 6 C-0.33 7.32 -0.66 8.64 -1 10 C-1 8.68 -1 7.36 -1 6 C-1.99 6 -2.98 6 -4 6 C-4 4.35 -4 2.7 -4 1 C-3.34 1 -2.68 1 -2 1 C-2 1.99 -2 2.98 -2 4 C-1.34 4 -0.68 4 0 4 C0 2.68 0 1.36 0 0 Z " fill="#CECECE" transform="translate(90,89)"/>
<path d="M0 0 C-0.33 0.99 -0.66 1.98 -1 3 C-6.28 3 -11.56 3 -17 3 C-17 2.67 -17 2.34 -17 2 C-5.47835991 -0.29612756 -5.47835991 -0.29612756 0 0 Z " fill="#153559" transform="translate(94,71)"/>
<path d="M0 0 C2.475 0.495 2.475 0.495 5 1 C5.125 3.875 5.125 3.875 5 7 C4.34 7.66 3.68 8.32 3 9 C2.01 9 1.02 9 0 9 C0 7.68 0 6.36 0 5 C1.32 5.33 2.64 5.66 4 6 C4 5.01 4 4.02 4 3 C2.68 3 1.36 3 0 3 C0 2.01 0 1.02 0 0 Z " fill="#EFEFEF" transform="translate(215,116)"/>
<path d="M0 0 C1.98 0 3.96 0 6 0 C5.67 1.65 5.34 3.3 5 5 C4.01 5 3.02 5 2 5 C1.67 6.98 1.34 8.96 1 11 C0.67 11 0.34 11 0 11 C0 7.37 0 3.74 0 0 Z " fill="#808080" transform="translate(51,114)"/>
<path d="M0 0 C1.98 0 3.96 0 6 0 C6 2.31 6 4.62 6 7 C5.34 7 4.68 7 4 7 C3.67 5.35 3.34 3.7 3 2 C2.34 3.65 1.68 5.3 1 7 C0.34 7 -0.32 7 -1 7 C-0.67 4.69 -0.34 2.38 0 0 Z " fill="#3B3B3B" transform="translate(193,89)"/>
<path d="M0 0 C0.66 0 1.32 0 2 0 C1.6875 2.875 1.6875 2.875 1 6 C0.01 6.66 -0.98 7.32 -2 8 C-2.33 6.68 -2.66 5.36 -3 4 C-4.98 4 -6.96 4 -9 4 C-9 3.67 -9 3.34 -9 3 C-4.545 2.505 -4.545 2.505 0 2 C0 1.34 0 0.68 0 0 Z " fill="#405B7D" transform="translate(88,50)"/>
<path d="M0 0 C0.93423645 3.01031744 1.04449911 3.86650268 0 7 C-0.99 7 -1.98 7 -3 7 C-4.04892238 8.63631892 -5.04906703 10.30485863 -6 12 C-6.99 12.495 -6.99 12.495 -8 13 C-6.24385848 8.02426569 -3.74380523 3.74380523 0 0 Z " fill="#C9D5E6" transform="translate(92,8)"/>
<path d="M0 0 C1.875 0.1875 1.875 0.1875 4 1 C5.375 3.375 5.375 3.375 6 6 C5.01 7.485 5.01 7.485 4 9 C3.67 8.01 3.34 7.02 3 6 C2.01 6 1.02 6 0 6 C0 4.02 0 2.04 0 0 Z " fill="#9F9F9F" transform="translate(6,113)"/>
<path d="M0 0 C0.33 0.99 0.66 1.98 1 3 C1.66 3 2.32 3 3 3 C2.88590407 4.45922693 2.75834456 5.91740598 2.625 7.375 C2.55539062 8.18710938 2.48578125 8.99921875 2.4140625 9.8359375 C2 12 2 12 0 14 C0 9.38 0 4.76 0 0 Z " fill="#E8E8E8" transform="translate(0,81)"/>
<path d="M0 0 C2.25245881 2.68841859 3.88213958 4.64641875 5 8 C3.02 8 1.04 8 -1 8 C-2.2077558 4.37673261 -1.54311128 3.35853631 0 0 Z " fill="#4A6683" transform="translate(87,38)"/>
<path d="M0 0 C1.32 0 2.64 0 4 0 C5.38550197 2.77100394 5.1877467 4.9334706 5 8 C4.01 9.485 4.01 9.485 3 11 C0.525 10.01 0.525 10.01 -2 9 C-2 8.67 -2 8.34 -2 8 C-0.35 7.67 1.3 7.34 3 7 C2.38722388 4.03824877 1.74627478 2.61941217 0 0 Z " fill="#C04057" transform="translate(141,0)"/>
<path d="M0 0 C1.32 0 2.64 0 4 0 C4 0.66 4 1.32 4 2 C6.64 2.33 9.28 2.66 12 3 C11.67 3.66 11.34 4.32 11 5 C6.428721 4.45144652 2.32564205 3.58255197 -2 2 C-1.34 1.34 -0.68 0.68 0 0 Z " fill="#505050" transform="translate(84,125)"/>
<path d="M0 0 C1.32 0 2.64 0 4 0 C4 0.66 4 1.32 4 2 C2.68 2 1.36 2 0 2 C0.33 4.31 0.66 6.62 1 9 C-0.65 9 -2.3 9 -4 9 C-3.71125 8.443125 -3.4225 7.88625 -3.125 7.3125 C-1.9586747 4.91505355 -0.9660119 2.48403061 0 0 Z " fill="#484848" transform="translate(126,118)"/>
<path d="M0 0 C0.33 0 0.66 0 1 0 C1.12375 1.093125 1.2475 2.18625 1.375 3.3125 C1.75464801 7.07381802 1.75464801 7.07381802 4 10 C2.68 10 1.36 10 0 10 C-2 7 -2 7 -1.6875 3.875 C-1 1 -1 1 0 0 Z " fill="#2C2C2C" transform="translate(80,116)"/>
<path d="M0 0 C0.99 0 1.98 0 3 0 C2.67 3.96 2.34 7.92 2 12 C1.34 12 0.68 12 0 12 C0 8.04 0 4.08 0 0 Z " fill="#151515" transform="translate(196,114)"/>
<path d="M0 0 C2.60018816 3.90028225 2.15085514 7.47434569 2 12 C1.34 12 0.68 12 0 12 C0 10.02 0 8.04 0 6 C-2.31 6 -4.62 6 -7 6 C-7 5.67 -7 5.34 -7 5 C-4.69 5 -2.38 5 0 5 C0 3.35 0 1.7 0 0 Z " fill="#EFC7C9" transform="translate(148,24)"/>
<path d="M0 0 C0.99 0 1.98 0 3 0 C2.67 3.63 2.34 7.26 2 11 C1.01 11 0.02 11 -1 11 C-0.67 7.37 -0.34 3.74 0 0 Z " fill="#525252" transform="translate(45,114)"/>
<path d="M0 0 C2.97 0.33 5.94 0.66 9 1 C6.44931155 3.35448165 5.28982642 3.98327924 1.75 4.1875 C0.8425 4.125625 -0.065 4.06375 -1 4 C-0.67 2.68 -0.34 1.36 0 0 Z " fill="#1C3E71" transform="translate(61,70)"/>
<path d="M0 0 C1.66611905 -0.042721 3.33382885 -0.04063832 5 0 C6 1 6 1 6.0625 4.5625 C6.041875 5.696875 6.02125 6.83125 6 8 C5.67 7.01 5.34 6.02 5 5 C4.34 5 3.68 5 3 5 C2.34 4.01 1.68 3.02 1 2 C0.01 2.495 0.01 2.495 -1 3 C-0.67 2.01 -0.34 1.02 0 0 Z " fill="#E6E6E6" transform="translate(82,116)"/>
<path d="M0 0 C0.99 0 1.98 0 3 0 C2.67 3.63 2.34 7.26 2 11 C1.34 11 0.68 11 0 11 C-0.19491452 9.54263913 -0.38069358 8.08405407 -0.5625 6.625 C-0.66691406 5.81289062 -0.77132813 5.00078125 -0.87890625 4.1640625 C-1 2 -1 2 0 0 Z " fill="#727272" transform="translate(11,85)"/>
<path d="M0 0 C0.66 0 1.32 0 2 0 C0.60812281 3.36370321 -0.79431396 5.21906331 -4 7 C-7.25 7.1875 -7.25 7.1875 -10 7 C-7.96153279 5.64102186 -5.91973686 4.28702633 -3.875 2.9375 C-1.21312042 1.27685736 -1.21312042 1.27685736 0 0 Z " fill="#707E88" transform="translate(91,61)"/>
<path d="M0 0 C1.98 0.66 3.96 1.32 6 2 C5.34 3.32 4.68 4.64 4 6 C3.01 5.67 2.02 5.34 1 5 C0.67 3.35 0.34 1.7 0 0 Z M1 6 C1.66 6.33 2.32 6.66 3 7 C2.01 7.66 1.02 8.32 0 9 C0.33 8.01 0.66 7.02 1 6 Z " fill="#EAF4F7" transform="translate(58,50)"/>
<path d="M0 0 C2.23381953 4.08312914 2.70122081 7.36892261 3 12 C2.34 12.66 1.68 13.32 1 14 C-0.38226016 11.23547967 -0.09525387 8.9538637 -0.0625 5.875 C-0.05347656 4.77929688 -0.04445313 3.68359375 -0.03515625 2.5546875 C-0.02355469 1.71164063 -0.01195313 0.86859375 0 0 Z " fill="#1D3C73" transform="translate(84,28)"/>
<path d="M0 0 C1.65 1.65 3.3 3.3 5 5 C1.5647952 7.29013653 0.014669 7.17842973 -4 7 C-3.67 6.34 -3.34 5.68 -3 5 C-2.01 5.33 -1.02 5.66 0 6 C0 4.02 0 2.04 0 0 Z " fill="#BFBFBF" transform="translate(6,120)"/>
<path d="M0 0 C0.66 0 1.32 0 2 0 C2 1.65 2 3.3 2 5 C2.66 5.33 3.32 5.66 4 6 C3.34 6 2.68 6 2 6 C2 7.65 2 9.3 2 11 C1.34 11 0.68 11 0 11 C0 7.37 0 3.74 0 0 Z " fill="#0A0A0A" transform="translate(135,115)"/>
<path d="M0 0 C0.33 0 0.66 0 1 0 C1 3.3 1 6.6 1 10 C1.66 10 2.32 10 3 10 C3 8.68 3 7.36 3 6 C3.66 6 4.32 6 5 6 C5.33 6.99 5.66 7.98 6 9 C5.67 9.66 5.34 10.32 5 11 C3.35 11 1.7 11 0 11 C0 7.37 0 3.74 0 0 Z " fill="#B7B7B7" transform="translate(134,116)"/>
<path d="M0 0 C-0.33 0.99 -0.66 1.98 -1 3 C0.98 3 2.96 3 5 3 C5 3.33 5 3.66 5 4 C2.03 4 -0.94 4 -4 4 C-4 3.34 -4 2.68 -4 2 C-5.32 1.67 -6.64 1.34 -8 1 C-5.07175348 0.02391783 -3.04386724 -0.08226668 0 0 Z " fill="#A4B8C7" transform="translate(61,71)"/>
<path d="M0 0 C0.66 0.33 1.32 0.66 2 1 C1.67 1.66 1.34 2.32 1 3 C1.66 3.33 2.32 3.66 3 4 C0 6 0 6 -3 6 C-3.66 4.68 -4.32 3.36 -5 2 C-2.625 0.9375 -2.625 0.9375 0 0 Z " fill="#DEE8F0" transform="translate(88,66)"/>
<path d="M0 0 C-0.66 1.32 -1.32 2.64 -2 4 C-3.65 4 -5.3 4 -7 4 C-7 3.01 -7 2.02 -7 1 C-4.53721199 -0.231394 -2.7204945 -0.07159196 0 0 Z " fill="#163873" transform="translate(60,63)"/>
<path d="M0 0 C-1.98 0.99 -1.98 0.99 -4 2 C-4 2.66 -4 3.32 -4 4 C-11.75 3.25 -11.75 3.25 -14 1 C-12.23103898 0.63659714 -10.45973374 0.28459117 -8.6875 -0.0625 C-7.70136719 -0.25972656 -6.71523437 -0.45695312 -5.69921875 -0.66015625 C-3 -1 -3 -1 0 0 Z " fill="#5673A1" transform="translate(72,61)"/>
<path d="M0 0 C4.70310404 0.47828177 9.34297349 1.18502036 14 2 C14 2.33 14 2.66 14 3 C12.06280622 3.05406122 10.12518079 3.09282025 8.1875 3.125 C7.10855469 3.14820313 6.02960938 3.17140625 4.91796875 3.1953125 C2 3 2 3 -1 1 C-0.67 0.67 -0.34 0.34 0 0 Z " fill="#0A3070" transform="translate(64,40)"/>
<path d="M0 0 C1.65 0 3.3 0 5 0 C5.33 1.32 5.66 2.64 6 4 C4.02 4 2.04 4 0 4 C0 2.68 0 1.36 0 0 Z " fill="#9F9F9F" transform="translate(82,96)"/>
<path d="M0 0 C0 1.32 0 2.64 0 4 C-1.32 4 -2.64 4 -4 4 C-4 4.66 -4 5.32 -4 6 C-3.34 6.33 -2.68 6.66 -2 7 C-2.99 7 -3.98 7 -5 7 C-5 5.02 -5 3.04 -5 1 C-3 0 -3 0 0 0 Z " fill="#555555" transform="translate(123,89)"/>
<path d="M0 0 C1.32 0 2.64 0 4 0 C3.67 1.32 3.34 2.64 3 4 C2.01 4 1.02 4 0 4 C0 4.66 0 5.32 0 6 C0.66 6.33 1.32 6.66 2 7 C1.01 7 0.02 7 -1 7 C-1.04254356 5.00045254 -1.04080783 2.99958364 -1 1 C-0.67 0.67 -0.34 0.34 0 0 Z " fill="#4E4E4E" transform="translate(26,89)"/>
<path d="M0 0 C0.99 0.33 1.98 0.66 3 1 C3 2.32 3 3.64 3 5 C-0.81489674 6.46726798 -3.29011622 5.43336419 -7 4 C-6.401875 3.896875 -5.80375 3.79375 -5.1875 3.6875 C-2.71756736 2.91123545 -1.67748765 1.92911079 0 0 Z " fill="#3A588D" transform="translate(74,50)"/>
<path d="M0 0 C0.66 0 1.32 0 2 0 C2 0.66 2 1.32 2 2 C2.66 2.33 3.32 2.66 4 3 C0.86501708 4.85776765 -1.37471432 5.20140476 -5 5 C-4.67 4.34 -4.34 3.68 -4 3 C-3.01 3 -2.02 3 -1 3 C-0.67 2.01 -0.34 1.02 0 0 Z " fill="#EDF6FB" transform="translate(81,63)"/>
<path d="M0 0 C0.33 0.66 0.66 1.32 1 2 C1.66 2.33 2.32 2.66 3 3 C2.67 3.66 2.34 4.32 2 5 C2.66 5.33 3.32 5.66 4 6 C3.01 6.99 2.02 7.98 1 9 C0.34 8.67 -0.32 8.34 -1 8 C-1.04241723 5.66705225 -1.04092937 3.33297433 -1 1 C-0.67 0.67 -0.34 0.34 0 0 Z " fill="#C3D6E2" transform="translate(57,50)"/>
<path d="M0 0 C0.33 0 0.66 0 1 0 C1 3.63 1 7.26 1 11 C0.34 11 -0.32 11 -1 11 C-1.66 10.01 -2.32 9.02 -3 8 C-2.67 7.01 -2.34 6.02 -2 5 C-1.67 5.33 -1.34 5.66 -1 6 C-0.67 4.02 -0.34 2.04 0 0 Z " fill="#0F0F0F" transform="translate(167,115)"/>
<path d="M0 0 C0.66 0 1.32 0 2 0 C2 1.32 2 2.64 2 4 C2.99 3.67 3.98 3.34 5 3 C5 3.66 5 4.32 5 5 C2.03 5 -0.94 5 -4 5 C-3.01 4.67 -2.02 4.34 -1 4 C-0.26676204 1.98491642 -0.26676204 1.98491642 0 0 Z " fill="#BDBDBD" transform="translate(156,122)"/>
<path d="M0 0 C2.97 0 5.94 0 9 0 C9 0.99 9 1.98 9 3 C7.35 2.67 5.7 2.34 4 2 C3.67 2.99 3.34 3.98 3 5 C3 3.68 3 2.36 3 1 C2.01 1.33 1.02 1.66 0 2 C0 1.34 0 0.68 0 0 Z " fill="#5A5A5A" transform="translate(211,114)"/>
<path d="M0 0 C2.31 0.33 4.62 0.66 7 1 C6.01 2.485 6.01 2.485 5 4 C3.33333333 4 1.66666667 4 0 4 C0 2.68 0 1.36 0 0 Z " fill="#E7E7E7" transform="translate(76,91)"/>
<path d="M0 0 C1.65 0 3.3 0 5 0 C5.33 1.32 5.66 2.64 6 4 C4.02 4 2.04 4 0 4 C0 2.68 0 1.36 0 0 Z " fill="#E0E0E0" transform="translate(19,121)"/>
<path d="M0 0 C1.32 0 2.64 0 4 0 C3.67 0.66 3.34 1.32 3 2 C2.34 1.67 1.68 1.34 1 1 C1.33 1.99 1.66 2.98 2 4 C1.34 4 0.68 4 0 4 C0.33 4.99 0.66 5.98 1 7 C0.01 7 -0.98 7 -2 7 C-1.125 1.125 -1.125 1.125 0 0 Z " fill="#414141" transform="translate(179,89)"/>
<path d="M0 0 C1.65 0 3.3 0 5 0 C5 0.66 5 1.32 5 2 C4.01 2 3.02 2 2 2 C1.67 3.65 1.34 5.3 1 7 C0.34 7 -0.32 7 -1 7 C-0.67 4.69 -0.34 2.38 0 0 Z " fill="#484848" transform="translate(186,89)"/>
<path d="M0 0 C0.99 1.32 1.98 2.64 3 4 C-2.75 7 -2.75 7 -5 7 C-3.70700306 4.11562221 -2.34058637 2.12780579 0 0 Z " fill="#ABC6DE" transform="translate(55,59)"/>
<path d="M0 0 C0.66 0 1.32 0 2 0 C2 0.66 2 1.32 2 2 C2.99 1.67 3.98 1.34 5 1 C5.33 1.99 5.66 2.98 6 4 C2.88772805 4 0.05847848 3.54372951 -3 3 C-2.01 2.67 -1.02 2.34 0 2 C0 1.34 0 0.68 0 0 Z " fill="#234988" transform="translate(77,57)"/>
<path d="M0 0 C1.09658936 3.28976808 0.79953138 4.71303767 0 8 C-0.66 7.67 -1.32 7.34 -2 7 C-1.67 6.34 -1.34 5.68 -1 5 C-1.99 5 -2.98 5 -4 5 C-4 4.01 -4 3.02 -4 2 C-2.68 2 -1.36 2 0 2 C0 1.34 0 0.68 0 0 Z " fill="#C9C9C9" transform="translate(114,114)"/>
<path d="M0 0 C1.32 0 2.64 0 4 0 C4 1.32 4 2.64 4 4 C2.68 4.33 1.36 4.66 0 5 C0 3.35 0 1.7 0 0 Z M-2 5 C0 6 0 6 0 6 Z " fill="#E1E1E1" transform="translate(12,114)"/>
<path d="M0 0 C0.66 0 1.32 0 2 0 C1.67 2.97 1.34 5.94 1 9 C0.34 9 -0.32 9 -1 9 C-1.125 2.25 -1.125 2.25 0 0 Z " fill="#4E4E4E" transform="translate(41,87)"/>
<path d="M0 0 C0.66 0.99 1.32 1.98 2 3 C1.34 3 0.68 3 0 3 C0 4.98 0 6.96 0 9 C-0.66 9 -1.32 9 -2 9 C-2.125 5.625 -2.125 5.625 -2 2 C-1.34 1.34 -0.68 0.68 0 0 Z " fill="#454545" transform="translate(174,87)"/>
<path d="M0 0 C-1.375 1.5 -1.375 1.5 -3 3 C-3.66 3 -4.32 3 -5 3 C-5 3.66 -5 4.32 -5 5 C-5.66 5 -6.32 5 -7 5 C-7 3.68 -7 2.36 -7 1 C-3.375 -1.125 -3.375 -1.125 0 0 Z " fill="#234673" transform="translate(56,43)"/>
<path d="M0 0 C0.99 0 1.98 0 3 0 C3 2.64 3 5.28 3 8 C2.34 8 1.68 8 1 8 C0.67 5.36 0.34 2.72 0 0 Z " fill="#C8253B" transform="translate(154,40)"/>
<path d="M0 0 C1.65 1.32 3.3 2.64 5 4 C4.67 5.32 4.34 6.64 4 8 C0 3.375 0 3.375 0 0 Z " fill="#FBD6D9" transform="translate(140,0)"/>
<path d="M0 0 C0.66 0 1.32 0 2 0 C1.67 1.65 1.34 3.3 1 5 C-0.32 5 -1.64 5 -3 5 C-2.67 3.68 -2.34 2.36 -2 1 C-1.67 1.33 -1.34 1.66 -1 2 C-0.67 1.34 -0.34 0.68 0 0 Z " fill="#E8E8E8" transform="translate(99,120)"/>
<path d="M0 0 C1.2065625 0.0309375 1.2065625 0.0309375 2.4375 0.0625 C1.4375 3.0625 1.4375 3.0625 -0.625 4.25 C-1.264375 4.518125 -1.90375 4.78625 -2.5625 5.0625 C-3.125 3.125 -3.125 3.125 -3.5625 1.0625 C-2.5625 0.0625 -2.5625 0.0625 0 0 Z " fill="#1E4078" transform="translate(46.5625,47.9375)"/>
<path d="M0 0 C2.31 0 4.62 0 7 0 C6.67 0.99 6.34 1.98 6 3 C4.02 3 2.04 3 0 3 C0 2.01 0 1.02 0 0 Z " fill="#4E4E4E" transform="translate(174,114)"/>
</svg>
