<?xml version="1.0" encoding="UTF-8"?>
<svg version="1.1" xmlns="http://www.w3.org/2000/svg" width="243" height="72">
<path d="M0 0 C80.19 0 160.38 0 243 0 C243 23.76 243 47.52 243 72 C162.81 72 82.62 72 0 72 C0 48.24 0 24.48 0 0 Z " fill="#FCFDFD" transform="translate(0,0)"/>
<path d="M0 0 C16.83 0 33.66 0 51 0 C51 4.62 51 9.24 51 14 C49.35696827 15.64303173 47.31992705 15.31862853 45.0625 15.5 C41.39442535 15.75214943 41.39442535 15.75214943 38 17 C37.67 27.23 37.34 37.46 37 48 C32.77602873 49.68958851 31.05821872 50.2546764 26.8046875 50.265625 C25.84175781 50.26820312 24.87882812 50.27078125 23.88671875 50.2734375 C22.89285156 50.26570313 21.89898438 50.25796875 20.875 50.25 C19.37259766 50.26160156 19.37259766 50.26160156 17.83984375 50.2734375 C16.87949219 50.27085938 15.91914063 50.26828125 14.9296875 50.265625 C14.05554199 50.26336914 13.18139648 50.26111328 12.28076172 50.25878906 C10 50 10 50 7 48 C6.65942383 45.84521484 6.65942383 45.84521484 6.70703125 43.2109375 C6.71669922 42.26992188 6.72636719 41.32890625 6.73632812 40.359375 C6.76146484 39.37453125 6.78660156 38.3896875 6.8125 37.375 C6.82603516 36.38242187 6.83957031 35.38984375 6.85351562 34.3671875 C6.88894257 31.91091928 6.93833804 29.45572715 7 27 C6.030625 27.020625 5.06125 27.04125 4.0625 27.0625 C1 27 1 27 0 26 C-0.08748207 24.07332493 -0.10697334 22.14348139 -0.09765625 20.21484375 C-0.09515869 19.16159912 -0.09266113 18.10835449 -0.09008789 17.02319336 C-0.08098389 15.67491455 -0.07187988 14.32663574 -0.0625 12.9375 C-0.041875 8.668125 -0.02125 4.39875 0 0 Z " fill="#8CB3DA" transform="translate(0,0)"/>
<path d="M0 0 C2.31 0.33 4.62 0.66 7 1 C7 7.93 7 14.86 7 22 C9.59257669 22.86419223 11.34037707 23.17580932 14.01171875 23.31640625 C14.76904297 23.35830078 15.52636719 23.40019531 16.30664062 23.44335938 C17.48516602 23.50233398 17.48516602 23.50233398 18.6875 23.5625 C19.48478516 23.60568359 20.28207031 23.64886719 21.10351562 23.69335938 C23.06881447 23.79927368 25.03438496 23.90012551 27 24 C27 25.98 27 27.96 27 30 C33.93 30.33 40.86 30.66 48 31 C48 31.66 48 32.32 48 33 C48.66 33 49.32 33 50 33 C51 35 51 35 51 46 C34.17 46 17.34 46 0 46 C0 30.82 0 15.64 0 0 Z " fill="#FBFDFB" transform="translate(0,26)"/>
<path d="M0 0 C2.9375 0.375 2.9375 0.375 6 1 C6.33 1.66 6.66 2.32 7 3 C7.99 3.33 8.98 3.66 10 4 C10 2.68 10 1.36 10 0 C10.66 0 11.32 0 12 0 C12 10.56 12 21.12 12 32 C10 32 10 32 7.8125 29.9375 C5.48443146 26.1644234 6.00755454 24.21789322 7 20 C4.36 20 1.72 20 -1 20 C-1.12375 20.969375 -1.2475 21.93875 -1.375 22.9375 C-1.684375 24.4534375 -1.684375 24.4534375 -2 26 C-4.55126768 27.27563384 -6.46322086 27.20373295 -9.3125 27.25 C-10.25738281 27.27578125 -11.20226562 27.3015625 -12.17578125 27.328125 C-15.64751713 26.92476979 -17.38520072 26.34673533 -20 24 C-20.44179365 21.2843593 -20.56911566 19.25416929 -20.4375 16.5625 C-20.41558594 15.24378906 -20.39367188 13.92507812 -20.37109375 12.56640625 C-20 9 -20 9 -18 5 C-12.72 5 -7.44 5 -2 5 C-2 6.98 -2 8.96 -2 11 C0.64 11 3.28 11 6 11 C5.09571164 5.38264724 5.09571164 5.38264724 1.875 1 C1.25625 0.67 0.6375 0.34 0 0 Z " fill="#EDF8F9" transform="translate(82,15)"/>
<path d="M0 0 C11.88 0 23.76 0 36 0 C36 5.28 36 10.56 36 16 C32 20 32 20 29.98535156 20.45410156 C28.94846191 20.42268066 28.94846191 20.42268066 27.890625 20.390625 C27.13652344 20.37773437 26.38242187 20.36484375 25.60546875 20.3515625 C24.82816406 20.31804688 24.05085938 20.28453125 23.25 20.25 C22.06083984 20.22292969 22.06083984 20.22292969 20.84765625 20.1953125 C18.89791652 20.14833082 16.94880122 20.07659044 15 20 C14.67 17.69 14.34 15.38 14 13 C9.38 13 4.76 13 0 13 C0 8.71 0 4.42 0 0 Z " fill="#FCFDFE" transform="translate(0,0)"/>
<path d="M0 0 C1.7890625 1.2890625 1.7890625 1.2890625 3 3 C3.76786743 7.86316038 3.62997309 12.5300628 1.6875 17.0625 C-0.95808306 20.10002129 -2.58751418 20.95768234 -6.6171875 21.37109375 C-8.03624366 21.40424927 -9.45560322 21.42599138 -10.875 21.4375 C-11.93654297 21.48680664 -11.93654297 21.48680664 -13.01953125 21.53710938 C-16.84227495 21.57626224 -18.81999238 21.12664568 -21.96484375 18.9140625 C-25.60582601 13.70067908 -24.99360596 8.08769026 -24 2 C-19.0441192 -4.51344334 -6.81710157 -3.47264319 0 0 Z " fill="#297697" transform="translate(150,26)"/>
<path d="M0 0 C3.3 0 6.6 0 10 0 C11.11823815 2.23647631 11.19396061 3.64891529 11.31640625 6.1328125 C11.35830078 6.93847656 11.40019531 7.74414062 11.44335938 8.57421875 C11.48267578 9.41597656 11.52199219 10.25773437 11.5625 11.125 C11.60568359 11.97449219 11.64886719 12.82398438 11.69335938 13.69921875 C11.79954236 15.79928223 11.90028497 17.89961948 12 20 C17.61 20.33 23.22 20.66 29 21 C29 25.95 29 30.9 29 36 C24.05 36 19.1 36 14 36 C13.505 29.565 13.505 29.565 13 23 C12.34 23 11.68 23 11 23 C11 22.34 11 21.68 11 21 C10.43490723 21.00523682 9.86981445 21.01047363 9.28759766 21.01586914 C6.7334097 21.03662422 4.17923947 21.0496554 1.625 21.0625 C0.73554687 21.07087891 -0.15390625 21.07925781 -1.0703125 21.08789062 C-2.34648438 21.09272461 -2.34648438 21.09272461 -3.6484375 21.09765625 C-4.82672119 21.10551147 -4.82672119 21.10551147 -6.02880859 21.11352539 C-8 21 -8 21 -10 20 C-10 18.02 -10 16.04 -10 14 C-6.7 13.34 -3.4 12.68 0 12 C0 8.04 0 4.08 0 0 Z " fill="#B6D28E" transform="translate(37,36)"/>
<path d="M0 0 C0.7940625 -0.020625 1.588125 -0.04125 2.40625 -0.0625 C7.09942292 -0.09378782 10.19421304 0.18753081 14 3.25 C15.35439668 5.95879335 15.06501451 8.25933268 15 11.25 C12.36 11.25 9.72 11.25 7 11.25 C7 9.27 7 7.29 7 5.25 C1.72 5.25 -3.56 5.25 -9 5.25 C-10.00894164 9.28576656 -10.11303696 12.88706929 -10.0625 17 C-10.05798828 17.69738281 -10.05347656 18.39476563 -10.04882812 19.11328125 C-10.0371002 20.82555803 -10.01916653 22.53779033 -10 24.25 C-6.40537669 26.50998595 -3.43404325 26.45868087 0.75 26.375 C1.92046875 26.35695313 3.0909375 26.33890625 4.296875 26.3203125 C5.63492188 26.28550781 5.63492188 26.28550781 7 26.25 C7.33 24.27 7.66 22.29 8 20.25 C10.64 20.25 13.28 20.25 16 20.25 C15.3943662 27.63873239 15.3943662 27.63873239 13.75 30.1875 C7.33052493 34.08503843 -4.65256473 33.13288251 -11.7890625 31.68359375 C-13.9375 30.9375 -13.9375 30.9375 -17 29.25 C-18.47969145 24.81092566 -18.26558625 20.4632164 -18.3125 15.8125 C-18.34150391 14.85794922 -18.37050781 13.90339844 -18.40039062 12.91992188 C-18.46374603 5.95570049 -18.46374603 5.95570049 -16.29296875 2.65234375 C-11.29842359 -0.40224179 -5.69170161 0.0369591 0 0 Z " fill="#1F7195" transform="translate(73,14.75)"/>
<path d="M0 0 C2.31 0 4.62 0 7 0 C7.33 3.63 7.66 7.26 8 11 C9.32 10.34 10.64 9.68 12 9 C16.86925343 8.69084105 20.61778223 8.6096994 25 11 C26.17426264 13.34852528 26.11508173 14.73774065 26.09765625 17.3515625 C26.09443359 18.20234375 26.09121094 19.053125 26.08789062 19.9296875 C26.07951172 20.81914063 26.07113281 21.70859375 26.0625 22.625 C26.05798828 23.5221875 26.05347656 24.419375 26.04882812 25.34375 C26.03702591 27.56256648 26.02056155 29.78125018 26 32 C23.69 32 21.38 32 19 32 C18.505 22.595 18.505 22.595 18 13 C12.51257291 12.98584708 12.51257291 12.98584708 8 15 C7.76298761 17.85877909 7.57780818 20.69883297 7.4375 23.5625 C7.39431641 24.36880859 7.35113281 25.17511719 7.30664062 26.00585938 C7.20024738 28.00368805 7.09959112 30.0018207 7 32 C4.69 32 2.38 32 0 32 C0 21.44 0 10.88 0 0 Z " fill="#327B95" transform="translate(94,15)"/>
<path d="M0 0 C2.31 0 4.62 0 7 0 C7.33 5.94 7.66 11.88 8 18 C14.32917961 18.52174919 14.32917961 18.52174919 17 17 C17.33 11.39 17.66 5.78 18 0 C20.64 0 23.28 0 26 0 C26 7.59 26 15.18 26 23 C23.69 23 21.38 23 19 23 C19 22.01 19 21.02 19 20 C18.4534375 20.48855469 17.906875 20.97710937 17.34375 21.48046875 C14.49599345 23.32676425 12.8644464 23.3725794 9.5 23.3125 C8.5615625 23.30863281 7.623125 23.30476563 6.65625 23.30078125 C4 23 4 23 0 21 C0 14.07 0 7.14 0 0 Z " fill="#498FA9" transform="translate(185,24)"/>
<path d="M0 0 C1.29808594 -0.01675781 2.59617188 -0.03351562 3.93359375 -0.05078125 C7.70320328 0.32658547 9.65024471 0.91648264 12.5625 3.3125 C12.5625 4.3025 12.5625 5.2925 12.5625 6.3125 C10.5825 6.3125 8.6025 6.3125 6.5625 6.3125 C6.5625 5.6525 6.5625 4.9925 6.5625 4.3125 C2.9325 4.3125 -0.6975 4.3125 -4.4375 4.3125 C-4.4375 5.9625 -4.4375 7.6125 -4.4375 9.3125 C-3.48488281 9.27769531 -2.53226563 9.24289063 -1.55078125 9.20703125 C-0.29652344 9.17996094 0.95773438 9.15289062 2.25 9.125 C3.49136719 9.09019531 4.73273438 9.05539063 6.01171875 9.01953125 C9.79128649 9.33137677 11.64893115 9.91470417 14.5625 12.3125 C15.07063708 15.86945956 15.36058556 18.17237777 13.25 21.1875 C9.1822614 23.89932573 4.75688366 23.53115186 0.0625 23.5625 C-0.70964844 23.583125 -1.48179687 23.60375 -2.27734375 23.625 C-7.95447527 23.6643562 -7.95447527 23.6643562 -10.18164062 22.04199219 C-11.4375 20.3125 -11.4375 20.3125 -11.4375 16.3125 C-9.1275 16.3125 -6.8175 16.3125 -4.4375 16.3125 C-4.4375 17.3025 -4.4375 18.2925 -4.4375 19.3125 C-0.4775 19.3125 3.4825 19.3125 7.5625 19.3125 C7.5625 17.6625 7.5625 16.0125 7.5625 14.3125 C5.75652344 14.23902344 5.75652344 14.23902344 3.9140625 14.1640625 C2.33851802 14.08903657 0.76299834 14.01348867 -0.8125 13.9375 C-1.6065625 13.9065625 -2.400625 13.875625 -3.21875 13.84375 C-9.2109375 13.5390625 -9.2109375 13.5390625 -11.4375 11.3125 C-11.6328125 9.1484375 -11.6328125 9.1484375 -11.5625 6.6875 C-11.54445312 5.87023437 -11.52640625 5.05296875 -11.5078125 4.2109375 C-11.48460937 3.58445312 -11.46140625 2.95796875 -11.4375 2.3125 C-7.70976672 -0.06831693 -4.34921514 0.01293126 0 0 Z " fill="#1C7096" transform="translate(228.4375,23.6875)"/>
<path d="M0 0 C2.31 0 4.62 0 7 0 C7 0.66 7 1.32 7 2 C7.99 1.34 8.98 0.68 10 0 C18.2173913 -0.52173913 18.2173913 -0.52173913 22 2 C22 4.31 22 6.62 22 9 C20.02 9 18.04 9 16 9 C15.67 7.68 15.34 6.36 15 5 C13.00045254 4.95745644 10.99958364 4.95919217 9 5 C6.88074396 7.11925604 7.58168983 11.6196093 7.4375 14.5625 C7.39431641 15.36880859 7.35113281 16.17511719 7.30664062 17.00585938 C7.20024738 19.00368805 7.09959112 21.0018207 7 23 C4.69 23 2.38 23 0 23 C0 15.41 0 7.82 0 0 Z " fill="#2F7893" transform="translate(158,24)"/>
<path d="M0 0 C2.31 0 4.62 0 7 0 C7.33 6.27 7.66 12.54 8 19 C2.39 19 -3.22 19 -9 19 C-9 18.34 -9 17.68 -9 17 C-9.66 17 -10.32 17 -11 17 C-11 16.34 -11 15.68 -11 15 C-8.03 14.01 -5.06 13.02 -2 12 C-1.34 8.04 -0.68 4.08 0 0 Z " fill="#B3D28C" transform="translate(39,37)"/>
<path d="M0 0 C2 2 2 2 2.265625 4.27734375 C2.26046875 5.15519531 2.2553125 6.03304687 2.25 6.9375 C2.25515625 7.81277344 2.2603125 8.68804687 2.265625 9.58984375 C2 12 2 12 0 15 C-7.14893617 15.56737589 -7.14893617 15.56737589 -11 13 C-11.3984375 10.72265625 -11.3984375 10.72265625 -11.375 8.0625 C-11.38273438 7.18722656 -11.39046875 6.31195313 -11.3984375 5.41015625 C-11 3 -11 3 -9.73046875 1.203125 C-6.57868818 -0.98818068 -3.74275296 -0.29704389 0 0 Z " fill="#E8F5F8" transform="translate(144,28)"/>
<path d="M0 0 C1.1859375 0.00257812 2.371875 0.00515625 3.59375 0.0078125 C4.7796875 0.00523438 5.965625 0.00265625 7.1875 0 C10.09375 0.1328125 10.09375 0.1328125 11.09375 1.1328125 C11.13467937 3.46578683 11.13616723 5.79986475 11.09375 8.1328125 C8.78375 8.7928125 6.47375 9.4528125 4.09375 10.1328125 C4.09375 11.7828125 4.09375 13.4328125 4.09375 15.1328125 C1.76080225 15.17522973 -0.57327567 15.17374187 -2.90625 15.1328125 C-3.90625 14.1328125 -3.90625 14.1328125 -4.0390625 11.2265625 C-4.03648437 10.040625 -4.03390625 8.8546875 -4.03125 7.6328125 C-4.03382813 6.446875 -4.03640625 5.2609375 -4.0390625 4.0390625 C-3.8625482 0.1765143 -3.8625482 0.1765143 0 0 Z " fill="#938BB8" transform="translate(3.90625,11.8671875)"/>
<path d="M0 0 C3.3 0 6.6 0 10 0 C11.11823815 2.23647631 11.19396061 3.64891529 11.31640625 6.1328125 C11.35830078 6.93847656 11.40019531 7.74414062 11.44335938 8.57421875 C11.48267578 9.41597656 11.52199219 10.25773437 11.5625 11.125 C11.60568359 11.97449219 11.64886719 12.82398438 11.69335938 13.69921875 C11.79954236 15.79928223 11.90028497 17.89961948 12 20 C17.61 20.33 23.22 20.66 29 21 C29 25.95 29 30.9 29 36 C28.67 36 28.34 36 28 36 C28 31.38 28 26.76 28 22 C23.38 22 18.76 22 14 22 C13.67 22.99 13.34 23.98 13 25 C13 24.34 13 23.68 13 23 C12.34 23 11.68 23 11 23 C11 22.34 11 21.68 11 21 C10.43490723 21.00523682 9.86981445 21.01047363 9.28759766 21.01586914 C6.7334097 21.03662422 4.17923947 21.0496554 1.625 21.0625 C0.73554687 21.07087891 -0.15390625 21.07925781 -1.0703125 21.08789062 C-2.34648438 21.09272461 -2.34648438 21.09272461 -3.6484375 21.09765625 C-4.82672119 21.10551147 -4.82672119 21.10551147 -6.02880859 21.11352539 C-8 21 -8 21 -10 20 C-10 18.02 -10 16.04 -10 14 C-6.7 13.34 -3.4 12.68 0 12 C0 8.04 0 4.08 0 0 Z M2 1 C1.34 4.96 0.68 8.92 0 13 C-4.455 14.485 -4.455 14.485 -9 16 C-9 16.66 -9 17.32 -9 18 C-8.34 18 -7.68 18 -7 18 C-7 18.66 -7 19.32 -7 20 C-1.39 20 4.22 20 10 20 C9.505 10.595 9.505 10.595 9 1 C6.69 1 4.38 1 2 1 Z " fill="#C5D8AD" transform="translate(37,36)"/>
<path d="M0 0 C1.20462891 -0.02126953 1.20462891 -0.02126953 2.43359375 -0.04296875 C4.5625 0.1875 4.5625 0.1875 6.5625 2.1875 C5.5725 2.5175 4.5825 2.8475 3.5625 3.1875 C3.5625 2.5275 3.5625 1.8675 3.5625 1.1875 C1.2525 1.1875 -1.0575 1.1875 -3.4375 1.1875 C-3.4375 8.7775 -3.4375 16.3675 -3.4375 24.1875 C-4.0975 24.5175 -4.7575 24.8475 -5.4375 25.1875 C-6.4275 24.1975 -7.4175 23.2075 -8.4375 22.1875 C-8.8497583 22.67645752 -9.2620166 23.16541504 -9.68676758 23.66918945 C-11.80903625 25.50971224 -12.68685371 25.54277774 -15.44921875 25.48046875 C-16.20654297 25.47080078 -16.96386719 25.46113281 -17.74414062 25.45117188 C-18.52982422 25.42603516 -19.31550781 25.40089844 -20.125 25.375 C-21.32092773 25.35469727 -21.32092773 25.35469727 -22.54101562 25.33398438 C-24.50679967 25.29867089 -26.47223582 25.24486447 -28.4375 25.1875 C-28.4375 24.8575 -28.4375 24.5275 -28.4375 24.1875 C-27.47328125 24.15011719 -26.5090625 24.11273438 -25.515625 24.07421875 C-24.25234375 24.00847656 -22.9890625 23.94273438 -21.6875 23.875 C-20.43453125 23.81699219 -19.1815625 23.75898437 -17.890625 23.69921875 C-14.37220724 23.17782426 -12.89444468 22.6981158 -10.4375 20.1875 C-9.42647962 17.15443887 -9.2392465 14.92809761 -9.1875 11.75 C-9.16171875 10.80253906 -9.1359375 9.85507812 -9.109375 8.87890625 C-9.48508172 5.7972166 -10.3890265 4.46777445 -12.4375 2.1875 C-9.9625 2.6825 -9.9625 2.6825 -7.4375 3.1875 C-7.4375 4.5075 -7.4375 5.8275 -7.4375 7.1875 C-6.7775 7.1875 -6.1175 7.1875 -5.4375 7.1875 C-5.458125 6.218125 -5.47875 5.24875 -5.5 4.25 C-5.40480091 -0.41475521 -4.2384673 0.03390774 0 0 Z " fill="#EEFCFC" transform="translate(161.4375,22.8125)"/>
<path d="M0 0 C0.33 0 0.66 0 1 0 C1.66 2.31 2.32 4.62 3 7 C4.05960938 7.06058594 5.11921875 7.12117188 6.2109375 7.18359375 C7.59897221 7.26800127 8.98699232 7.35264917 10.375 7.4375 C11.07367188 7.47681641 11.77234375 7.51613281 12.4921875 7.55664062 C17.7734375 7.88671875 17.7734375 7.88671875 20 9 C20 10.65 20 12.3 20 14 C16.04 14 12.08 14 8 14 C8 13.01 8 12.02 8 11 C5.69 11 3.38 11 1 11 C1.66 12.98 2.32 14.96 3 17 C1.68 17 0.36 17 -1 17 C-1.33 14.36 -1.66 11.72 -2 9 C-1.34 8.67 -0.68 8.34 0 8 C-0.185625 7.4225 -0.37125 6.845 -0.5625 6.25 C-1.04023546 3.79307475 -0.75729364 2.35602466 0 0 Z " fill="#E8F6F9" transform="translate(216,29)"/>
<path d="M0 0 C1.65 0 3.3 0 5 0 C5.02687279 1.81242052 5.04633715 3.62495233 5.0625 5.4375 C5.07410156 6.44683594 5.08570312 7.45617187 5.09765625 8.49609375 C5 11 5 11 4 12 C4.33 12.99 4.66 13.98 5 15 C4.91343435 17.39870613 4.76001509 19.79537281 4.5625 22.1875 C4.46066406 23.45980469 4.35882813 24.73210938 4.25390625 26.04296875 C4.17011719 27.01878906 4.08632812 27.99460937 4 29 C2.68 29 1.36 29 0 29 C0 19.43 0 9.86 0 0 Z " fill="#086C96" transform="translate(95,15)"/>
<path d="M0 0 C-0.13923538 3.25031784 -0.28754185 6.50016061 -0.4375 9.75 C-0.47681641 10.67039062 -0.51613281 11.59078125 -0.55664062 12.5390625 C-0.59853516 13.42851562 -0.64042969 14.31796875 -0.68359375 15.234375 C-0.72025146 16.05131836 -0.75690918 16.86826172 -0.79467773 17.70996094 C-0.99134275 19.9034423 -1.40300594 21.88396413 -2 24 C-3.32 23.67 -4.64 23.34 -6 23 C-6.05416741 20.27056463 -6.09375225 17.54221436 -6.125 14.8125 C-6.14175781 14.04357422 -6.15851562 13.27464844 -6.17578125 12.48242188 C-6.2122513 8.23366116 -6.11916892 4.81598599 -4 1 C-2 0 -2 0 0 0 Z " fill="#086C95" transform="translate(62,17)"/>
<path d="M0 0 C1.65 0 3.3 0 5 0 C5 6.6 5 13.2 5 20 C3.35 20 1.7 20 0 20 C0 13.4 0 6.8 0 0 Z " fill="#0A6B8F" transform="translate(205,26)"/>
<path d="M0 0 C4.19161906 0 7.88857686 0.13443723 12 1 C12 3.31 12 5.62 12 8 C7.71 8 3.42 8 -1 8 C-0.67 5.36 -0.34 2.72 0 0 Z " fill="#BEBEBE" transform="translate(231,64)"/>
<path d="M0 0 C0 1.98 0 3.96 0 6 C-2.31 6.66 -4.62 7.32 -7 8 C-7 14.27 -7 20.54 -7 27 C-7.66 27 -8.32 27 -9 27 C-9.08696177 23.06263877 -9.14037835 19.12552372 -9.1875 15.1875 C-9.21263672 14.06794922 -9.23777344 12.94839844 -9.26367188 11.79492188 C-9.27333984 10.72177734 -9.28300781 9.64863281 -9.29296875 8.54296875 C-9.3086792 7.55321045 -9.32438965 6.56345215 -9.34057617 5.54370117 C-9 3 -9 3 -7.6105957 1.20043945 C-4.97119304 -0.76680973 -3.00262184 -1.50131092 0 0 Z " fill="#A0A0CD" transform="translate(16,21)"/>
<path d="M0 0 C6.15234375 -0.09765625 6.15234375 -0.09765625 8 0 C9 1 9 1 9.11352539 2.85766602 C9.10828857 3.64842529 9.10305176 4.43918457 9.09765625 5.25390625 C9.09443359 6.10791016 9.09121094 6.96191406 9.08789062 7.84179688 C9.07951172 8.73962891 9.07113281 9.63746094 9.0625 10.5625 C9.05798828 11.46419922 9.05347656 12.36589844 9.04882812 13.29492188 C9.03700225 15.53001314 9.0205222 17.76497437 9 20 C8.01 19.34 7.02 18.68 6 18 C6.33 15.36 6.66 12.72 7 10 C6.01 10.66 5.02 11.32 4 12 C1.3125 12.125 1.3125 12.125 -1 12 C-1.33 11.01 -1.66 10.02 -2 9 C-0.02 9 1.96 9 4 9 C3.73606499 5.56769552 3.73606499 5.56769552 3 2 C2.01 1.34 1.02 0.68 0 0 Z " fill="#E0F2F8" transform="translate(176,24)"/>
<path d="M0 0 C2.31 0 4.62 0 7 0 C7 5.94 7 11.88 7 18 C6.01 18 5.02 18 4 18 C2.61773984 15.23547967 2.90474613 12.9538637 2.9375 9.875 C2.94652344 8.77929688 2.95554688 7.68359375 2.96484375 6.5546875 C2.97644531 5.71164063 2.98804688 4.86859375 3 4 C3.99 3.67 4.98 3.34 6 3 C6 2.34 6 1.68 6 1 C4.35 1 2.7 1 1 1 C1.33 7.6 1.66 14.2 2 21 C1.34 21 0.68 21 0 21 C0 14.07 0 7.14 0 0 Z " fill="#3C7F9C" transform="translate(185,24)"/>
<path d="M0 0 C0.99 0 1.98 0 3 0 C4.17426264 2.34852528 4.11508173 3.73774065 4.09765625 6.3515625 C4.09443359 7.20234375 4.09121094 8.053125 4.08789062 8.9296875 C4.07951172 9.81914063 4.07113281 10.70859375 4.0625 11.625 C4.05798828 12.5221875 4.05347656 13.419375 4.04882812 14.34375 C4.03702591 16.56256648 4.02056155 18.78125018 4 21 C1.69 21 -0.62 21 -3 21 C-3.33 15.06 -3.66 9.12 -4 3 C-3.01 3.33 -2.02 3.66 -1 4 C-1 8.62 -1 13.24 -1 18 C0.32 18 1.64 18 3 18 C2.69112547 15.56199034 2.37805338 13.12464633 2.0625 10.6875 C1.97548828 9.99720703 1.88847656 9.30691406 1.79882812 8.59570312 C1.40789865 5.59857712 0.9584996 2.87549881 0 0 Z " fill="#346F85" transform="translate(116,26)"/>
<path d="M0 0 C0.66 0.33 1.32 0.66 2 1 C1.67 1.66 1.34 2.32 1 3 C0.34 3 -0.32 3 -1 3 C-1 6.63 -1 10.26 -1 14 C0.32 14 1.64 14 3 14 C3.04898438 13.28972656 3.09796875 12.57945313 3.1484375 11.84765625 C3.26058594 10.46900391 3.26058594 10.46900391 3.375 9.0625 C3.44460937 8.14597656 3.51421875 7.22945312 3.5859375 6.28515625 C3.79089844 5.15400391 3.79089844 5.15400391 4 4 C4.66 3.67 5.32 3.34 6 3 C5.95359375 3.83144531 5.9071875 4.66289062 5.859375 5.51953125 C5.82328125 6.60621094 5.7871875 7.69289063 5.75 8.8125 C5.70359375 9.89144531 5.6571875 10.97039063 5.609375 12.08203125 C5.70283547 15.12076818 5.70283547 15.12076818 8.015625 16.88671875 C8.67046875 17.25410156 9.3253125 17.62148438 10 18 C8.875 19.5625 8.875 19.5625 7 21 C3.67757269 20.93078276 1.75916512 20.73427446 -0.66796875 18.38671875 C-2.49147364 15.119383 -2.36297307 12.59447689 -2.3125 8.875 C-2.30863281 7.63492188 -2.30476563 6.39484375 -2.30078125 5.1171875 C-2 2 -2 2 0 0 Z " fill="#367F9D" transform="translate(128,26)"/>
<path d="M0 0 C0.5625 1.9375 0.5625 1.9375 1 4 C0.67 4.33 0.34 4.66 0 5 C-0.23701239 7.85877909 -0.42219182 10.69883297 -0.5625 13.5625 C-0.60568359 14.36880859 -0.64886719 15.17511719 -0.69335938 16.00585938 C-0.79975262 18.00368805 -0.90040888 20.0018207 -1 22 C0.32 22.33 1.64 22.66 3 23 C3.495 14.09 3.495 14.09 4 5 C4.33 5 4.66 5 5 5 C5.04898438 6.12019531 5.09796875 7.24039062 5.1484375 8.39453125 C5.22347856 9.86721203 5.29902582 11.33986707 5.375 12.8125 C5.4059375 13.55048828 5.436875 14.28847656 5.46875 15.04882812 C5.67346148 18.81893115 5.86433827 20.79650741 8 24 C6.824375 24.4640625 6.824375 24.4640625 5.625 24.9375 C3.07669872 25.92875038 3.07669872 25.92875038 1 27 C-1 26 -1 26 -2 23 C-2.22842749 19.48298449 -2.18515245 15.96117351 -2.1875 12.4375 C-2.19974609 11.46619141 -2.21199219 10.49488281 -2.22460938 9.49414062 C-2.22654297 8.56666016 -2.22847656 7.63917969 -2.23046875 6.68359375 C-2.23457764 5.83337646 -2.23868652 4.98315918 -2.24291992 4.10717773 C-2 2 -2 2 0 0 Z " fill="#25769B" transform="translate(57,18)"/>
<path d="M0 0 C0.66 0 1.32 0 2 0 C2 1.65 2 3.3 2 5 C1.01 5.33 0.02 5.66 -1 6 C-0.67 6.66 -0.34 7.32 0 8 C-5.28 7.67 -10.56 7.34 -16 7 C-16 5.35 -16 3.7 -16 2 C-12.37 2 -8.74 2 -5 2 C-5 2.66 -5 3.32 -5 4 C-3.02 4 -1.04 4 1 4 C0.67 2.68 0.34 1.36 0 0 Z " fill="#F0FCFB" transform="translate(240,26)"/>
<path d="M0 0 C1.27875 0.103125 2.5575 0.20625 3.875 0.3125 C4.95394531 0.39951172 4.95394531 0.39951172 6.0546875 0.48828125 C8 1 8 1 10 4 C10.29991069 6.58885171 10.50865225 9.09149082 10.625 11.6875 C10.66367188 12.38939453 10.70234375 13.09128906 10.7421875 13.81445312 C10.8362334 15.54254655 10.9191968 17.27123675 11 19 C9.68 19 8.36 19 7 19 C6.99742188 18.02417969 6.99484375 17.04835938 6.9921875 16.04296875 C6.95351562 14.77066406 6.91484375 13.49835937 6.875 12.1875 C6.85179688 10.92292969 6.82859375 9.65835938 6.8046875 8.35546875 C6.34396873 4.72207527 6.34396873 4.72207527 2.9453125 3.05078125 C1.97335938 2.70402344 1.00140625 2.35726563 0 2 C0 1.34 0 0.68 0 0 Z " fill="#086C98" transform="translate(108,25)"/>
<path d="M0 0 C0.99 0.33 1.98 0.66 3 1 C3 3.93593133 2.77500573 6.76556416 2.5 9.6875 C2.4071875 10.68136719 2.314375 11.67523438 2.21875 12.69921875 C2.1465625 13.45847656 2.074375 14.21773437 2 15 C0.35 14.67 -1.3 14.34 -3 14 C-3 10.37 -3 6.74 -3 3 C-2.34 3 -1.68 3 -1 3 C-0.67 2.01 -0.34 1.02 0 0 Z " fill="#086D98" transform="translate(130,26)"/>
<path d="M0 0 C1.32 0.33 2.64 0.66 4 1 C5.12862175 6.36095333 5.09688221 11.55306686 5 17 C4.01 17.33 3.02 17.66 2 18 C1.34 17.67 0.68 17.34 0 17 C0 11.39 0 5.78 0 0 Z " fill="#086C96" transform="translate(146,27)"/>
<path d="M0 0 C0.67192387 10.0188648 1.15723924 19.95415947 1 30 C-0.65 30.33 -2.3 30.66 -4 31 C-3.34 30.34 -2.68 29.68 -2 29 C-1.72172748 26.3784358 -1.72172748 26.3784358 -1.8046875 23.3359375 C-1.81113281 22.21445312 -1.81757812 21.09296875 -1.82421875 19.9375 C-1.84097656 18.761875 -1.85773437 17.58625 -1.875 16.375 C-1.88402344 15.19164062 -1.89304687 14.00828125 -1.90234375 12.7890625 C-1.92597188 9.85917477 -1.95891486 6.9296866 -2 4 C-4.64 4 -7.28 4 -10 4 C-10 3.67 -10 3.34 -10 3 C-8.02 3 -6.04 3 -4 3 C-4 2.34 -4 1.68 -4 1 C-2 0 -2 0 0 0 Z " fill="#91AFC6" transform="translate(36,18)"/>
<path d="M0 0 C0.33 0 0.66 0 1 0 C1.66 2.31 2.32 4.62 3 7 C7.95 7.33 12.9 7.66 18 8 C18 8.33 18 8.66 18 9 C12.06 9.495 12.06 9.495 6 10 C6 10.33 6 10.66 6 11 C4.35 11 2.7 11 1 11 C1.66 12.98 2.32 14.96 3 17 C1.68 17 0.36 17 -1 17 C-1.33 14.36 -1.66 11.72 -2 9 C-1.34 8.67 -0.68 8.34 0 8 C-0.185625 7.4225 -0.37125 6.845 -0.5625 6.25 C-1.04023546 3.79307475 -0.75729364 2.35602466 0 0 Z " fill="#C9E4ED" transform="translate(216,29)"/>
<path d="M0 0 C1.40668945 0.07734375 1.40668945 0.07734375 2.84179688 0.15625 C3.81826172 0.22070312 4.79472656 0.28515625 5.80078125 0.3515625 C6.78884766 0.40828125 7.77691406 0.465 8.79492188 0.5234375 C11.2351101 0.66489769 13.67426716 0.81630524 16.11328125 0.9765625 C14.79328125 1.3065625 13.47328125 1.6365625 12.11328125 1.9765625 C12.11328125 2.6365625 12.11328125 3.2965625 12.11328125 3.9765625 C9.90522601 4.0310077 7.69677571 4.06955533 5.48828125 4.1015625 C4.25851563 4.12476563 3.02875 4.14796875 1.76171875 4.171875 C-1.82987916 3.9796053 -4.5533305 3.27914806 -7.88671875 1.9765625 C-4.56667254 -0.23680164 -3.81260943 -0.23106724 0 0 Z " fill="#076D9B" transform="translate(66.88671875,42.0234375)"/>
<path d="M0 0 C1.98 0 3.96 0 6 0 C6 1.32 6 2.64 6 4 C10.29 4 14.58 4 19 4 C19 4.66 19 5.32 19 6 C16.58303128 6.05411124 14.16728213 6.09372278 11.75 6.125 C11.06808594 6.14175781 10.38617188 6.15851562 9.68359375 6.17578125 C5.9391765 6.21213482 3.17647273 6.07944349 0 4 C0 2.68 0 1.36 0 0 Z " fill="#09678D" transform="translate(217,40)"/>
<path d="M0 0 C2.97 0 5.94 0 9 0 C10.65497356 3.30994713 10.10084335 6.99123 10.0625 10.625 C10.05798828 11.42679688 10.05347656 12.22859375 10.04882812 13.0546875 C10.03703168 15.03649006 10.01909605 17.01825433 10 19 C9.34 18.67 8.68 18.34 8 18 C7.55078125 15.6015625 7.55078125 15.6015625 7.3125 12.625 C7.22613281 11.64789063 7.13976562 10.67078125 7.05078125 9.6640625 C7 7 7 7 8 4 C3.545 3.01 3.545 3.01 -1 2 C-0.67 1.34 -0.34 0.68 0 0 Z " fill="#ECFEFE" transform="translate(103,28)"/>
<path d="M0 0 C0.33 0 0.66 0 1 0 C1 1.65 1 3.3 1 5 C2.32 5.33 3.64 5.66 5 6 C4.67 6.66 4.34 7.32 4 8 C1.29283758 8.90238747 -0.23776768 9.11851302 -3.01171875 9.09765625 C-4.14770508 9.09282227 -4.14770508 9.09282227 -5.30664062 9.08789062 C-6.09232422 9.07951172 -6.87800781 9.07113281 -7.6875 9.0625 C-8.48478516 9.05798828 -9.28207031 9.05347656 -10.10351562 9.04882812 C-12.06904257 9.0370585 -14.03453085 9.01912348 -16 9 C-16.33 8.34 -16.66 7.68 -17 7 C-11.39 7.33 -5.78 7.66 0 8 C0 7.34 0 6.68 0 6 C-4.29 6 -8.58 6 -13 6 C-12.67 4.68 -12.34 3.36 -12 2 C-12 2.99 -12 3.98 -12 5 C-8.04 5 -4.08 5 0 5 C0 3.35 0 1.7 0 0 Z " fill="#3E809C" transform="translate(236,38)"/>
<path d="M0 0 C0.99 0.33 1.98 0.66 3 1 C3 6.61 3 12.22 3 18 C2.01 18.33 1.02 18.66 0 19 C0 12.73 0 6.46 0 0 Z " fill="#0A6B97" transform="translate(160,26)"/>
<path d="M0 0 C2.39652528 -0.08139142 4.79025436 -0.14067009 7.1875 -0.1875 C7.86103516 -0.21263672 8.53457031 -0.23777344 9.22851562 -0.26367188 C13.65806882 -0.3284946 16.55627255 0.1313416 20 3 C20 3.99 20 4.98 20 6 C18.02 6 16.04 6 14 6 C14 5.34 14 4.68 14 4 C11.03 4 8.06 4 5 4 C5 3.67 5 3.34 5 3 C7.64 2.67 10.28 2.34 13 2 C8.71 1.67 4.42 1.34 0 1 C0 0.67 0 0.34 0 0 Z " fill="#2D769A" transform="translate(221,24)"/>
<path d="M0 0 C1.65 0 3.3 0 5 0 C5 3.63 5 7.26 5 11 C3.68 11 2.36 11 1 11 C1 12.98 1 14.96 1 17 C0.67 17 0.34 17 0 17 C0 11.39 0 5.78 0 0 Z " fill="#106A8B" transform="translate(95,15)"/>
<path d="M0 0 C2.31 0 4.62 0 7 0 C7.042721 1.66611905 7.04063832 3.33382885 7 5 C6 6 6 6 2.9375 6.0625 C1.968125 6.041875 0.99875 6.02125 0 6 C-0.33 7.65 -0.66 9.3 -1 11 C-2.41687119 6.74938644 -1.19320039 4.28148375 0 0 Z " fill="#B7B7B7" transform="translate(223,61)"/>
<path d="M0 0 C2 1.625 2 1.625 4 4 C4.25 7.25 4.25 7.25 4 10 C1.36 10 -1.28 10 -4 10 C-3.67 8.35 -3.34 6.7 -3 5 C-2.01 5.33 -1.02 5.66 0 6 C0 4.02 0 2.04 0 0 Z " fill="#2D7A9B" transform="translate(84,16)"/>
<path d="M0 0 C1.65 0 3.3 0 5 0 C4.67 0.66 4.34 1.32 4 2 C3.34 2 2.68 2 2 2 C2 8.27 2 14.54 2 21 C1.34 21 0.68 21 0 21 C0 14.07 0 7.14 0 0 Z " fill="#9EB7CE" transform="translate(7,27)"/>
<path d="M0 0 C-0.66 2.64 -1.32 5.28 -2 8 C-2.33 8 -2.66 8 -3 8 C-3.33 6.35 -3.66 4.7 -4 3 C-5.51421001 4.51421001 -5.21309856 5.92472768 -5.31640625 8.03515625 C-5.37924805 9.24848633 -5.37924805 9.24848633 -5.44335938 10.48632812 C-5.48267578 11.33646484 -5.52199219 12.18660156 -5.5625 13.0625 C-5.60568359 13.91650391 -5.64886719 14.77050781 -5.69335938 15.65039062 C-5.79976702 17.76672037 -5.90041731 19.88333813 -6 22 C-6.33 22 -6.66 22 -7 22 C-7 14.74 -7 7.48 -7 0 C-4.3333581 -1.33332095 -2.83319697 -0.67102033 0 0 Z " fill="#E6F7FB" transform="translate(218,25)"/>
<path d="M0 0 C0.66 0 1.32 0 2 0 C2.33 7.59 2.66 15.18 3 23 C0 21 0 21 -0.44824219 18.95288086 C-0.48079102 18.13182861 -0.51333984 17.31077637 -0.546875 16.46484375 C-0.58683594 15.57345703 -0.62679687 14.68207031 -0.66796875 13.76367188 C-0.69503906 12.83103516 -0.72210938 11.89839844 -0.75 10.9375 C-0.79253906 10.00099609 -0.83507813 9.06449219 -0.87890625 8.09960938 C-1.07519367 3.07974038 -1.07519367 3.07974038 -1 1 C-0.67 0.67 -0.34 0.34 0 0 Z " fill="#BFDEE7" transform="translate(53,20)"/>
<path d="M0 0 C1.98 0 3.96 0 6 0 C6 0.33 6 0.66 6 1 C4.35 1 2.7 1 1 1 C1 7.6 1 14.2 1 21 C0.67 20.34 0.34 19.68 0 19 C-1.98 19.99 -1.98 19.99 -4 21 C-4 20.34 -4 19.68 -4 19 C-5.98 19 -7.96 19 -10 19 C-10 18.67 -10 18.34 -10 18 C-9.15115234 17.80083984 -9.15115234 17.80083984 -8.28515625 17.59765625 C-7.18494141 17.33275391 -7.18494141 17.33275391 -6.0625 17.0625 C-4.96615234 16.80146484 -4.96615234 16.80146484 -3.84765625 16.53515625 C-2.00030102 16.16112431 -2.00030102 16.16112431 -1 15 C-0.76346477 12.47403741 -0.57826308 9.96892793 -0.4375 7.4375 C-0.39431641 6.72658203 -0.35113281 6.01566406 -0.30664062 5.28320312 C-0.20028223 3.52238088 -0.09961154 1.7612168 0 0 Z " fill="#2B7492" transform="translate(204,25)"/>
<path d="M0 0 C5.28 0 10.56 0 16 0 C16 1.98 16 3.96 16 6 C15.67 4.68 15.34 3.36 15 2 C14.34 2 13.68 2 13 2 C12.67 2.66 12.34 3.32 12 4 C11.34 3.67 10.68 3.34 10 3 C8.29636178 2.77377919 6.58671299 2.59111527 4.875 2.4375 C3.96492188 2.35371094 3.05484375 2.26992188 2.1171875 2.18359375 C1.41851562 2.12300781 0.71984375 2.06242187 0 2 C0 1.34 0 0.68 0 0 Z " fill="#D7EEF1" transform="translate(64,20)"/>
<path d="M0 0 C0.33 0 0.66 0 1 0 C0.67 3.3 0.34 6.6 0 10 C-2.64 10 -5.28 10 -8 10 C-7.67 8.35 -7.34 6.7 -7 5 C-5.02 4.67 -3.04 4.34 -1 4 C-0.67 2.68 -0.34 1.36 0 0 Z " fill="#F2F2F2" transform="translate(230,62)"/>
<path d="M0 0 C0 2.31 0 4.62 0 7 C-3 8 -3 8 -6 7 C-6.33 5.02 -6.66 3.04 -7 1 C-4.50935112 0.31292445 -2.62113708 0 0 0 Z " fill="#177295" transform="translate(243,36)"/>
<path d="M0 0 C0.66 0 1.32 0 2 0 C2.14659011 11.04312186 1.7068249 21.98110461 1 33 C0.67 33 0.34 33 0 33 C-0.77165796 21.86438211 -1.17998423 11.12815896 0 0 Z " fill="#9FB8CD" transform="translate(36,2)"/>
<path d="M0 0 C0.33 0 0.66 0 1 0 C1.33 4.29 1.66 8.58 2 13 C1.01 12.34 0.02 11.68 -1 11 C-0.67 8.36 -0.34 5.72 0 3 C-0.99 3.66 -1.98 4.32 -3 5 C-5.6875 5.125 -5.6875 5.125 -8 5 C-8.33 4.01 -8.66 3.02 -9 2 C-6.94921875 1.77213542 -4.8984375 1.54427083 -2.84765625 1.31640625 C-0.98859771 1.18113386 -0.98859771 1.18113386 0 0 Z " fill="#F3FDFE" transform="translate(183,31)"/>
<path d="M0 0 C0.66 0 1.32 0 2 0 C2 1.65 2 3.3 2 5 C1.01 5.33 0.02 5.66 -1 6 C-0.67 6.66 -0.34 7.32 0 8 C-2.64 7.67 -5.28 7.34 -8 7 C-7.34 6.67 -6.68 6.34 -6 6 C-6 5.01 -6 4.02 -6 3 C-9.3 3 -12.6 3 -16 3 C-16 2.67 -16 2.34 -16 2 C-12.37 2 -8.74 2 -5 2 C-5 2.66 -5 3.32 -5 4 C-3.02 4 -1.04 4 1 4 C0.67 2.68 0.34 1.36 0 0 Z " fill="#C2E0E7" transform="translate(240,26)"/>
<path d="M0 0 C1.65 0 3.3 0 5 0 C5 0.66 5 1.32 5 2 C3.68 2 2.36 2 1 2 C1.11433363 4.25056722 1.24186436 6.50046674 1.375 8.75 C1.47941406 10.62945312 1.47941406 10.62945312 1.5859375 12.546875 C1.95323304 15.60998121 2.39711286 17.41974266 4 20 C2.68 19.67 1.36 19.34 0 19 C0 12.73 0 6.46 0 0 Z " fill="#156987" transform="translate(186,25)"/>
<path d="M0 0 C1.485 0.99 1.485 0.99 3 2 C3.36328125 4.49609375 3.36328125 4.49609375 3.3125 7.4375 C3.30863281 8.40558594 3.30476562 9.37367187 3.30078125 10.37109375 C3 13 3 13 1 16 C0.67 10.72 0.34 5.44 0 0 Z " fill="#39768E" transform="translate(150,27)"/>
<path d="M0 0 C1.98 0.495 1.98 0.495 4 1 C4 2.32 4 3.64 4 5 C5.98 5 7.96 5 10 5 C10.33 4.34 10.66 3.68 11 3 C11 3.99 11 4.98 11 6 C7.04 6 3.08 6 -1 6 C-0.67 4.02 -0.34 2.04 0 0 Z " fill="#F9F9F9" transform="translate(232,66)"/>
<path d="M0 0 C0.99 0.33 1.98 0.66 3 1 C3 3.93593133 2.77500573 6.76556416 2.5 9.6875 C2.4071875 10.68136719 2.314375 11.67523438 2.21875 12.69921875 C2.1465625 13.45847656 2.074375 14.21773437 2 15 C1.67 15 1.34 15 1 15 C0.67 11.37 0.34 7.74 0 4 C-0.66 4 -1.32 4 -2 4 C-2.33 4.99 -2.66 5.98 -3 7 C-3 5.68 -3 4.36 -3 3 C-2.34 3 -1.68 3 -1 3 C-0.67 2.01 -0.34 1.02 0 0 Z " fill="#116587" transform="translate(130,26)"/>
<path d="M0 0 C0.33 1.32 0.66 2.64 1 4 C5.62 4 10.24 4 15 4 C15 4.33 15 4.66 15 5 C9.06 5.33 3.12 5.66 -3 6 C-3 5.01 -3 4.02 -3 3 C-2.34 3.33 -1.68 3.66 -1 4 C-0.67 2.68 -0.34 1.36 0 0 Z " fill="#438AA5" transform="translate(223,29)"/>
<path d="M0 0 C1.32 0 2.64 0 4 0 C4 0.66 4 1.32 4 2 C4.763125 1.649375 5.52625 1.29875 6.3125 0.9375 C9 0 9 0 12 1 C11.34 1 10.68 1 10 1 C10 1.66 10 2.32 10 3 C7.09451118 5.04169485 5.59857954 6 2 6 C2 4.68 2 3.36 2 2 C1.34 1.34 0.68 0.68 0 0 Z " fill="#136987" transform="translate(160,25)"/>
<path d="M0 0 C0.87914063 0.00451172 1.75828125 0.00902344 2.6640625 0.01367188 C4.81773803 0.02537663 6.97137817 0.04330931 9.125 0.0625 C9.125 0.3925 9.125 0.7225 9.125 1.0625 C7.90683594 1.11148437 6.68867187 1.16046875 5.43359375 1.2109375 C3.80987563 1.28602273 2.18617874 1.36156802 0.5625 1.4375 C-0.63729492 1.48390625 -0.63729492 1.48390625 -1.86132812 1.53125 C-6.83923083 1.77506564 -11.13944649 2.49881388 -15.875 4.0625 C-15.875 3.0725 -15.875 2.0825 -15.875 1.0625 C-10.54632017 -0.04691367 -5.41218145 -0.05298069 0 0 Z " fill="#C5E8F6" transform="translate(72.875,13.9375)"/>
<path d="M0 0 C0.33 1.32 0.66 2.64 1 4 C-3.09003859 5.14982602 -7.03177051 5.11094256 -11.25 5.0625 C-11.99507813 5.05798828 -12.74015625 5.05347656 -13.5078125 5.04882812 C-15.3385764 5.03709246 -17.16929873 5.0191585 -19 5 C-19 4.67 -19 4.34 -19 4 C-17.19402344 3.81824219 -17.19402344 3.81824219 -15.3515625 3.6328125 C-13.77599234 3.46400141 -12.20047408 3.29470541 -10.625 3.125 C-9.43390625 3.00705078 -9.43390625 3.00705078 -8.21875 2.88671875 C-3.6406878 2.53523142 -3.6406878 2.53523142 0 0 Z " fill="#DEF2F5" transform="translate(87,43)"/>
<path d="M0 0 C0.33 0 0.66 0 1 0 C1.05386629 2.12472576 1.09273071 4.24983652 1.125 6.375 C1.14820313 7.55835938 1.17140625 8.74171875 1.1953125 9.9609375 C1 13 1 13 -1 15 C-3.1640625 15.1953125 -3.1640625 15.1953125 -5.625 15.125 C-6.44226563 15.10695313 -7.25953125 15.08890625 -8.1015625 15.0703125 C-8.72804688 15.04710937 -9.35453125 15.02390625 -10 15 C-10 14.67 -10 14.34 -10 14 C-6.7 13.34 -3.4 12.68 0 12 C0 8.04 0 4.08 0 0 Z " fill="#A6C4AD" transform="translate(37,36)"/>
<path d="M0 0 C2.475 0.495 2.475 0.495 5 1 C5.02690844 3.62506802 5.04679404 6.24986173 5.0625 8.875 C5.07087891 9.62136719 5.07925781 10.36773437 5.08789062 11.13671875 C5.11328125 16.7734375 5.11328125 16.7734375 4 19 C3.34 18.67 2.68 18.34 2 18 C2.33 17.01 2.66 16.02 3 15 C3.14359334 13.19127624 3.22046121 11.37667423 3.25 9.5625 C3.27578125 8.61503906 3.3015625 7.66757812 3.328125 6.69140625 C2.95241828 3.6097166 2.0484735 2.28027445 0 0 Z " fill="#D5EFF3" transform="translate(149,25)"/>
<path d="M0 0 C1.98 0 3.96 0 6 0 C6.33 1.65 6.66 3.3 7 5 C6.401875 4.835 5.80375 4.67 5.1875 4.5 C2.88655664 3.8885876 2.88655664 3.8885876 0 4 C0 2.68 0 1.36 0 0 Z " fill="#1B6D90" transform="translate(217,40)"/>
<path d="M0 0 C0.74958984 0.05220703 1.49917969 0.10441406 2.27148438 0.15820312 C4.11887082 0.28763784 5.96574371 0.42436518 7.8125 0.5625 C7.8125 0.8925 7.8125 1.2225 7.8125 1.5625 C1.8725 1.8925 -4.0675 2.2225 -10.1875 2.5625 C-10.5175 1.9025 -10.8475 1.2425 -11.1875 0.5625 C-7.35939179 -0.71353607 -3.95274893 -0.30033987 0 0 Z " fill="#04678C" transform="translate(70.1875,42.4375)"/>
<path d="M0 0 C0.66 0.99 1.32 1.98 2 3 C-1.30994713 4.65497356 -4.99123 4.10084335 -8.625 4.0625 C-9.42679688 4.05798828 -10.22859375 4.05347656 -11.0546875 4.04882812 C-13.03649006 4.03703168 -15.01825433 4.01909605 -17 4 C-17 3.67 -17 3.34 -17 3 C-16.02417969 2.95101562 -15.04835937 2.90203125 -14.04296875 2.8515625 C-12.77066406 2.77679688 -11.49835938 2.70203125 -10.1875 2.625 C-8.29064453 2.52058594 -8.29064453 2.52058594 -6.35546875 2.4140625 C-2.87244766 2.23897061 -2.87244766 2.23897061 0 0 Z " fill="#E1F6F8" transform="translate(150,44)"/>
<path d="M0 0 C0.33 0 0.66 0 1 0 C1.04898438 1.12019531 1.09796875 2.24039062 1.1484375 3.39453125 C1.22347856 4.86721203 1.29902582 6.33986707 1.375 7.8125 C1.4059375 8.55048828 1.436875 9.28847656 1.46875 10.04882812 C1.67346148 13.81893115 1.86433827 15.79650741 4 19 C2.68 19 1.36 19 0 19 C0 12.73 0 6.46 0 0 Z " fill="#276F88" transform="translate(61,23)"/>
<path d="M0 0 C0.5625 1.9375 0.5625 1.9375 1 4 C0.67 4.33 0.34 4.66 0 5 C-0.23527773 7.34987262 -0.41386417 9.70556039 -0.5625 12.0625 C-0.64628906 13.35285156 -0.73007812 14.64320312 -0.81640625 15.97265625 C-0.87699219 16.97167969 -0.93757813 17.97070312 -1 19 C-1.33 19 -1.66 19 -2 19 C-2.05380578 16.20807795 -2.09357669 13.4171859 -2.125 10.625 C-2.14175781 9.8309375 -2.15851562 9.036875 -2.17578125 8.21875 C-2.19335473 6.14507985 -2.10335168 4.07116759 -2 2 C-1.34 1.34 -0.68 0.68 0 0 Z " fill="#316F8B" transform="translate(57,18)"/>
<path d="M0 0 C-0.33 0.99 -0.66 1.98 -1 3 C-7.0546875 3.1953125 -7.0546875 3.1953125 -9 3 C-9.66 2.34 -10.32 1.68 -11 1 C-7.32589215 -0.17571451 -3.83070817 -0.07366746 0 0 Z " fill="#0B6C92" transform="translate(145,43)"/>
<path d="M0 0 C0.33 0 0.66 0 1 0 C1 3.63 1 7.26 1 11 C-2.39914975 9.86695008 -3.05254451 8.87481525 -5 6 C-3.35 6 -1.7 6 0 6 C0 4.02 0 2.04 0 0 Z " fill="#E3F6F9" transform="translate(242,25)"/>
<path d="M0 0 C0.66 0 1.32 0 2 0 C2.37211538 6.57403846 2.37211538 6.57403846 0.48828125 8.73046875 C-0.00285156 9.14941406 -0.49398437 9.56835938 -1 10 C-1.02689216 8.52093108 -1.04634621 7.04172517 -1.0625 5.5625 C-1.07410156 4.73878906 -1.08570313 3.91507813 -1.09765625 3.06640625 C-1 1 -1 1 0 0 Z " fill="#046C98" transform="translate(189,27)"/>
<path d="M0 0 C2.97 0 5.94 0 9 0 C9.33 0.99 9.66 1.98 10 3 C7.36749612 4.31625194 6.19820944 3.74813658 3.375 3.0625 C2.14910156 2.77052734 2.14910156 2.77052734 0.8984375 2.47265625 C-0.04128906 2.23869141 -0.04128906 2.23869141 -1 2 C-0.67 1.34 -0.34 0.68 0 0 Z " fill="#B9DAE7" transform="translate(103,28)"/>
<path d="M0 0 C0.33 0 0.66 0 1 0 C1.05398987 2.27057377 1.09278742 4.54151288 1.125 6.8125 C1.14820313 8.07707031 1.17140625 9.34164063 1.1953125 10.64453125 C1 14 1 14 -1 17 C-1.66 17 -2.32 17 -3 17 C-3 16.01 -3 15.02 -3 14 C-2.34 14 -1.68 14 -1 14 C-0.67 9.38 -0.34 4.76 0 0 Z " fill="#E1F3FB" transform="translate(35,2)"/>
<path d="M0 0 C0.99 0 1.98 0 3 0 C4.13016601 5.02296004 3.77916092 8.97874074 3 14 C2.67 14 2.34 14 2 14 C1.93941406 13.24074219 1.87882812 12.48148438 1.81640625 11.69921875 C1.73261719 10.70535156 1.64882812 9.71148437 1.5625 8.6875 C1.48128906 7.70136719 1.40007812 6.71523438 1.31640625 5.69921875 C1.08187441 2.90624401 1.08187441 2.90624401 0 0 Z " fill="#277694" transform="translate(116,26)"/>
<path d="M0 0 C1.65 0 3.3 0 5 0 C5.33 0.99 5.66 1.98 6 3 C4.35 2.67 2.7 2.34 1 2 C1 3.65 1 5.3 1 7 C0.01 7.495 0.01 7.495 -1 8 C-0.67 5.36 -0.34 2.72 0 0 Z " fill="#B5B5B5" transform="translate(231,64)"/>
<path d="M0 0 C1.98 0 3.96 0 6 0 C6.33 1.65 6.66 3.3 7 5 C5.68 4.67 4.36 4.34 3 4 C3.33 3.01 3.66 2.02 4 1 C2.35 1.33 0.7 1.66 -1 2 C-0.67 1.34 -0.34 0.68 0 0 Z " fill="#BDD9E7" transform="translate(167,28)"/>
<path d="M0 0 C2.475 0.495 2.475 0.495 5 1 C5 1.99 5 2.98 5 4 C3.35 4 1.7 4 0 4 C0 2.68 0 1.36 0 0 Z " fill="#126798" transform="translate(205,42)"/>
<path d="M0 0 C2.31 0.33 4.62 0.66 7 1 C6.01 1.495 6.01 1.495 5 2 C4.67 2.99 4.34 3.98 4 5 C2.68 4.34 1.36 3.68 0 3 C0 2.01 0 1.02 0 0 Z " fill="#EDEAF4" transform="translate(0,26)"/>
<path d="M0 0 C0 0.66 0 1.32 0 2 C-0.99 2 -1.98 2 -3 2 C-3.33 2.99 -3.66 3.98 -4 5 C-5.32 3.68 -6.64 2.36 -8 1 C-5.29120665 -0.35439668 -2.99066732 -0.06501451 0 0 Z " fill="#12698C" transform="translate(150,26)"/>
<path d="M0 0 C1.98 0 3.96 0 6 0 C6 0.99 6 1.98 6 3 C4.35 3 2.7 3 1 3 C0.67 2.01 0.34 1.02 0 0 Z " fill="#DDF6F7" transform="translate(174,33)"/>
</svg>
