<?xml version="1.0" encoding="UTF-8"?>
<svg version="1.1" xmlns="http://www.w3.org/2000/svg" width="200" height="72">
<path d="M0 0 C66 0 132 0 200 0 C200 23.76 200 47.52 200 72 C134 72 68 72 0 72 C0 48.24 0 24.48 0 0 Z " fill="#FCFDFD" transform="translate(0,0)"/>
<path d="M0 0 C33 0 66 0 100 0 C100 23.76 100 47.52 100 72 C79.54 72 59.08 72 38 72 C38 67.59714577 38.26265853 65.80043446 40 62 C40.495 63.98 40.495 63.98 41 66 C42.97536745 65.65213292 42.97536745 65.65213292 45 65 C45.495 64.01 45.495 64.01 46 63 C46.99 62.67 47.98 62.34 49 62 C47.35 62 45.7 62 44 62 C44 62.99 44 63.98 44 65 C43.34 65 42.68 65 42 65 C42 63.68 42 62.36 42 61 C42.66 61 43.32 61 44 61 C43.505 59.02 43.505 59.02 43 57 C43.66 56.67 44.32 56.34 45 56 C45.495 51.05 45.495 51.05 46 46 C36.1 46 26.2 46 16 46 C16 44.02 16 42.04 16 40 C25.9 40 35.8 40 46 40 C45.855625 36.9475 45.71125 33.895 45.5625 30.75 C45.51939697 29.79448242 45.47629395 28.83896484 45.43188477 27.85449219 C45.3747229 26.71222168 45.3747229 26.71222168 45.31640625 25.546875 C45.26141968 24.38430176 45.26141968 24.38430176 45.20532227 23.19824219 C45.00396985 21.0425024 44.58270703 19.08198525 44 17 C38.7185228 16.27816387 33.55448075 15.83419905 28.21875 15.68359375 C27.51979614 15.66281265 26.82084229 15.64203156 26.10070801 15.62062073 C23.90055741 15.55601465 21.70030304 15.49666091 19.5 15.4375 C17.99478158 15.39422983 16.48957307 15.35061307 14.984375 15.30664062 C11.32302256 15.20042681 7.66155766 15.09891804 4 15 C4 18.3 4 21.6 4 25 C2.68 25 1.36 25 0 25 C0 22.03 0 19.06 0 16 C-3.3 16 -6.6 16 -10 16 C-10 14.02 -10 12.04 -10 10 C-6.78548731 8.39274365 -3.56387464 8.94251815 0 9 C0 6.03 0 3.06 0 0 Z " fill="#FDFDFD" transform="translate(100,0)"/>
<path d="M0 0 C1.11761719 0.02707031 1.11761719 0.02707031 2.2578125 0.0546875 C4.08909701 0.10164351 5.91971649 0.17338348 7.75 0.25 C7.75 3.22 7.75 6.19 7.75 9.25 C4.45 9.58 1.15 9.91 -2.25 10.25 C-2.25 12.23 -2.25 14.21 -2.25 16.25 C1.05 16.25 4.35 16.25 7.75 16.25 C7.75 19.22 7.75 22.19 7.75 25.25 C9.07 25.25 10.39 25.25 11.75 25.25 C11.75 21.95 11.75 18.65 11.75 15.25 C16.16079226 15.20019084 20.57143112 15.16408867 24.98242188 15.14013672 C26.47984676 15.13014099 27.97725244 15.11653986 29.47460938 15.09912109 C31.63937143 15.07458712 33.80387323 15.06345256 35.96875 15.0546875 C37.26748047 15.04421387 38.56621094 15.03374023 39.90429688 15.02294922 C44.2444844 15.27919442 47.6309411 15.84879035 51.75 17.25 C53.93031079 19.94766055 53.99121412 22.40015487 53.9453125 25.796875 C53.94031738 26.55838867 53.93532227 27.31990234 53.93017578 28.10449219 C53.91196777 29.06000977 53.89375977 30.01552734 53.875 31 C53.83375 34.0525 53.7925 37.105 53.75 40.25 C43.85 40.25 33.95 40.25 23.75 40.25 C23.75 42.23 23.75 44.21 23.75 46.25 C33.65 46.25 43.55 46.25 53.75 46.25 C53.75 57.5 53.75 57.5 51.75 61.25 C51.09 61.25 50.43 61.25 49.75 61.25 C49.75 62.57 49.75 63.89 49.75 65.25 C50.41 65.25 51.07 65.25 51.75 65.25 C51.75 64.26 51.75 63.27 51.75 62.25 C53.4 62.25 55.05 62.25 56.75 62.25 C56.255 63.24 56.255 63.24 55.75 64.25 C55.09 63.92 54.43 63.59 53.75 63.25 C53.42 64.24 53.09 65.23 52.75 66.25 C51.1 66.25 49.45 66.25 47.75 66.25 C47.09 68.23 46.43 70.21 45.75 72.25 C26.28 72.25 6.81 72.25 -13.25 72.25 C-13.25 68.95 -13.25 65.65 -13.25 62.25 C-10.775 61.755 -10.775 61.755 -8.25 61.25 C-7.92 59.6 -7.59 57.95 -7.25 56.25 C-8.9 56.25 -10.55 56.25 -12.25 56.25 C-12.35135462 48.91776322 -12.42144649 41.58570683 -12.46972656 34.25292969 C-12.48985164 31.75806935 -12.51715452 29.26325622 -12.55175781 26.76855469 C-12.60023457 23.18412632 -12.6229602 19.60032115 -12.640625 16.015625 C-12.66127014 14.89883362 -12.68191528 13.78204224 -12.70318604 12.63140869 C-12.70348816 11.59063171 -12.70379028 10.54985474 -12.70410156 9.47753906 C-12.71298401 8.56264709 -12.72186646 7.64775513 -12.73101807 6.70513916 C-11.37042732 -0.2393809 -5.98009075 -0.27470382 0 0 Z " fill="#FAFBFA" transform="translate(92.25,-0.25)"/>
<path d="M0 0 C7.6725 -0.061875 7.6725 -0.061875 15.5 -0.125 C17.89668945 -0.15231201 17.89668945 -0.15231201 20.34179688 -0.18017578 C21.62119141 -0.1851709 22.90058594 -0.19016602 24.21875 -0.1953125 C25.51748047 -0.20578613 26.81621094 -0.21625977 28.15429688 -0.22705078 C32.4944844 0.02919442 35.8809411 0.59879035 40 2 C42.18031079 4.69766055 42.24121412 7.15015487 42.1953125 10.546875 C42.19031738 11.30838867 42.18532227 12.06990234 42.18017578 12.85449219 C42.16196777 13.81000977 42.14375977 14.76552734 42.125 15.75 C42.08375 18.8025 42.0425 21.855 42 25 C32.1 25 22.2 25 12 25 C12 26.98 12 28.96 12 31 C21.9 31 31.8 31 42 31 C42 34.3 42 37.6 42 41 C28.14 41 14.28 41 0 41 C0 27.47 0 13.94 0 0 Z " fill="#6D92D2" transform="translate(104,15)"/>
<path d="M0 0 C13.2 0 26.4 0 40 0 C40 13.2 40 26.4 40 40 C34.328125 40.103125 28.65625 40.20625 22.8125 40.3125 C21.03077393 40.35802002 19.24904785 40.40354004 17.41333008 40.45043945 C15.99041625 40.46505167 14.56748143 40.47779061 13.14453125 40.48828125 C12.04933167 40.526651 12.04933167 40.526651 10.93200684 40.5657959 C6.97233022 40.56916584 5.19641708 40.1526252 2.0324707 37.6940918 C-0.63953086 34.15228552 -0.66901063 31.90106292 -0.625 27.5 C-0.63789063 26.2109375 -0.65078125 24.921875 -0.6640625 23.59375 C0 20 0 20 1.73828125 17.05078125 C6.87042205 13.82398614 11.89039905 14.47184926 17.8125 14.6875 C18.98232422 14.71005859 20.15214844 14.73261719 21.35742188 14.75585938 C24.23958769 14.81467909 27.11913681 14.89682859 30 15 C30 13.35 30 11.7 30 10 C15.15 9.505 15.15 9.505 0 9 C0 6.03 0 3.06 0 0 Z " fill="#6C92D5" transform="translate(14,16)"/>
<path d="M0 0 C1.11761719 0.02707031 1.11761719 0.02707031 2.2578125 0.0546875 C4.08909701 0.10164351 5.91971649 0.17338348 7.75 0.25 C7.75 3.22 7.75 6.19 7.75 9.25 C4.45 9.58 1.15 9.91 -2.25 10.25 C-2.25 12.23 -2.25 14.21 -2.25 16.25 C1.05 16.25 4.35 16.25 7.75 16.25 C7.75 19.22 7.75 22.19 7.75 25.25 C4.45 25.25 1.15 25.25 -2.25 25.25 C-2.25 35.48 -2.25 45.71 -2.25 56.25 C-5.55 56.25 -8.85 56.25 -12.25 56.25 C-12.34881828 48.91768335 -12.42144618 41.58575362 -12.46972656 34.25292969 C-12.48985164 31.75806935 -12.51715452 29.26325622 -12.55175781 26.76855469 C-12.60023457 23.18412632 -12.6229602 19.60032115 -12.640625 16.015625 C-12.66127014 14.89883362 -12.68191528 13.78204224 -12.70318604 12.63140869 C-12.70348816 11.59063171 -12.70379028 10.54985474 -12.70410156 9.47753906 C-12.71298401 8.56264709 -12.72186646 7.64775513 -12.73101807 6.70513916 C-11.37042732 -0.2393809 -5.98009075 -0.27470382 0 0 Z " fill="#6E92D1" transform="translate(92.25,-0.25)"/>
<path d="M0 0 C13.2 0 26.4 0 40 0 C40 13.2 40 26.4 40 40 C34.328125 40.103125 28.65625 40.20625 22.8125 40.3125 C21.03077393 40.35802002 19.24904785 40.40354004 17.41333008 40.45043945 C15.99041625 40.46505167 14.56748143 40.47779061 13.14453125 40.48828125 C12.04933167 40.526651 12.04933167 40.526651 10.93200684 40.5657959 C6.97233022 40.56916584 5.19641708 40.1526252 2.0324707 37.6940918 C-0.63953086 34.15228552 -0.66901063 31.90106292 -0.625 27.5 C-0.63789063 26.2109375 -0.65078125 24.921875 -0.6640625 23.59375 C0 20 0 20 1.76953125 17.05078125 C6.76839567 13.87737881 11.52864247 14.46777426 17.3125 14.6875 C18.99569336 14.72133789 18.99569336 14.72133789 20.71289062 14.75585938 C23.47662536 14.81466224 26.23762554 14.89679599 29 15 C29 15.33 29 15.66 29 16 C22.73 16.33 16.46 16.66 10 17 C9.34 18.32 8.68 19.64 8 21 C10.34938888 22.17469444 11.95073205 22.20034889 14.5703125 22.31640625 C15.46621094 22.35830078 16.36210937 22.40019531 17.28515625 22.44335938 C18.22230469 22.48267578 19.15945312 22.52199219 20.125 22.5625 C21.06988281 22.60568359 22.01476562 22.64886719 22.98828125 22.69335938 C25.32537092 22.79959072 27.6625683 22.90163176 30 23 C30 23.33 30 23.66 30 24 C28.19402344 24.09087891 28.19402344 24.09087891 26.3515625 24.18359375 C24.77602923 24.26799732 23.20050904 24.35264541 21.625 24.4375 C20.8309375 24.47681641 20.036875 24.51613281 19.21875 24.55664062 C14.97398779 24.68893404 14.97398779 24.68893404 11 26 C11 26.99 11 27.98 11 29 C14.60409919 29.05800828 18.20807851 29.09359869 21.8125 29.125 C23.34874023 29.15013672 23.34874023 29.15013672 24.91601562 29.17578125 C25.89892578 29.18222656 26.88183594 29.18867187 27.89453125 29.1953125 C28.80050049 29.20578613 29.70646973 29.21625977 30.63989258 29.22705078 C33.26936448 29.16165391 33.26936448 29.16165391 36 27 C36.04898438 27.78246094 36.09796875 28.56492187 36.1484375 29.37109375 C36.22320312 30.38300781 36.29796875 31.39492188 36.375 32.4375 C36.47941406 33.95150391 36.47941406 33.95150391 36.5859375 35.49609375 C36.72257812 36.32238281 36.85921875 37.14867187 37 38 C37.99 38.495 37.99 38.495 39 39 C39 26.46 39 13.92 39 1 C26.46 1 13.92 1 1 1 C1 3.31 1 5.62 1 8 C10.9 8 20.8 8 31 8 C30.67 9.32 30.34 10.64 30 12 C30 11.34 30 10.68 30 10 C15.15 9.505 15.15 9.505 0 9 C0 6.03 0 3.06 0 0 Z " fill="#7093CE" transform="translate(14,16)"/>
<path d="M0 0 C0.33 0 0.66 0 1 0 C2.02222656 0.01160156 3.04445312 0.02320313 4.09765625 0.03515625 C12.35777522 0.17757491 12.35777522 0.17757491 20.5625 -0.625 C24.31304413 -1.03415027 26.55785485 -0.46291169 30 1 C30 1.66 30 2.32 30 3 C30.66 3 31.32 3 32 3 C32 2.01 32 1.02 32 0 C33.65 0 35.3 0 37 0 C37 3.3 37 6.6 37 10 C22.48 10 7.96 10 -7 10 C-7 6.7 -7 3.4 -7 0 C-2.25 -1.125 -2.25 -1.125 0 0 Z " fill="#EBEAEA" transform="translate(163,62)"/>
<path d="M0 0 C3.3 0 6.6 0 10 0 C10 13.2 10 26.4 10 40 C6.7 40 3.4 40 0 40 C0 26.8 0 13.6 0 0 Z " fill="#B4C5E6" transform="translate(62,16)"/>
<path d="M0 0 C2.34119555 0.63850788 4.67451993 1.30643577 7 2 C9.23167185 1.63143136 9.23167185 1.63143136 11 1 C11.66 1.33 12.32 1.66 13 2 C13 2.66 13 3.32 13 4 C12.01 4.66 11.02 5.32 10 6 C10.33 6.66 10.66 7.32 11 8 C11.99 8 12.98 8 14 8 C14 8.99 14 9.98 14 11 C3.44 11 -7.12 11 -18 11 C-18 10.34 -18 9.68 -18 9 C-18.99 8.67 -19.98 8.34 -21 8 C-20.360625 7.855625 -19.72125 7.71125 -19.0625 7.5625 C-17.02454854 7.18992819 -17.02454854 7.18992819 -16 6 C-17.65 5.67 -19.3 5.34 -21 5 C-20.67 4.34 -20.34 3.68 -20 3 C-19.34 3.33 -18.68 3.66 -18 4 C-18 3.34 -18 2.68 -18 2 C-15.39080172 0.69540086 -13.41057385 0.8673406 -10.5 0.875 C-9.5203125 0.87242188 -8.540625 0.86984375 -7.53125 0.8671875 C-5 1 -5 1 -3 2 C-2.01 1.34 -1.02 0.68 0 0 Z " fill="#D6D7D7" transform="translate(124,61)"/>
<path d="M0 0 C7.6725 -0.061875 7.6725 -0.061875 15.5 -0.125 C17.89668945 -0.15231201 17.89668945 -0.15231201 20.34179688 -0.18017578 C21.62119141 -0.1851709 22.90058594 -0.19016602 24.21875 -0.1953125 C25.51748047 -0.20578613 26.81621094 -0.21625977 28.15429688 -0.22705078 C32.38290298 0.02260664 35.93232287 0.85646042 40 2 C40 2.66 40 3.32 40 4 C39.01 4.33 38.02 4.66 37 5 C36.505 4.01 36.505 4.01 36 3 C24.78 2.67 13.56 2.34 2 2 C2.03942697 12.21596957 2.03942697 12.21596957 2.09008789 22.43188477 C2.09258545 23.71377686 2.09508301 24.99566895 2.09765625 26.31640625 C2.10289307 27.62037354 2.10812988 28.92434082 2.11352539 30.26782227 C2.00145975 33.95201033 1.59374786 37.36971466 1 41 C0.67 41 0.34 41 0 41 C0 27.47 0 13.94 0 0 Z " fill="#8EA8D6" transform="translate(104,15)"/>
<path d="M0 0 C0.75732422 0.00644531 1.51464844 0.01289062 2.29492188 0.01953125 C3.08060547 0.03628906 3.86628906 0.05304687 4.67578125 0.0703125 C5.47306641 0.07933594 6.27035156 0.08835938 7.09179688 0.09765625 C9.05742025 0.12119665 11.022889 0.15706703 12.98828125 0.1953125 C12.98828125 2.1753125 12.98828125 4.1553125 12.98828125 6.1953125 C6.71828125 6.1953125 0.44828125 6.1953125 -6.01171875 6.1953125 C-6.34171875 4.8753125 -6.67171875 3.5553125 -7.01171875 2.1953125 C-3.96490814 0.16410543 -3.41053551 -0.05128625 0 0 Z " fill="#FBFDFB" transform="translate(31.01171875,39.8046875)"/>
<path d="M0 0 C0.73734375 -0.01224609 1.4746875 -0.02449219 2.234375 -0.03710938 C4.15770058 -0.04237395 6.08054263 0.06546553 8 0.1875 C10 2.1875 10 2.1875 10 6.1875 C3.4 6.1875 -3.2 6.1875 -10 6.1875 C-10 4.5375 -10 2.8875 -10 1.1875 C-6.84044583 -0.39227708 -3.46536183 0.00302916 0 0 Z " fill="#F8FCFC" transform="translate(126,24.8125)"/>
<path d="M0 0 C3.3 0 6.6 0 10 0 C10 2.97 10 5.94 10 9 C6.7 9 3.4 9 0 9 C0 6.03 0 3.06 0 0 Z " fill="#85B925" transform="translate(80,63)"/>
<path d="M0 0 C2.97 0 5.94 0 9 0 C9 3.3 9 6.6 9 10 C6.03 10 3.06 10 0 10 C0 6.7 0 3.4 0 0 Z " fill="#866392" transform="translate(152,46)"/>
<path d="M0 0 C3.3 0 6.6 0 10 0 C10 2.97 10 5.94 10 9 C6.7 9 3.4 9 0 9 C0 6.03 0 3.06 0 0 Z " fill="#86B828" transform="translate(62,0)"/>
<path d="M0 0 C9.9 0 19.8 0 30 0 C30 0.33 30 0.66 30 1 C16.635 1.495 16.635 1.495 3 2 C3.33 2.66 3.66 3.32 4 4 C12.58 4 21.16 4 30 4 C30 4.66 30 5.32 30 6 C20.1 6 10.2 6 0 6 C0 4.02 0 2.04 0 0 Z " fill="#E3F0FB" transform="translate(116,40)"/>
<path d="M0 0 C2.64 0 5.28 0 8 0 C8 2.97 8 5.94 8 9 C5.36 9 2.72 9 0 9 C0 6.03 0 3.06 0 0 Z " fill="#8E5D9A" transform="translate(0,16)"/>
<path d="M0 0 C1.65 0 3.3 0 5 0 C5 2.31 5 4.62 5 7 C1.7 7 -1.6 7 -5 7 C-5 9.97 -5 12.94 -5 16 C-5.33 16 -5.66 16 -6 16 C-6 12.7 -6 9.4 -6 6 C-4.35 5.67 -2.7 5.34 -1 5 C-0.67 3.35 -0.34 1.7 0 0 Z " fill="#F1FBE1" transform="translate(85,56)"/>
<path d="M0 0 C0.66 0.33 1.32 0.66 2 1 C2 1.99 2 2.98 2 4 C-0.97 3.505 -0.97 3.505 -4 3 C-4.33 3.66 -4.66 4.32 -5 5 C-7.31 4.67 -9.62 4.34 -12 4 C-11.67 3.34 -11.34 2.68 -11 2 C-10.34 2.33 -9.68 2.66 -9 3 C-9 2.34 -9 1.68 -9 1 C-6.01405576 -0.49297212 -3.29146376 -0.11755228 0 0 Z " fill="#CDCECC" transform="translate(115,62)"/>
<path d="M0 0 C0.66 0.33 1.32 0.66 2 1 C2 1.99 2 2.98 2 4 C4.10388569 4.05402274 6.20816714 4.09280256 8.3125 4.125 C9.48425781 4.14820313 10.65601563 4.17140625 11.86328125 4.1953125 C15.16393661 4.25320618 15.16393661 4.25320618 18 2 C18 3.32 18 4.64 18 6 C11.4 6 4.8 6 -2 6 C-2 4.35 -2 2.7 -2 1 C-1.34 0.67 -0.68 0.34 0 0 Z " fill="#E9F9FD" transform="translate(118,25)"/>
<path d="M0 0 C5.61 0 11.22 0 17 0 C17 1.98 17 3.96 17 6 C14.36 6 11.72 6 9 6 C10.32 5.34 11.64 4.68 13 4 C13 3.34 13 2.68 13 2 C8.71 1.67 4.42 1.34 0 1 C0 0.67 0 0.34 0 0 Z " fill="#E0EDFB" transform="translate(27,40)"/>
<path d="M0 0 C2.97 0 5.94 0 9 0 C9 0.33 9 0.66 9 1 C7.35 1 5.7 1 4 1 C4 3.31 4 5.62 4 8 C3.01 8.33 2.02 8.66 1 9 C0 8 0 8 -0.09765625 6.15234375 C-0.06510417 4.1015625 -0.03255208 2.05078125 0 0 Z " fill="#8F669B" transform="translate(152,46)"/>
<path d="M0 0 C1.08667969 0.29197266 1.08667969 0.29197266 2.1953125 0.58984375 C2.74960938 0.74582031 3.30390625 0.90179688 3.875 1.0625 C3.215 2.3825 2.555 3.7025 1.875 5.0625 C0.905625 4.7325 -0.06375 4.4025 -1.0625 4.0625 C-3.74649574 3.01076637 -3.74649574 3.01076637 -5.125 3.0625 C-5.455 2.0725 -5.785 1.0825 -6.125 0.0625 C-3.57797384 -1.21101308 -2.6967055 -0.73941925 0 0 Z " fill="#BDBDBD" transform="translate(189.125,61.9375)"/>
<path d="M0 0 C2.64 0 5.28 0 8 0 C8 2.97 8 5.94 8 9 C5.36 9 2.72 9 0 9 C0 8.34 0 7.68 0 7 C3.01031744 6.06576355 3.86650268 5.95550089 7 7 C7 5.02 7 3.04 7 1 C4.69 1 2.38 1 0 1 C0 0.67 0 0.34 0 0 Z " fill="#84658F" transform="translate(0,16)"/>
<path d="M0 0 C0 0.33 0 0.66 0 1 C-2.31 1.33 -4.62 1.66 -7 2 C-7 2.99 -7 3.98 -7 5 C-4.69 5.33 -2.38 5.66 0 6 C0 6.33 0 6.66 0 7 C-3.3 7 -6.6 7 -10 7 C-10 5.02 -10 3.04 -10 1 C-6.78548731 -0.60725635 -3.56387464 -0.05748185 0 0 Z " fill="#D6E3F3" transform="translate(100,9)"/>
<path d="M0 0 C2.7708983 -0.02696009 5.5415345 -0.04681952 8.3125 -0.0625 C9.09818359 -0.07087891 9.88386719 -0.07925781 10.69335938 -0.08789062 C11.45068359 -0.09111328 12.20800781 -0.09433594 12.98828125 -0.09765625 C13.68477783 -0.10289307 14.38127441 -0.10812988 15.09887695 -0.11352539 C17 0 17 0 20 1 C20 2.65 20 4.3 20 6 C19.34 6 18.68 6 18 6 C17.75636719 5.03320312 17.75636719 5.03320312 17.5078125 4.046875 C16.04785597 1.5663746 16.04785597 1.5663746 12.3046875 1.390625 C10.82887763 1.32414708 9.35203983 1.27806121 7.875 1.25 C7.12089844 1.22035156 6.36679688 1.19070312 5.58984375 1.16015625 C3.72714047 1.08942068 1.86356245 1.04245017 0 1 C0 0.67 0 0.34 0 0 Z " fill="#7793C2" transform="translate(118,24)"/>
<path d="M0 0 C0.99 0 1.98 0 3 0 C2.125 4.75 2.125 4.75 1 7 C-1.0625 7.625 -1.0625 7.625 -3 8 C-3.33 6.68 -3.66 5.36 -4 4 C-2.68 3.67 -1.36 3.34 0 3 C0 2.01 0 1.02 0 0 Z " fill="#EFEFEF" transform="translate(137,62)"/>
<path d="M0 0 C2.64 0 5.28 0 8 0 C8 0.99 8 1.98 8 3 C5.36 3 2.72 3 0 3 C0 2.01 0 1.02 0 0 Z " fill="#A5A5A5" transform="translate(112,69)"/>
<path d="M0 0 C0.598125 0.350625 1.19625 0.70125 1.8125 1.0625 C1.1525 1.0625 0.4925 1.0625 -0.1875 1.0625 C-0.1875 2.0525 -0.1875 3.0425 -0.1875 4.0625 C-1.1775 4.3925 -2.1675 4.7225 -3.1875 5.0625 C-3.8475 4.7325 -4.5075 4.4025 -5.1875 4.0625 C-5.1875 2.7425 -5.1875 1.4225 -5.1875 0.0625 C-2.1875 -0.9375 -2.1875 -0.9375 0 0 Z " fill="#DFDFDF" transform="translate(126.1875,61.9375)"/>
<path d="M0 0 C0.33 0 0.66 0 1 0 C1 2.97 1 5.94 1 9 C4.3 9 7.6 9 11 9 C11 9.33 11 9.66 11 10 C3.375 11 3.375 11 0 11 C0 7.37 0 3.74 0 0 Z " fill="#ECFCD3" transform="translate(61,0)"/>
<path d="M0 0 C2.31 0.33 4.62 0.66 7 1 C6.67 1.99 6.34 2.98 6 4 C4.02 4 2.04 4 0 4 C0 2.68 0 1.36 0 0 Z " fill="#C1C1C1" transform="translate(156,68)"/>
<path d="M0 0 C2 1 2 1 3 3 C4.89533342 3.46523063 4.89533342 3.46523063 7.0625 3.625 C8.361875 3.74875 9.66125 3.8725 11 4 C11 4.33 11 4.66 11 5 C7.37 5 3.74 5 0 5 C-0.33 3.68 -0.66 2.36 -1 1 C-0.67 0.67 -0.34 0.34 0 0 Z " fill="#EDFAFE" transform="translate(25,41)"/>
<path d="M0 0 C1.32 0 2.64 0 4 0 C4 1.32 4 2.64 4 4 C1.69 3.67 -0.62 3.34 -3 3 C-2.67 2.34 -2.34 1.68 -2 1 C-1.34 1.33 -0.68 1.66 0 2 C0 1.34 0 0.68 0 0 Z " fill="#C3C3C1" transform="translate(106,63)"/>
</svg>
