<?xml version="1.0" encoding="UTF-8"?>
<svg version="1.1" xmlns="http://www.w3.org/2000/svg" width="800" height="534">
<path d="M0 0 C264 0 528 0 800 0 C800 176.22 800 352.44 800 534 C536 534 272 534 0 534 C0 357.78 0 181.56 0 0 Z " fill="#FDFEFE" transform="translate(0,0)"/>
<path d="M0 0 C1.06094242 -0.00397774 1.06094242 -0.00397774 2.14331803 -0.00803584 C4.53141604 -0.01574165 6.91946274 -0.0162885 9.30757236 -0.01688576 C11.02990158 -0.02089956 12.75222985 -0.02533764 14.47455698 -0.03016531 C19.22187031 -0.04214624 23.96917348 -0.0477828 28.71649897 -0.05234647 C33.83124976 -0.05829694 38.94598836 -0.0699083 44.06073093 -0.08063698 C56.42152664 -0.10517573 68.7823264 -0.11979133 81.14313897 -0.13269705 C84.63405014 -0.13640824 88.1249609 -0.14038154 91.61587167 -0.14444971 C113.28984192 -0.16968808 134.96381279 -0.1917432 156.63779449 -0.20417786 C161.65984633 -0.20710761 166.68189814 -0.21006926 171.70394993 -0.21308327 C172.95217329 -0.21382932 174.20039665 -0.21457537 175.48644496 -0.21534403 C195.70225199 -0.2279948 215.91797101 -0.26121304 236.1337369 -0.3028851 C256.88543814 -0.3453114 277.63709433 -0.3688738 298.38883883 -0.37409842 C310.0414664 -0.377512 321.69395651 -0.38926081 333.3465414 -0.42220116 C343.27185852 -0.45021248 353.19700999 -0.46119624 363.12236356 -0.4500057 C368.1851446 -0.44482165 373.24757883 -0.44768951 378.31030941 -0.47247124 C382.9500228 -0.49499231 387.58914083 -0.4942016 392.22886486 -0.47526737 C393.90260626 -0.47247135 395.57638829 -0.47804367 397.25006448 -0.4930803 C409.36132189 -0.59519027 419.16183753 1.05409026 428.99569798 8.69951439 C436.73248014 16.32355655 439.68147333 24.17117821 439.80819798 34.88701439 C439.66047891 45.03674397 437.14053463 53.77315406 433.3089304 63.11650658 C429.5427279 72.34274372 426.27224132 81.75015878 422.93319798 91.13701439 C422.2573674 93.03253363 421.58150454 94.92804136 420.90561008 96.82353783 C416.91650237 108.02309422 412.98154226 119.23930993 409.11972141 130.48344994 C406.57131683 137.88771262 403.9108268 145.24604273 401.21103001 152.5962429 C398.39310282 160.30483928 395.71764718 168.06006216 393.05819798 175.82451439 C390.05069081 184.60198814 386.98156201 193.34455633 383.73153782 202.03496361 C381.27503893 208.63671484 378.97331721 215.28845041 376.68319798 221.94951439 C373.54279847 231.08322559 370.31642431 240.17890708 366.99325657 249.24761009 C364.87858353 255.02656428 362.82437244 260.8230548 360.80819798 266.63701439 C359.93119222 269.14432498 359.05104187 271.65050055 358.16903782 274.15605736 C357.39583683 276.35465635 356.62580042 278.55436886 355.85751438 280.75469017 C354.69572584 284.07672965 353.51741517 287.39261086 352.3308115 290.70586205 C351.86549264 292.01225039 351.40484487 293.32031408 350.94940281 294.63017845 C346.1036846 308.54507302 339.41685129 321.69116853 326.12069798 329.13701439 C319.32737883 332.08311928 313.02687993 332.62783485 305.68319798 332.57451439 C304.71060032 332.59449486 303.73800266 332.61447533 302.73593235 332.63506126 C292.54075517 332.62825086 283.50184137 329.30332201 276.12069798 322.13701439 C263.58772556 307.09232153 259.15513064 286.36492915 253.24569798 268.07451439 C252.06198976 264.4165768 250.87695643 260.75907082 249.69101048 257.10185814 C249.24847431 255.73639351 249.24847431 255.73639351 248.79699802 254.34334373 C246.77061012 248.1033852 244.70516629 241.87731466 242.62069798 235.65654564 C240.20777606 228.4538699 237.85733284 221.23368371 235.55038548 213.99638939 C234.95810087 212.14607669 234.3656533 210.29581614 233.77304173 208.44560814 C232.87546721 205.64321948 231.9808664 202.84004373 231.09481907 200.03398705 C230.2138597 197.24770807 229.32071384 194.4655793 228.42538548 191.68388939 C228.16691837 190.85564659 227.90845127 190.02740379 227.64215183 189.17406273 C224.82980857 180.51326502 221.55186311 172.47096105 213.12069798 168.13701439 C205.75011038 165.21659289 198.33302819 165.08489343 190.87069798 167.69951439 C183.80981297 170.93207581 180.78873326 174.99389908 178.05743504 182.24461937 C177.81792118 182.90004723 177.57840733 183.55547508 177.33163548 184.23076439 C177.07302738 184.9301815 176.81441929 185.62959862 176.54797459 186.35021019 C173.76687843 193.96117799 171.26943331 201.6620479 168.79913425 209.3783474 C167.39282452 213.76943963 165.97291621 218.15613833 164.55429173 222.54326439 C164.26645313 223.43426842 163.97861454 224.32527245 163.68205357 225.2432766 C160.38185636 235.44588313 156.99520956 245.61930967 153.5823679 255.78471947 C153.08984967 257.25238247 152.5974181 258.72007456 152.10507298 260.18779564 C151.86170704 260.91311989 151.6183411 261.63844414 151.36760044 262.38574791 C149.80090689 267.06789215 148.26486994 271.75916512 146.74775791 276.45760155 C145.69495333 279.71560736 144.63306866 282.97062424 143.57067966 286.22551537 C143.0726027 287.75995524 142.57881856 289.29579703 142.08990574 290.83318138 C136.74589162 307.62765292 130.88687465 321.39507651 114.67147923 329.97295189 C105.33898612 334.23188443 89.64315571 334.33746344 80.04647923 330.97295189 C74.94976067 328.47894908 70.77127357 325.5177051 67.12069798 321.13701439 C66.57026829 320.57498314 66.0198386 320.01295189 65.45272923 319.43388939 C57.08090272 310.65150423 53.84149264 298.94943931 49.93319798 287.69951439 C49.45556612 286.33693251 48.97736536 284.97454993 48.49862766 283.61235619 C47.76320529 281.51939729 47.02819759 279.42630179 46.29510593 277.33252525 C43.48235755 269.29955821 40.60644244 261.28940629 37.7332468 253.27788353 C31.21018438 235.04972835 24.88891621 216.74925994 18.52206516 198.46611595 C14.763618 187.67427319 10.9789594 176.89362602 7.12069798 166.13701439 C0.36880048 147.20897334 -6.30382789 128.25379164 -12.93179226 109.28203392 C-13.49370112 107.67379074 -14.05563118 106.06555496 -14.61758327 104.45732689 C-14.89170544 103.67277122 -15.1658276 102.88821556 -15.44825649 102.07988548 C-17.2784756 96.84534388 -19.12059796 91.61510832 -20.96914577 86.38701439 C-23.71949505 78.60570317 -26.43477311 70.81284192 -29.12930202 63.01201439 C-29.34586452 62.38810814 -29.56242702 61.76420189 -29.78555202 61.12138939 C-30.42802129 59.27046602 -31.0677544 57.41859363 -31.70742702 55.56670189 C-32.07771023 54.49661888 -32.44799343 53.42653587 -32.82949734 52.32402611 C-36.1848548 42.13778511 -38.00917987 31.46004785 -33.91836452 21.15654564 C-27.11159985 7.9268564 -14.91782077 0.0274808 0 0 Z " fill="#3273B2" transform="translate(35.87930202484131,2.862985610961914)"/>
<path d="M0 0 C0.7010393 -0.00085442 1.4020786 -0.00170885 2.12436152 -0.00258917 C4.44886066 -0.00422255 6.77328594 0.00124194 9.09777832 0.00672913 C10.77381387 0.00701149 12.44984954 0.00685231 14.12588501 0.00628662 C18.6583355 0.00600056 23.19075934 0.01186643 27.72320366 0.01886058 C32.46642801 0.0251259 37.20965301 0.02570043 41.95288086 0.02688599 C50.92702642 0.02998994 59.90115975 0.0381907 68.87529993 0.04823548 C79.09536188 0.0594257 89.31542443 0.06491439 99.53549099 0.06993091 C120.55170296 0.0803741 141.56790393 0.0979554 162.58410645 0.12025452 C162.65422242 22.01692885 162.70710733 43.91358464 162.73954296 65.81034851 C162.75500444 75.97765356 162.77608024 86.1448888 162.8104248 96.31214905 C162.84034914 105.17509222 162.85968668 114.03798484 162.86637193 122.90097713 C162.87027903 127.59281613 162.87944636 132.2845105 162.90129662 136.9763031 C162.92170968 141.3954388 162.92793051 145.81437075 162.92342949 150.23354912 C162.92425253 151.85243272 162.93018945 153.47132337 162.94172287 155.09016609 C163.02311303 167.1070042 162.00440562 176.00352298 153.58410645 185.12025452 C147.59539265 189.90818367 141.05277601 192.88498756 133.89660645 195.49525452 C132.86551758 195.87536682 131.83442871 196.25547913 130.77209473 196.64710999 C117.62126213 201.35514323 104.13313439 204.7747524 90.58410645 208.12025452 C89.28226719 208.44593827 87.9805094 208.77194781 86.67883301 209.09828186 C78.01365481 211.26220614 69.32417293 213.28091561 60.58410645 215.12025452 C59.19626953 215.41271057 59.19626953 215.41271057 57.78039551 215.71107483 C44.72973821 218.31126293 31.59246467 218.41985889 18.33410645 218.49525452 C17.49051575 218.50338165 16.64692505 218.51150879 15.777771 218.5198822 C-0.46110311 218.63707403 -15.79373418 216.63402787 -31.35339355 211.87025452 C-32.85881714 211.42008972 -32.85881714 211.42008972 -34.39465332 210.96083069 C-46.38441146 207.31292945 -58.1816813 203.16107869 -69.55285645 197.87879944 C-71.38936137 196.99455572 -71.38936137 196.99455572 -73.41589355 197.12025452 C-71.78582579 204.60006902 -70.10491426 211.94545837 -67.41589355 219.12025452 C-67.0910498 220.0316217 -66.76620605 220.94298889 -66.43151855 221.88197327 C-58.64858234 242.27219999 -42.94249495 258.69685196 -23.19470215 267.74476624 C-0.61612473 277.58376474 29.09825706 278.91182398 52.58410645 271.12025452 C53.27875 270.89531311 53.97339355 270.6703717 54.68908691 270.43861389 C68.76098078 265.77900388 80.6256252 258.78168929 92.4786377 249.96791077 C93.44156738 249.2550592 94.40449707 248.54220764 95.39660645 247.80775452 C96.26930176 247.1516217 97.14199707 246.49548889 98.0411377 245.81947327 C105.09282947 241.10751333 112.40869011 241.46420259 120.58410645 242.12025452 C128.24438596 243.73833495 133.91601047 247.88253675 138.58410645 254.12025452 C142.13339849 259.73417259 143.24797331 264.45806947 143.08410645 271.05775452 C143.06984619 271.85117249 143.05558594 272.64459045 143.04089355 273.46205139 C142.82544806 279.42823429 142.12221106 284.16885742 138.58410645 289.12025452 C138.04398926 289.87822327 137.50387207 290.63619202 136.9473877 291.41712952 C126.32352424 304.52476459 110.37222431 313.46205004 95.58410645 321.12025452 C94.57992676 321.6603717 93.57574707 322.20048889 92.5411377 322.75697327 C85.59414478 326.25341224 78.39350856 328.57437929 70.95910645 330.80775452 C70.02453613 331.09344299 69.08996582 331.37913147 68.1270752 331.67347717 C51.42113081 336.48404517 34.76613772 337.70186643 17.45910645 337.62025452 C16.47542084 337.61882446 15.49173523 337.61739441 14.47824097 337.61592102 C-1.01829188 337.56027704 -15.46741586 336.51065497 -30.41589355 332.12025452 C-31.61109619 331.79130188 -31.61109619 331.79130188 -32.83044434 331.45570374 C-50.05775712 326.65535672 -67.0681717 318.82482443 -81.41589355 308.12025452 C-82.19706543 307.54791077 -82.9782373 306.97556702 -83.78308105 306.38587952 C-89.63139339 301.9743498 -95.06399224 297.1164915 -100.41589355 292.12025452 C-101.16870605 291.42158264 -101.92151855 290.72291077 -102.69714355 290.00306702 C-125.31676036 268.25956213 -138.82009266 238.93887881 -145.72839355 208.68275452 C-145.88799561 207.9858551 -146.04759766 207.28895569 -146.21203613 206.57093811 C-151.5874602 181.38272795 -151.11004136 149.90015253 -144.41589355 125.12025452 C-144.23397461 124.39306213 -144.05205566 123.66586975 -143.86462402 122.91664124 C-141.68670251 114.24582771 -138.69166951 105.93272825 -135.41589355 97.62025452 C-134.93587891 96.40088196 -134.93587891 96.40088196 -134.44616699 95.15687561 C-132.16952415 89.55716125 -129.46256284 84.33718648 -126.41589355 79.12025452 C-125.85104248 78.14016418 -125.85104248 78.14016418 -125.27478027 77.14027405 C-114.4917287 58.66382982 -99.8809936 41.61821602 -82.41589355 29.12025452 C-81.74429199 28.59689514 -81.07269043 28.07353577 -80.3807373 27.53431702 C-58.08163785 10.78049626 -28.01605611 -0.02072193 0 0 Z " fill="#3393BA" transform="translate(637.4158935546875,-0.1202545166015625)"/>
<path d="M0 0 C1.87558594 -0.0299707 1.87558594 -0.0299707 3.7890625 -0.06054688 C17.6855045 -0.0533541 29.58697223 2.92039832 40 12.4375 C45.40425762 18.03332646 48.6296578 24.05885413 51 31.4375 C51.17731659 31.98775848 51.35463318 32.53801697 51.537323 33.10494995 C52.1918004 36.40444678 52.13891912 39.67063332 52.12939453 43.02001953 C52.13202301 44.15724457 52.13202301 44.15724457 52.13470459 45.31744385 C52.13909887 47.81842348 52.13619423 50.31933217 52.1328125 52.8203125 C52.13348609 54.55858372 52.13445659 56.29685484 52.13571167 58.03512573 C52.13718524 61.67495624 52.13504449 65.31476219 52.13037109 68.95458984 C52.12466552 73.62663788 52.1279602 78.29862857 52.13394356 82.97067451 C52.13755112 86.55822179 52.13640983 90.14575539 52.13381577 93.73330307 C52.13314748 95.45654177 52.13397151 97.17978169 52.13629532 98.90301895 C52.13882594 101.30663614 52.13497582 103.71015937 52.12939453 106.11376953 C52.13141876 106.8296524 52.13344299 107.54553528 52.13552856 108.28311157 C52.11426631 113.20896737 52.11426631 113.20896737 51 115.4375 C50.34 115.4375 49.68 115.4375 49 115.4375 C49 116.0975 49 116.7575 49 117.4375 C44.27567045 120.27209773 40.40936788 121.40924273 35 120.4375 C30.58595719 118.18883668 28.08435961 115.93532863 26 111.4375 C25.64137027 109.77609288 25.30429244 108.10971261 25 106.4375 C24.41734375 107.02917969 23.8346875 107.62085938 23.234375 108.23046875 C14.81871385 116.34178995 5.81256859 121.16903253 -6 121.4375 C-7.0209375 121.47617187 -8.041875 121.51484375 -9.09375 121.5546875 C-22.17486457 121.82975767 -33.66939774 119.54633522 -44 110.9375 C-50.58132323 102.71084597 -53.60371834 95.26787425 -53.625 84.8125 C-53.62733643 83.94455811 -53.62967285 83.07661621 -53.63208008 82.18237305 C-53.400777 73.85008294 -50.99476853 67.16492913 -46 60.4375 C-44.515 59.9425 -44.515 59.9425 -43 59.4375 C-43 58.7775 -43 58.1175 -43 57.4375 C-29.13623856 47.23854435 -10.72975111 44.46996396 6.14941406 46.72460938 C12.47254445 47.69822622 18.81589365 48.78305077 25 50.4375 C25.54597485 42.9303458 23.6904212 37.61918323 19.6328125 31.3125 C15.82323987 26.93787115 10.20216413 25.75161582 4.59082031 25.20117188 C-6.61924451 24.54735488 -16.87871177 25.25779668 -27.58984375 28.66015625 C-31.47021928 29.5446863 -34.14261771 29.35880482 -38 28.4375 C-40.58297781 26.24758403 -42.48415844 24.46918312 -44 21.4375 C-44.35933169 15.9576917 -44.42236786 12.96385749 -41 8.4375 C-28.9006437 1.07267443 -13.79252781 -0.07820505 0 0 Z " fill="#B0B0B1" transform="translate(225,412.5625)"/>
<path d="M0 0 C1.50904907 0.00809692 1.50904907 0.00809692 3.04858398 0.01635742 C15.70749017 0.27445262 27.25105039 3.67508251 36.6875 12.4375 C36.6875 13.0975 36.6875 13.7575 36.6875 14.4375 C37.57308594 14.83001953 37.57308594 14.83001953 38.4765625 15.23046875 C47.57471006 20.19747863 51.84172927 31.44221462 54.7265625 40.8125 C56.98880624 49.77690511 57.86564986 57.86015502 55.02734375 66.74609375 C52.88978423 69.44452894 49.8860347 70.42294649 46.6875 71.4375 C44.01083209 71.69659177 41.58203571 71.82002082 38.91625977 71.77807617 C37.80281944 71.77873329 37.80281944 71.77873329 36.66688538 71.77940369 C34.23728219 71.77733 31.80838741 71.75406742 29.37890625 71.73046875 C27.68497596 71.72486772 25.99104078 71.72060002 24.29710388 71.71760559 C19.85664253 71.70619672 15.41647944 71.67676401 10.97613525 71.64349365 C6.43790724 71.61270706 1.89963065 71.59908196 -2.63867188 71.58398438 C-11.53007836 71.55189019 -20.4212643 71.50074216 -29.3125 71.4375 C-28.52842844 73.52352567 -27.73978647 75.60783384 -26.94921875 77.69140625 C-26.51053467 78.8522876 -26.07185059 80.01316895 -25.61987305 81.20922852 C-22.23363129 89.5708111 -17.432255 93.53353177 -9.3125 97.4375 C-0.14674976 101.04511168 10.03292102 100.17103076 19.0078125 96.484375 C21.24695345 95.49412785 23.46657107 94.46774079 25.6875 93.4375 C27.34944738 92.75915413 29.01348903 92.08550425 30.6875 91.4375 C30.6875 90.7775 30.6875 90.1175 30.6875 89.4375 C34.70264421 87.07292316 37.72996544 87.13707099 42.26953125 87.70703125 C45.7450339 88.75698116 47.13548699 90.37348073 48.90234375 93.4765625 C50.24049559 96.81861337 50.38354395 98.89400353 49.6875 102.4375 C45.58356652 108.89236226 39.52804653 113.23017854 32.75 116.5625 C31.75097656 117.06007813 30.75195312 117.55765625 29.72265625 118.0703125 C15.16407978 124.62822983 -4.33322246 124.31939247 -19.3984375 119.4375 C-27.40045307 116.373756 -35.50287732 112.44617346 -39.3125 104.4375 C-40.63717746 103.7537955 -41.97113633 103.08785814 -43.3125 102.4375 C-46.3125 99.00892857 -46.3125 99.00892857 -46.3125 96.4375 C-46.9725 96.4375 -47.6325 96.4375 -48.3125 96.4375 C-49.09479725 94.83889257 -49.86253031 93.23315879 -50.625 91.625 C-51.05425781 90.73167969 -51.48351562 89.83835937 -51.92578125 88.91796875 C-55.61282814 79.66400037 -56.86820252 71.13216333 -56.8125 61.1875 C-56.80391968 59.40569336 -56.80391968 59.40569336 -56.79516602 57.58789062 C-56.46244874 41.1962438 -50.65144921 27.42438917 -39.3125 15.4375 C-38.6525 15.4375 -37.9925 15.4375 -37.3125 15.4375 C-37.3125 14.7775 -37.3125 14.1175 -37.3125 13.4375 C-34.48363849 11.19237181 -31.37248049 9.3512177 -28.3125 7.4375 C-27.71695313 7.04949219 -27.12140625 6.66148437 -26.5078125 6.26171875 C-18.23129047 1.13344314 -9.56336198 -0.09855832 0 0 Z " fill="#B0B0B2" transform="translate(649.3125,411.5625)"/>
<path d="M0 0 C9.81006825 7.14126045 15.09237581 16.54891583 17.30078125 28.33984375 C17.73859788 34.31700754 17.74840634 40.27490817 17.734375 46.265625 C17.73894487 47.98431096 17.74425282 49.7029951 17.7502594 51.42167664 C17.75914271 55.00295497 17.75681871 58.58400966 17.74682617 62.1652832 C17.73528682 66.74620332 17.75564759 71.32635822 17.78474331 75.90717793 C17.80310507 79.44773721 17.80281388 82.98811255 17.79710579 86.5287075 C17.79695287 88.2179491 17.80297299 89.90720339 17.81539726 91.59639931 C17.83032214 93.95578693 17.8196243 96.3137518 17.80249023 98.6730957 C17.8121582 99.36360016 17.82182617 100.05410461 17.83178711 100.76553345 C17.75669599 105.7185099 16.40545639 108.53006098 13.30078125 112.33984375 C9.78038418 114.68677513 8.10021116 114.66708139 3.92578125 114.71484375 C2.80429687 114.74320313 1.6828125 114.7715625 0.52734375 114.80078125 C-3.38104176 114.24244046 -4.93994058 113.11862212 -7.69921875 110.33984375 C-9.90737527 106.9082029 -9.95008724 104.05003467 -9.95458984 100.01757812 C-9.96154877 98.73524292 -9.96850769 97.45290771 -9.97567749 96.13171387 C-9.97499645 95.44830429 -9.97431541 94.76489471 -9.97361374 94.06077576 C-9.97264394 91.90625544 -9.98564779 89.75222796 -10.00259399 87.59777832 C-10.04869997 81.47310304 -10.07342033 75.34847572 -10.08007812 69.22363281 C-10.08513952 65.47107077 -10.10962857 61.71901763 -10.14540482 57.96662903 C-10.15510511 56.54754211 -10.15758904 55.12838426 -10.15223312 53.70927429 C-10.1157395 43.55448285 -10.75404955 33.70965739 -16.94921875 25.27734375 C-24.4263953 20.009333 -31.74056151 19.38382397 -40.69921875 20.33984375 C-47.40550795 21.9482627 -51.94506953 24.37737147 -55.69921875 30.33984375 C-59.73317006 37.86313472 -60.23729725 44.74989815 -60.12394333 53.19035721 C-60.09703711 55.30250922 -60.09742973 57.41318583 -60.10464478 59.52548218 C-60.12016991 65.5221163 -60.0859235 71.51821184 -60.0390625 77.51464844 C-60.01209558 81.20284493 -60.01441081 84.8901507 -60.03352737 88.57838058 C-60.0346024 89.97293346 -60.02429734 91.36754745 -60.00190353 92.76192093 C-59.87817171 100.48434895 -59.96220344 106.04749309 -65.2147522 112.00717163 C-68.87290959 115.29126339 -73.09097727 114.66255267 -77.7734375 114.62890625 C-81.52270981 114.25848415 -83.25783876 113.1881204 -85.69921875 110.33984375 C-87.76696408 107.23822575 -87.95039988 106.57637915 -87.95991516 103.06448364 C-87.96699997 102.19251343 -87.97408478 101.32054321 -87.98138428 100.42214966 C-87.97890686 99.4683139 -87.97642944 98.51447815 -87.97387695 97.53173828 C-87.97898788 96.52496033 -87.98409882 95.51818237 -87.98936462 94.480896 C-88.00329204 91.14475601 -88.00230133 87.8088219 -88 84.47265625 C-88.00388547 82.1572156 -88.00821983 79.84177567 -88.01298523 77.52633667 C-88.02045442 72.66906425 -88.02015128 67.81186449 -88.01489258 62.95458984 C-88.00910001 56.72788184 -88.02602066 50.50147149 -88.04923725 44.2748127 C-88.06396526 39.49130512 -88.0648475 34.70786935 -88.06172752 29.92434311 C-88.0622413 27.62861415 -88.06748957 25.33288124 -88.07753944 23.03717422 C-88.08986686 19.82683199 -88.08313377 16.61707111 -88.0715332 13.40673828 C-88.07917694 12.45695099 -88.08682068 11.5071637 -88.09469604 10.52859497 C-88.05618237 5.7098784 -87.98585709 2.17863332 -84.69921875 -1.66015625 C-84.03921875 -1.66015625 -83.37921875 -1.66015625 -82.69921875 -1.66015625 C-82.69921875 -2.32015625 -82.69921875 -2.98015625 -82.69921875 -3.66015625 C-77.5222491 -5.3858128 -71.93112022 -5.533509 -66.82421875 -3.53515625 C-61.91750482 0.79429721 -60.21670032 4.87132417 -59.69921875 11.33984375 C-59.27511719 10.82035156 -58.85101563 10.30085938 -58.4140625 9.765625 C-44.11756796 -7.23306411 -19.43818881 -11.95547068 0 0 Z " fill="#AFAFB1" transform="translate(384.69921875,417.66015625)"/>
<path d="M0 0 C4.01713309 2.425805 5.20134044 3.5670805 6.36328125 8.21484375 C6.81140882 13.07254658 5.29180096 15.59184415 2.42578125 19.46484375 C-0.99122478 22.27167013 -5.34755051 21.85129014 -9.57421875 21.46484375 C-12.20759735 20.59974623 -14.56988496 19.71777476 -17.07421875 18.58984375 C-26.71077262 14.52449658 -37.18304135 10.78585914 -47.57421875 14.65234375 C-50.93057492 16.68014227 -52.2357539 17.78406542 -53.57421875 21.46484375 C-54.0600477 24.98789335 -54.0600477 24.98789335 -52.57421875 28.46484375 C-46.01289414 34.81451273 -36.83120395 37.1662202 -28.328125 39.76171875 C-14.52202185 44.04850494 -1.32517553 49.30261196 6.5078125 62.25390625 C10.19659287 70.17046685 9.4913461 80.245634 6.80078125 88.33984375 C2.73169064 97.97567637 -3.79945309 105.25534185 -13.62109375 109.30981445 C-21.02612517 111.86366729 -28.29676704 112.04305677 -36.07421875 112.02734375 C-36.73485321 112.02686035 -37.39548767 112.02637695 -38.07614136 112.02587891 C-54.21626966 111.94392084 -69.97533619 108.15718714 -82.57421875 97.46484375 C-85.26835684 93.09612512 -86.07145056 90.31869212 -85.2265625 85.36328125 C-83.92508723 81.57575441 -81.07190796 79.21368836 -77.57421875 77.46484375 C-71.97565558 76.82524529 -68.46424332 78.68607801 -63.69921875 81.27734375 C-52.08700549 87.46381189 -39.69329918 92.21146498 -26.28125 88.8984375 C-23.22260682 87.65280669 -20.32801099 86.29039792 -18.57421875 83.46484375 C-17.65230003 79.46706896 -17.2646898 76.39343061 -18.57421875 72.46484375 C-25.52549901 67.58665235 -33.47538803 64.89617744 -41.51171875 62.40234375 C-43.62463143 61.71902568 -45.73662519 61.03285916 -47.84765625 60.34375 C-48.84120117 60.02035645 -49.83474609 59.69696289 -50.85839844 59.36376953 C-62.80126605 55.41072759 -71.72026715 51.08127895 -77.57421875 39.46484375 C-81.28162045 30.46115391 -80.66060418 19.92759477 -76.95703125 11.03125 C-72.09184183 2.00178827 -64.30816034 -3.97145782 -54.80712891 -7.58862305 C-36.76636911 -12.87060656 -16.21654469 -8.27285162 0 0 Z " fill="#B0B0B2" transform="translate(501.57421875,421.53515625)"/>
<path d="M0 0 C0.9590625 -0.01611328 1.918125 -0.03222656 2.90625 -0.04882812 C9.9128061 -0.05364032 15.05059884 0.66560152 20.4375 5.5 C22.63819728 9.4612551 22.42972591 11.80037793 22 16.3125 C21 18.8125 21 18.8125 20 20.3125 C19.34 20.3125 18.68 20.3125 18 20.3125 C18 20.9725 18 21.6325 18 22.3125 C14.61974359 24.11530342 11.9920195 24.38405989 8.25 24.25 C3.08954488 24.17286315 -1.47831075 24.66449171 -6 27.3125 C-10.07209385 33.16613491 -9.6971998 40.36897826 -10 47.3125 C-8.94087402 47.29678955 -8.94087402 47.29678955 -7.86035156 47.28076172 C-4.65693734 47.2391521 -1.45358004 47.21315796 1.75 47.1875 C2.86117187 47.17074219 3.97234375 47.15398437 5.1171875 47.13671875 C6.72207031 47.12705078 6.72207031 47.12705078 8.359375 47.1171875 C9.34389648 47.10671387 10.32841797 47.09624023 11.34277344 47.08544922 C14.13059088 47.32365854 15.67735402 47.77904735 18 49.3125 C20.72025282 52.98851732 22.38341095 55.74119306 22.25 60.375 C21.28066911 64.7406458 19.04317996 66.55826267 15.49121094 69.08862305 C10.82964034 71.3787498 6.08096779 70.93550719 1 70.6875 C-0.06089844 70.66042969 -1.12179687 70.63335937 -2.21484375 70.60546875 C-4.81205579 70.53527383 -7.40492105 70.43701781 -10 70.3125 C-9.99419922 71.34729492 -9.98839844 72.38208984 -9.98242188 73.44824219 C-9.92205592 90.03726998 -10.20548433 106.62163739 -10.46356201 123.20800781 C-10.52499702 127.17771755 -10.58468071 131.14745362 -10.64453125 135.1171875 C-10.76134972 142.84898446 -10.8800442 150.58075101 -11 158.3125 C-11.66 158.3125 -12.32 158.3125 -13 158.3125 C-13.268125 158.93125 -13.53625 159.55 -13.8125 160.1875 C-15 162.3125 -15 162.3125 -18 164.3125 C-23.37666855 164.97118019 -28.3384421 165.24297242 -33.125 162.5625 C-37.05623258 157.84502091 -37.28195312 153.99412825 -37.22705078 147.96386719 C-37.22734283 147.12447601 -37.22763489 146.28508484 -37.22793579 145.42025757 C-37.22654409 142.64985769 -37.21099039 139.87972781 -37.1953125 137.109375 C-37.1915818 135.18695218 -37.1887351 133.26452745 -37.18673706 131.34210205 C-37.17910508 126.28518412 -37.15946027 121.22838128 -37.1373291 116.17150879 C-37.11686134 111.01018836 -37.10773335 105.84884932 -37.09765625 100.6875 C-37.07621401 90.56244946 -37.04208326 80.43748431 -37 70.3125 C-38.97347005 70.37150065 -40.9469401 70.4305013 -42.92041016 70.48950195 C-46.35278507 70.19735922 -48.41770675 68.46441104 -51 66.3125 C-53.81725233 62.0866215 -53.79958384 58.27625312 -53 53.3125 C-50.80977082 50.48825712 -49.16982793 48.89741397 -46 47.3125 C-44.45976004 47.24299459 -42.91665012 47.22797643 -41.375 47.25 C-40.14910156 47.26353516 -40.14910156 47.26353516 -38.8984375 47.27734375 C-38.27195312 47.28894531 -37.64546875 47.30054688 -37 47.3125 C-37.02094727 46.72871582 -37.04189453 46.14493164 -37.06347656 45.54345703 C-37.73994245 23.85801586 -37.73994245 23.85801586 -33 16.3125 C-32.57589844 15.60222656 -32.15179687 14.89195312 -31.71484375 14.16015625 C-24.05731397 2.70585683 -13.11040646 -0.04405379 0 0 Z " fill="#AFAFB1" transform="translate(571,367.6875)"/>
<path d="M0 0 C3.71878857 1.45517814 5.98012709 3.5992697 8.16650391 6.95361328 C10.01134508 11.4830388 9.39712607 16.57076808 9.25 21.375 C9.23195312 22.49261719 9.21390625 23.61023438 9.1953125 24.76171875 C9.14835555 27.5087003 9.08269468 30.25390047 9 33 C10.05912598 32.98428955 10.05912598 32.98428955 11.13964844 32.96826172 C14.34306266 32.9266521 17.54641996 32.90065796 20.75 32.875 C21.86117187 32.85824219 22.97234375 32.84148437 24.1171875 32.82421875 C25.72207031 32.81455078 25.72207031 32.81455078 27.359375 32.8046875 C28.34389648 32.79421387 29.32841797 32.78374023 30.34277344 32.77294922 C33.05973111 33.00510382 34.68112513 33.60963727 37 35 C37 35.66 37 36.32 37 37 C37.99 37 38.98 37 40 37 C42.33991708 40.65612044 42.37437949 43.73207376 42 48 C40.48934941 51.16517266 38.75050328 53.79959738 36 56 C32.82464491 57.03273973 29.90271058 57.11612617 26.578125 57.09765625 C25.55332031 57.09443359 24.52851562 57.09121094 23.47265625 57.08789062 C22.40917969 57.07951172 21.34570312 57.07113281 20.25 57.0625 C19.17105469 57.05798828 18.09210937 57.05347656 16.98046875 57.04882812 C14.32025617 57.03705727 11.66015635 57.02061399 9 57 C9.06137404 64.83275012 9.13859641 72.66517247 9.23571491 80.49755192 C9.28032686 84.13498251 9.31960258 87.77230347 9.34643555 91.40991211 C9.37256097 94.92442294 9.413027 98.43850981 9.46318626 101.95275688 C9.48784128 103.93724323 9.49787588 105.92189394 9.50764465 107.9065094 C9.61119734 114.29276775 9.70519204 119.43296254 13 125 C17.46189289 127.87632738 22.96011026 127.37860915 28.1171875 127.47851562 C32.56528909 127.65056484 35.45994432 128.25678342 39 131 C41.16723913 134.2508587 42.03505991 136.14103208 41.875 140.0625 C40.49269652 144.70309027 39.3004625 147.22525638 35.0625 149.75 C28.68248531 152.35408763 22.7083847 152.28800089 15.875 152.375 C14.78445312 152.41238281 13.69390625 152.44976563 12.5703125 152.48828125 C4.82540801 152.57165941 -0.4280444 151.07283993 -7 147 C-7.928125 146.443125 -8.85625 145.88625 -9.8125 145.3125 C-16.35085968 138.40051976 -18.12990951 130.13905562 -18.11352539 120.91479492 C-18.11367142 120.22156128 -18.11381744 119.52832764 -18.1139679 118.81408691 C-18.11327451 116.53618171 -18.10550915 114.25835957 -18.09765625 111.98046875 C-18.09579003 110.39577784 -18.09436709 108.81108635 -18.09336853 107.22639465 C-18.08955943 103.0655049 -18.07974292 98.90465032 -18.06866455 94.74377441 C-18.05841582 90.49390132 -18.0538635 86.24402252 -18.04882812 81.99414062 C-18.03811916 73.66274431 -18.02106211 65.33137654 -18 57 C-19.27359375 57.01289063 -20.5471875 57.02578125 -21.859375 57.0390625 C-27.33430233 57.09447674 -27.33430233 57.09447674 -30 55 C-33.66786368 50.82271081 -34.64562356 47.52679985 -34.390625 42.1171875 C-33.65273731 38.11783621 -31.38860781 36.04145586 -28.25 33.6875 C-25.94551145 32.98335072 -24.25435022 32.93036655 -21.859375 32.95703125 C-19.94898438 32.97830078 -19.94898438 32.97830078 -18 33 C-18.0314209 32.2793335 -18.0628418 31.55866699 -18.09521484 30.81616211 C-18.22060046 27.52359922 -18.29818176 24.23153936 -18.375 20.9375 C-18.45041016 19.2369043 -18.45041016 19.2369043 -18.52734375 17.50195312 C-18.69311161 8.02555721 -18.69311161 8.02555721 -15.1015625 3.75390625 C-10.55273725 -0.71820681 -6.15273038 -0.52487747 0 0 Z " fill="#AFAFB1" transform="translate(44,381)"/>
<path d="M0 0 C45.21 0 90.42 0 137 0 C137 46.2 137 92.4 137 140 C136.67 140 136.34 140 136 140 C135.91024902 139.4330542 135.82049805 138.8661084 135.72802734 138.28198242 C130.84629418 108.07055907 120.80311236 80.47221553 102 56 C101.31164062 55.09378906 100.62328125 54.18757813 99.9140625 53.25390625 C77.52815877 24.76642948 42.12871884 6.24550027 6.42431641 1.66992188 C4.28459313 1.43073452 2.14247056 1.21318115 0 1 C0 0.67 0 0.34 0 0 Z " fill="#FCFEFE" transform="translate(663,0)"/>
<path d="M0 0 C3.86610227 1.31611992 5.30648672 3.17749588 7.25 6.625 C9.25851918 10.9821908 9.77980219 15.24372727 10 20 C10.31710938 19.45472656 10.63421875 18.90945313 10.9609375 18.34765625 C15.67001658 10.73768039 22.11588519 2.64917881 31 0 C35.99971868 -0.59445967 41.49402308 -1.18680146 46.14453125 1.015625 C48.73823749 3.1107843 49.94559017 4.83677052 51 8 C51.77536389 18.63871388 51.77536389 18.63871388 49 23 C45.42222154 25.4866829 42.17170234 26.62572957 37.9375 27.5625 C34.29868764 28.37469393 31.31713341 29.33786649 28 31 C27.01 31 26.02 31 25 31 C25 31.66 25 32.32 25 33 C23.81683722 33.94893259 22.6019989 34.85847271 21.375 35.75 C14.66899706 41.39590656 11.43338867 50.50631329 10 59 C9.9056883 60.64967277 9.85508889 62.30227298 9.84228516 63.95458984 C9.82689194 65.39165787 9.82689194 65.39165787 9.81118774 66.85775757 C9.80388641 67.88180695 9.79658508 68.90585632 9.7890625 69.9609375 C9.76099762 72.14584087 9.73233319 74.33073661 9.703125 76.515625 C9.66187071 79.94758926 9.62496616 83.37941038 9.59863281 86.81152344 C9.57096631 90.13245753 9.52510127 93.45275153 9.4765625 96.7734375 C9.47330963 97.79343842 9.47005676 98.81343933 9.46670532 99.86434937 C9.34583414 106.90037491 8.74683089 112.25316911 3.5625 117.4375 C-1.63778068 119.71832486 -6.40774469 119.76864098 -12 119 C-15.48391177 117.18836588 -16.55648191 116.02425547 -18.09902954 112.46191406 C-19.26296305 107.98958341 -19.29514129 103.83662801 -19.29052734 99.234375 C-19.29724457 98.26777954 -19.30396179 97.30118408 -19.31088257 96.30529785 C-19.32983203 93.12014586 -19.33378483 89.9352048 -19.3359375 86.75 C-19.34236608 84.5309236 -19.34909448 82.31184806 -19.35610962 80.09277344 C-19.36807369 75.44594354 -19.37179118 70.79918796 -19.37060547 66.15234375 C-19.370402 60.20038558 -19.3977376 54.24890337 -19.43214989 48.29705811 C-19.45439061 43.71596082 -19.45844392 39.13497876 -19.45738602 34.55383301 C-19.45974494 32.35939896 -19.46858482 30.16496187 -19.48405075 27.97058105 C-19.50365885 24.90192281 -19.4978933 21.83430012 -19.48583984 18.765625 C-19.49707886 17.86154907 -19.50831787 16.95747314 -19.51989746 16.02600098 C-19.46490698 10.51322205 -18.65697726 7.38582977 -15 3 C-10.62416455 -1.24160737 -5.75238526 -0.5992068 0 0 Z " fill="#B0AFB1" transform="translate(118,413)"/>
<path d="M0 0 C4.53191176 4.08977402 5.91732051 7.57023324 6.25 13.625 C6.31574219 14.69363281 6.38148438 15.76226562 6.44921875 16.86328125 C6.48660156 17.67152344 6.52398438 18.47976563 6.5625 19.3125 C6.93761719 18.73242188 7.31273437 18.15234375 7.69921875 17.5546875 C13.0945973 9.31892075 18.05962258 2.00380588 27.5625 -1.6875 C38.0761612 -2.9306694 38.0761612 -2.9306694 42.5625 -0.6875 C42.5625 -0.0275 42.5625 0.6325 42.5625 1.3125 C43.2225 1.3125 43.8825 1.3125 44.5625 1.3125 C44.5625 1.9725 44.5625 2.6325 44.5625 3.3125 C45.2225 3.3125 45.8825 3.3125 46.5625 3.3125 C47.88785337 5.96320674 47.84176609 8.10211296 47.9375 11.0625 C47.98648438 12.08859375 48.03546875 13.1146875 48.0859375 14.171875 C47.40591749 18.25199504 45.69619629 20.7300204 42.5625 23.3125 C40.0107435 24.45258633 37.84022077 25.27822557 35.1875 26 C25.36187976 28.43415699 25.36187976 28.43415699 17.5625 34.3125 C17.2325 35.3025 16.9025 36.2925 16.5625 37.3125 C15.9025 37.3125 15.2425 37.3125 14.5625 37.3125 C13.10135019 40.16304673 11.78333874 43.03851226 10.5625 46 C10.2325 46.78761719 9.9025 47.57523437 9.5625 48.38671875 C6.95616811 56.01227573 6.2807236 63.20007448 6.2890625 71.2265625 C6.26878735 73.30729718 6.24793685 75.38802632 6.2265625 77.46875 C6.20393086 80.71196221 6.18746864 83.95495447 6.18164062 87.19824219 C6.17210401 90.35390762 6.13833447 93.50861314 6.1015625 96.6640625 C6.10660797 97.62776764 6.11165344 98.59147278 6.11685181 99.5843811 C6.01309897 106.71386357 4.29933355 110.38889792 0.23828125 116.2109375 C-2.49066705 118.00479163 -5.03087775 117.86207861 -8.25 117.9375 C-9.45269531 117.99164062 -10.65539062 118.04578125 -11.89453125 118.1015625 C-16.20433756 117.14171589 -17.47052538 115.8128419 -20.17660141 112.4730854 C-22.48678833 108.51451476 -22.25516749 104.54706481 -22.18212891 100.06616211 C-22.18943024 99.06040634 -22.19673157 98.05465057 -22.20425415 97.01841736 C-22.22040957 93.70819644 -22.19329831 90.39995098 -22.1640625 87.08984375 C-22.16302467 84.78251649 -22.16406249 82.47518745 -22.16708374 80.16786194 C-22.16690455 75.33844511 -22.14609803 70.50969781 -22.10986328 65.68041992 C-22.06446329 59.49411189 -22.06340769 53.30878048 -22.07689857 47.12235165 C-22.08358501 42.36018716 -22.07030569 37.59824484 -22.05064011 32.83612251 C-22.04294954 30.55519333 -22.04063411 28.27423942 -22.0438118 25.99329948 C-22.04455457 22.80486929 -22.01927623 19.61768596 -21.98681641 16.42944336 C-21.99177124 15.48953552 -21.99672607 14.54962769 -22.00183105 13.58123779 C-21.90907617 7.86520979 -21.17516675 4.70362315 -17.4375 0.3125 C-12.25640338 -3.28721773 -5.41917894 -2.66032421 0 0 Z " fill="#AFAFB1" transform="translate(745.4375,414.6875)"/>
<path d="M0 0 C0.68356983 8.70412256 -0.08794322 15.60795357 -5 23 C-10.78700292 29.29762082 -19.19184017 32.53180938 -27.5703125 33.34765625 C-37.29415287 33.58507486 -43.30619992 32.14980747 -50.5546875 25.53515625 C-53.48057376 22.42739058 -53.92667491 19.79191094 -54.3125 15.625 C-53.84560293 10.20899403 -52.18693059 6.49214132 -48.8125 2.25 C-45.40515789 -0.47587368 -42.15069902 -1.77872077 -38 -3 C-37.40574219 -3.18433594 -36.81148437 -3.36867188 -36.19921875 -3.55859375 C-23.98140113 -6.01083778 -11.7920208 -3.05719058 0 0 Z " fill="#FDFDFD" transform="translate(252,481)"/>
<path d="M0 0 C0.99 0.66 1.98 1.32 3 2 C3 2.66 3 3.32 3 4 C3.556875 4.185625 4.11375 4.37125 4.6875 4.5625 C12.13375473 9.19125294 13.99883443 18.00651742 16 26 C16 26.66 16 27.32 16 28 C-3.47 28 -22.94 28 -43 28 C-41.72962955 17.83703638 -38.86725287 10.73455352 -31.30078125 3.6953125 C-21.94062904 -3.20164176 -10.74579965 -3.49562157 0 0 Z " fill="#FDFDFD" transform="translate(663,436)"/>
<path d="M0 0 C1.72751057 -0.00489262 3.45501786 -0.01108415 5.18251961 -0.01845789 C9.91632696 -0.03483339 14.6499675 -0.03254434 19.38379323 -0.02708292 C24.49436247 -0.02440978 29.60488754 -0.03894986 34.71543884 -0.05117798 C44.72263168 -0.07222214 54.72976657 -0.07677341 64.73697893 -0.07499009 C72.8721572 -0.07368196 81.00731742 -0.07748924 89.14249229 -0.08491516 C91.48671458 -0.08701438 93.83093687 -0.08911198 96.17515916 -0.09120798 C97.34198238 -0.09225151 98.50880561 -0.09329504 99.71098711 -0.09437019 C121.77390104 -0.11326847 143.8367817 -0.11222362 165.89970037 -0.10540086 C186.07633596 -0.0998257 206.25284457 -0.12065048 226.42945049 -0.15376133 C247.15423173 -0.1875074 267.87895215 -0.20266551 288.60376137 -0.1980443 C300.23616571 -0.19580055 311.86845267 -0.20102914 323.50083351 -0.22593689 C333.40406151 -0.24696179 343.30710779 -0.25053009 353.21034328 -0.2316373 C358.26100375 -0.22248691 363.31132549 -0.22131528 368.36195946 -0.24199295 C372.99034889 -0.26073202 377.61812285 -0.25616659 382.24648907 -0.23344713 C383.9160062 -0.22926879 385.5855708 -0.23343553 387.2550377 -0.24704307 C396.88997517 -0.32019404 405.6197345 0.16815705 414.09159851 5.39440918 C414.75159851 6.38440918 415.41159851 7.37440918 416.09159851 8.39440918 C414.77159851 8.39440918 413.45159851 8.39440918 412.09159851 8.39440918 C411.76159851 7.73440918 411.43159851 7.07440918 411.09159851 6.39440918 C402.72086494 2.57594684 394.26770574 2.97689458 385.26776123 3.02018738 C383.54962447 3.01744477 381.83148938 3.01339096 380.11335844 3.00814372 C375.40583444 2.99757828 370.69850092 3.0056719 365.99098527 3.01689422 C360.90924984 3.02574745 355.82753903 3.01728965 350.74580383 3.0110321 C340.79810162 3.00155006 330.850472 3.00813797 320.90277518 3.02029505 C309.32421846 3.03391836 297.74567903 3.03227701 286.16711634 3.03016172 C265.51652191 3.02697295 244.865962 3.03863504 224.21537781 3.05822754 C204.16198171 3.07724852 184.10862603 3.08431045 164.05522156 3.07873535 C142.22428091 3.07268405 120.39335804 3.07284138 98.56241888 3.08422118 C96.2370923 3.08542851 93.91176572 3.08663449 91.58643913 3.08783913 C89.87018496 3.08874443 89.87018496 3.08874443 88.11925899 3.08966803 C80.04093037 3.09355375 71.96260835 3.0931511 63.88427925 3.09125328 C54.05034405 3.08913612 44.21644432 3.09431941 34.38251913 3.10886683 C29.36155735 3.11613311 24.34064736 3.12016884 19.31968117 3.11562347 C14.73022883 3.1115696 10.14088379 3.11664768 5.5514478 3.12924955 C3.88480378 3.13219565 2.21814975 3.13171832 0.5515082 3.12760647 C-1.70120417 3.12255016 -3.95355041 3.12961896 -6.20623684 3.13993359 C-7.46127024 3.14080036 -8.71630364 3.14166714 -10.00936836 3.14256018 C-13.03509603 3.09226691 -13.03509603 3.09226691 -14.90840149 5.39440918 C-17.00215149 5.66003418 -17.00215149 5.66003418 -19.40840149 5.64440918 C-20.20246399 5.64956543 -20.99652649 5.65472168 -21.81465149 5.66003418 C-23.90840149 5.39440918 -23.90840149 5.39440918 -25.90840149 3.39440918 C-17.37523905 -0.26187139 -9.10140141 -0.03189897 0 0 Z " fill="#5A86AE" transform="translate(45.90840148925781,2.6055908203125)"/>
<path d="M0 0 C2.2477975 2.05233685 3.0022242 3.00667261 4 6 C4.99 6 5.98 6 7 6 C6.96519531 6.76183594 6.93039063 7.52367187 6.89453125 8.30859375 C6.74026917 14.19259026 6.95421707 19.02908164 9.08203125 24.5234375 C10.23549033 27.63532284 11.0698911 30.79704858 11.9375 34 C13.49129505 39.49483844 15.07692382 45.05042143 18 50 C18.66 50.33 19.32 50.66 20 51 C20.4921875 52.86328125 20.4921875 52.86328125 20.875 55.3125 C22.53025651 64.39054743 25.90612373 72.96061551 29.265625 81.52734375 C30.04216124 84.14195779 30.13584047 86.28804207 30 89 C27.42092965 86.42092965 26.81342577 84.06826568 25.609375 80.62109375 C25.38440842 79.9822374 25.15944183 79.34338104 24.92765808 78.68516541 C24.19635748 76.60446375 23.47314163 74.52104977 22.75 72.4375 C22.24605825 70.99867348 21.74158078 69.56003448 21.23657227 68.12158203 C20.2507543 65.31136264 19.26779999 62.5001712 18.28759766 59.68798828 C17.0673156 56.192808 15.83427645 52.70257136 14.59155273 49.21533203 C13.92491559 47.3395908 13.26634531 45.46117865 12.609375 43.58203125 C11.68303268 40.93276672 10.74509678 38.28823976 9.79882812 35.64599609 C8.65071477 32.43869393 7.51136733 29.22862467 6.37918091 26.01568604 C5.70631889 24.11564126 5.02214102 22.21961567 4.33764648 20.32373047 C1.94814006 13.51305998 0.23060905 7.23653277 0 0 Z " fill="#4B6BA1" transform="translate(1,42)"/>
<path d="M0 0 C0.68707979 -0.00170885 1.37415959 -0.0034177 2.08205998 -0.00517833 C4.37139385 -0.00845783 6.66043094 0.00250476 8.94973755 0.01345825 C10.59592176 0.0140227 12.24210648 0.01370515 13.88829041 0.01257324 C18.34858094 0.01200004 22.80876364 0.02374913 27.26902914 0.03772116 C31.93351792 0.05023389 36.59800924 0.05139945 41.26251221 0.05377197 C50.09153685 0.05998514 58.92051189 0.07639377 67.7495147 0.09647095 C77.80265996 0.11883502 87.8558076 0.12982466 97.90897155 0.13986182 C118.58551106 0.16076012 139.26200595 0.19593295 159.93850708 0.24050903 C159.93850708 0.57050903 159.93850708 0.90050903 159.93850708 1.24050903 C159.1157535 1.24381918 158.29299992 1.24712933 157.44531441 1.25053978 C137.4494494 1.33166999 117.45366096 1.42372938 97.45790291 1.52803612 C87.78820511 1.57821246 78.11851602 1.62465469 68.44876099 1.66238403 C60.02311303 1.69526852 51.59753157 1.7350799 43.1719569 1.78329909 C38.70841233 1.80859946 34.24491206 1.83037017 29.78131485 1.843853 C25.58378272 1.85664141 21.38640225 1.87866055 17.1889534 1.90789223 C15.64498021 1.91699332 14.10098259 1.9226641 12.55698395 1.92472267 C10.45556005 1.92802748 8.35457088 1.94345545 6.25323486 1.96203613 C5.07518343 1.96756689 3.897132 1.97309765 2.68338203 1.97879601 C-0.20581552 1.960299 -0.20581552 1.960299 -2.06149292 4.24050903 C-4.15524292 4.50613403 -4.15524292 4.50613403 -6.56149292 4.49050903 C-7.35555542 4.49566528 -8.14961792 4.50082153 -8.96774292 4.50613403 C-11.06149292 4.24050903 -11.06149292 4.24050903 -13.06149292 2.24050903 C-8.5500319 0.50379868 -4.82312729 -0.00725282 0 0 Z " fill="#3B669F" transform="translate(33.061492919921875,3.759490966796875)"/>
<path d="M0 0 C2.56616632 3.84924948 2.55097676 6.4349304 3 11 C5.475 11.99 5.475 11.99 8 13 C7.79375 13.61875 7.5875 14.2375 7.375 14.875 C7.25125 15.57625 7.1275 16.2775 7 17 C7.66 17.66 8.32 18.32 9 19 C9.52734375 20.8828125 9.52734375 20.8828125 9.9375 23.125 C11.15373366 29.07209532 13.09800436 34.64246959 16 40 C16.99 40 17.98 40 19 40 C19.19916016 41.53720703 19.19916016 41.53720703 19.40234375 43.10546875 C19.58064088 44.4661574 19.75903123 45.82683385 19.9375 47.1875 C20.02451172 47.86103516 20.11152344 48.53457031 20.20117188 49.22851562 C20.67825477 52.85081166 21.23012035 56.42803585 22 60 C22.66 60 23.32 60 24 60 C24.33 64.29 24.66 68.58 25 73 C22.77935414 69.66903121 21.60440676 66.31539235 20.32421875 62.5625 C19.78886208 61.01931832 19.2528657 59.47635845 18.71630859 57.93359375 C18.43607849 57.12519043 18.15584839 56.31678711 17.86712646 55.48388672 C16.42540694 51.35407623 14.94076737 47.23986263 13.45703125 43.125 C12.85218473 41.44402078 12.24736718 39.76303114 11.64257812 38.08203125 C10.72151831 35.52377837 9.80011895 32.96564881 8.87817383 30.40771484 C7.96603501 27.87630836 7.05520582 25.34443355 6.14453125 22.8125 C5.87260452 22.0592041 5.6006778 21.3059082 5.32051086 20.52978516 C3.95916243 16.7425266 2.62045453 12.94759146 1.31518555 9.140625 C1.06729782 8.42036133 0.8194101 7.70009766 0.56401062 6.95800781 C-0.11967086 4.58455306 -0.23759175 2.45511473 0 0 Z " fill="#4E6FA4" transform="translate(43,164)"/>
<path d="M0 0 C6.95143535 0.39722488 13.36470325 0.87670504 20 3 C26.12710615 4.13761909 32.14793052 4.14500486 38.3671875 4.1328125 C39.98018234 4.13424759 39.98018234 4.13424759 41.62576294 4.13571167 C43.88657693 4.13638958 46.14739291 4.13456256 48.40820312 4.13037109 C51.88415832 4.12498581 55.35998614 4.13034536 58.8359375 4.13671875 C61.03385445 4.13605852 63.23177133 4.13477849 65.4296875 4.1328125 C66.47438202 4.13483673 67.51907654 4.13686096 68.59542847 4.13894653 C70.03294968 4.13421829 70.03294968 4.13421829 71.49951172 4.12939453 C72.34665741 4.12859894 73.1938031 4.12780334 74.06661987 4.12698364 C76.00685355 4.21289441 76.00685355 4.21289441 77 3 C78.34015221 2.84417697 79.68758903 2.74955858 81.03515625 2.68359375 C81.84404297 2.64169922 82.65292969 2.59980469 83.48632812 2.55664062 C84.7615332 2.49766602 84.7615332 2.49766602 86.0625 2.4375 C87.34350586 2.37272461 87.34350586 2.37272461 88.65039062 2.30664062 C90.76672037 2.20023298 92.88333813 2.09958269 95 2 C83.72700212 9.51533192 63.92446077 7.55664908 50.875 7.5 C49.89629944 7.49989929 48.91759888 7.49979858 47.90924072 7.49969482 C11.13810546 7.42540364 11.13810546 7.42540364 0 0 Z " fill="#4990AB" transform="translate(604,330)"/>
<path d="M0 0 C0.66 0 1.32 0 2 0 C1.31502781 4.02216044 0.12105546 7.66432967 -1.29296875 11.48828125 C-1.63274498 12.41222939 -1.63274498 12.41222939 -1.97938538 13.35484314 C-2.71140527 15.34224083 -3.44892091 17.32753134 -4.1875 19.3125 C-4.69444571 20.67867021 -5.20128136 22.04488126 -5.70800781 23.41113281 C-6.45817392 25.43363147 -7.20864975 27.45600808 -7.96084595 29.47775269 C-9.28190003 33.03455698 -10.57333995 36.59881749 -11.81640625 40.18359375 C-15.53805348 50.82923583 -20.49253879 59.48177847 -29 67 C-29.66 67 -30.32 67 -31 67 C-31 66.34 -31 65.68 -31 65 C-30.34 65 -29.68 65 -29 65 C-29.103125 64.278125 -29.20625 63.55625 -29.3125 62.8125 C-28.86783051 58.81047462 -27.01983019 57.53940266 -24 55 C-23.33613281 54.70996094 -22.67226563 54.41992188 -21.98828125 54.12109375 C-17.95617029 51.84758521 -16.57170715 47.16475934 -15 43 C-14.12457519 39.34656048 -13.39958122 35.70791227 -12.7734375 32.00390625 C-12 29 -12 29 -10.56567383 27.63134766 C-8.5529716 25.53422052 -8.02479333 23.66583482 -7.17578125 20.89453125 C-6.86962891 19.91162109 -6.56347656 18.92871094 -6.24804688 17.91601562 C-5.93931641 16.89185547 -5.63058594 15.86769531 -5.3125 14.8125 C-4.99216797 13.77673828 -4.67183594 12.74097656 -4.34179688 11.67382812 C-3.55277592 9.11834233 -2.77255698 6.56050175 -2 4 C-1.34 4 -0.68 4 0 4 C0 2.68 0 1.36 0 0 Z " fill="#5086AE" transform="translate(397,261)"/>
<path d="M0 0 C33.66 0.495 33.66 0.495 68 1 C68 1.66 68 2.32 68 3 C45.23 3 22.46 3 -1 3 C-0.67 2.01 -0.34 1.02 0 0 Z " fill="#BABABA" transform="translate(621,480)"/>
<path d="M0 0 C16.81556576 -0.69741978 33.23510248 3.50477738 49 9 C49.68167236 9.23686523 50.36334473 9.47373047 51.06567383 9.71777344 C55.91225174 11.46465101 60.42545909 13.63104131 65 16 C64.34 16.66 63.68 17.32 63 18 C60.36 17.01 57.72 16.02 55 15 C55 14.34 55 13.68 55 13 C54.38511719 12.95101563 53.77023437 12.90203125 53.13671875 12.8515625 C52.32847656 12.77679688 51.52023437 12.70203125 50.6875 12.625 C49.88699219 12.55539062 49.08648438 12.48578125 48.26171875 12.4140625 C46 12 46 12 43 10 C38.92837896 8.10806302 34.76363954 7.24751257 30.375 6.4375 C23.34007761 5.1133592 23.34007761 5.1133592 20 4 C17.94106379 3.77674186 15.87766347 3.59294241 13.8125 3.4375 C12.18248047 3.31181641 12.18248047 3.31181641 10.51953125 3.18359375 C9.68808594 3.12300781 8.85664062 3.06242188 8 3 C8 2.34 8 1.68 8 1 C5.36 1 2.72 1 0 1 C0 0.67 0 0.34 0 0 Z " fill="#569DB5" transform="translate(653,0)"/>
<path d="M0 0 C0.77601563 0.38671875 1.55203125 0.7734375 2.3515625 1.171875 C14.90130253 7.22210766 27.42842346 11.19339574 41.4609375 11.09765625 C42.25150543 11.0962413 43.04207336 11.09482635 43.8565979 11.09336853 C46.36277166 11.08780504 48.86885358 11.07525944 51.375 11.0625 C53.08202995 11.05748028 54.78906132 11.0529182 56.49609375 11.04882812 C60.66409748 11.03784759 64.83203321 11.02060839 69 11 C69 11.66 69 12.32 69 13 C51.4542371 15.33943505 34.38840721 13.8132707 17 11 C17 10.34 17 9.68 17 9 C16.443125 8.91363281 15.88625 8.82726562 15.3125 8.73828125 C9.50154391 7.66835859 4.56018767 5.87678079 0 2 C0 1.34 0 0.68 0 0 Z " fill="#64A1BB" transform="translate(607,264)"/>
<path d="M0 0 C5.20765524 5.20765524 4.43290729 12.11859037 4.44042969 18.98779297 C4.26865165 27.65946048 2.13125825 34.98005365 -1 43 C-1.38027344 44.02480469 -1.76054687 45.04960938 -2.15234375 46.10546875 C-3.53186804 49.71305491 -4.84981159 52.77471739 -7 56 C-6.91291962 53.89505699 -6.80474307 51.79097858 -6.6875 49.6875 C-6.62949219 48.51574219 -6.57148438 47.34398437 -6.51171875 46.13671875 C-5.94627504 42.6706783 -5.46542879 42.24789096 -3 40 C2.38103668 27.78018761 2.59040076 12.97306396 0 0 Z " fill="#508AB0" transform="translate(471,21)"/>
<path d="M0 0 C0.66 0 1.32 0 2 0 C4 3 4 3 4 7 C4.66 7 5.32 7 6 7 C6.15855469 7.65484375 6.31710938 8.3096875 6.48046875 8.984375 C8.12245025 15.40715346 10.27417681 21.38901327 12.9140625 27.46875 C14 30 14 30 15 33 C16.485 32.505 16.485 32.505 18 32 C17.34 33.98 16.68 35.96 16 38 C7.20017149 27.62546534 4.12830478 12.73386078 0 0 Z " fill="#476DA3" transform="translate(83,281)"/>
<path d="M0 0 C8.43256745 -0.09308658 16.86491667 -0.16395923 25.29787254 -0.20724869 C29.21455539 -0.22803592 33.13088415 -0.25618872 37.04736328 -0.30175781 C40.83401546 -0.34553565 44.62032921 -0.3692036 48.40721512 -0.37950897 C49.84478704 -0.38684359 51.28234251 -0.40116499 52.71976852 -0.42292023 C60.94101455 -0.54228698 68.80150481 -0.51339431 76 4 C76.99 5.485 76.99 5.485 78 7 C76.68 7 75.36 7 74 7 C73.505 6.01 73.505 6.01 73 5 C65.13964171 1.55293784 57.59421625 1.52639426 49.12109375 1.48828125 C47.69904561 1.47140541 46.27701212 1.45325133 44.85499573 1.43388367 C41.14139385 1.38669209 37.4278514 1.35668462 33.71405029 1.33044434 C29.91276315 1.30048164 26.11168021 1.25400598 22.31054688 1.20898438 C14.87379994 1.12330302 7.43703758 1.05580305 0 1 C0 0.67 0 0.34 0 0 Z " fill="#3E7DA8" transform="translate(384,4)"/>
<path d="M0 0 C1.30774189 2.51488825 2.3653194 4.96311477 3.375 7.625 C4.59630127 11.07775586 4.59630127 11.07775586 7.05078125 11.9453125 C9 13 9 13 9.64453125 14.953125 C9.97641936 19.49150192 10.03462819 23.51661117 9 28 C5.53080722 23.71063814 4.0412178 19.15988667 2.25 14 C1.92128906 13.09765625 1.59257813 12.1953125 1.25390625 11.265625 C0.94839844 10.39421875 0.64289063 9.5228125 0.328125 8.625 C0.0487207 7.83351562 -0.23068359 7.04203125 -0.51855469 6.2265625 C-1.04934772 3.77177931 -0.80192416 2.35338547 0 0 Z " fill="#436CA5" transform="translate(69,236)"/>
<path d="M0 0 C1 2 1 2 0.29077148 4.52758789 C-0.09522217 5.58196045 -0.48121582 6.63633301 -0.87890625 7.72265625 C-1.51530029 9.47980957 -1.51530029 9.47980957 -2.16455078 11.27246094 C-2.63042596 12.53584708 -3.09641099 13.79919273 -3.5625 15.0625 C-4.02666664 16.33727855 -4.49004457 17.61234456 -4.95263672 18.88769531 C-5.8714832 21.41924822 -6.79361066 23.94956571 -7.71826172 26.47900391 C-9.38529737 31.05843024 -11.01170488 35.65142165 -12.625 40.25 C-13.09630227 41.58855994 -13.56764999 42.92710388 -14.0390625 44.265625 C-14.35617187 45.16796875 -14.67328125 46.0703125 -15 47 C-15.33 47 -15.66 47 -16 47 C-15.85915204 45.20793453 -15.71216299 43.41635083 -15.5625 41.625 C-15.48128906 40.62726563 -15.40007812 39.62953125 -15.31640625 38.6015625 C-15 36 -15 36 -14 34 C-13.34 34 -12.68 34 -12 34 C-11.82984375 33.33355469 -11.6596875 32.66710937 -11.484375 31.98046875 C-10.16610275 26.96682695 -8.71735877 22.09795866 -6.875 17.25 C-5.65989097 14.04320849 -4.94379645 11.56442246 -4.5 8.125 C-3.90453201 4.40332504 -2.54810683 2.71250082 0 0 Z " fill="#518AAF" transform="translate(443,134)"/>
<path d="M0 0 C3.44225003 2.68278512 4.07178992 5.89623879 5.1875 10 C5.53167969 11.2375 5.87585938 12.475 6.23046875 13.75 C7 17 7 17 7 20 C7.66 20 8.32 20 9 20 C9.45572917 22.01822917 9.91145833 24.03645833 10.3671875 26.0546875 C10.90474428 28.20719964 10.90474428 28.20719964 13 30 C13.4140625 32.8203125 13.4140625 32.8203125 13.625 36.125 C13.69976562 37.22070312 13.77453125 38.31640625 13.8515625 39.4453125 C13.90054687 40.28835938 13.94953125 41.13140625 14 42 C11.40378263 39.40378263 10.81651063 36.62012531 9.8125 33.1875 C7.4604806 25.37084304 4.89112196 17.63932038 2.2355957 9.9206543 C1.94515381 9.06383057 1.65471191 8.20700684 1.35546875 7.32421875 C1.09403076 6.56197998 0.83259277 5.79974121 0.56323242 5.0144043 C0 3 0 3 0 0 Z " fill="#4D80AC" transform="translate(288,264)"/>
<path d="M0 0 C0 0.33 0 0.66 0 1 C-8.49224034 3.04335476 -16.97523615 4.51109226 -25.625 5.6875 C-26.58486816 5.81874268 -27.54473633 5.94998535 -28.53369141 6.08520508 C-32.41719642 6.59825718 -36.07221057 7 -40 7 C-40 6.01 -40 5.02 -40 4 C-34.72 4 -29.44 4 -24 4 C-24 3.34 -24 2.68 -24 2 C-23.34773437 1.93941406 -22.69546875 1.87882813 -22.0234375 1.81640625 C-16.4289661 1.28083804 -16.4289661 1.28083804 -10.875 0.4375 C-7.2041017 -0.12111496 -3.71175864 -0.06399584 0 0 Z " fill="#569CB5" transform="translate(712,211)"/>
<path d="M0 0 C-3.11910856 1.79275866 -5.67682428 2.34290718 -9.25 2.625 C-10.14203125 2.69976562 -11.0340625 2.77453125 -11.953125 2.8515625 C-12.62859375 2.90054687 -13.3040625 2.94953125 -14 3 C-14 3.66 -14 4.32 -14 5 C-19.28 5 -24.56 5 -30 5 C-30 4.34 -30 3.68 -30 3 C-19.75430906 0.31050613 -10.51936424 -0.36886082 0 0 Z " fill="#4D96B5" transform="translate(638,1)"/>
<path d="M0 0 C1.95849609 0.85498047 1.95849609 0.85498047 4 2 C4.6640625 4.3203125 4.6640625 4.3203125 5 7 C6.56175258 12.8518681 8.33449231 18.55309297 11 24 C11.66 24.33 12.32 24.66 13 25 C13 26.65 13 28.3 13 30 C9.86052752 27.90701835 9.41768553 27.2659468 8.02734375 23.96484375 C7.68509766 23.15466797 7.34285156 22.34449219 6.99023438 21.50976562 C6.64283203 20.66091797 6.29542969 19.81207031 5.9375 18.9375 C5.58623047 18.11572266 5.23496094 17.29394531 4.87304688 16.44726562 C2.61411221 11.01984414 1.12160036 5.77072102 0 0 Z " fill="#488BB0" transform="translate(497,224)"/>
<path d="M0 0 C0.33 0.33 0.66 0.66 1 1 C2.52607589 1.0990473 4.05665207 1.13079611 5.5859375 1.1328125 C6.98199219 1.13474609 6.98199219 1.13474609 8.40625 1.13671875 C9.3859375 1.13285156 10.365625 1.12898438 11.375 1.125 C12.83292969 1.13080078 12.83292969 1.13080078 14.3203125 1.13671875 C15.25359375 1.13542969 16.186875 1.13414062 17.1484375 1.1328125 C18.00614746 1.13168457 18.86385742 1.13055664 19.74755859 1.12939453 C22.16944935 1.08868276 22.16944935 1.08868276 25 0 C25 0.66 25 1.32 25 2 C19.51027772 4.47928912 14.62290879 4.33127106 8.6875 4.3125 C7.68009766 4.32861328 6.67269531 4.34472656 5.63476562 4.36132812 C-0.62872761 4.36540858 -5.28579004 3.58743796 -11 1 C-10.38253906 0.84789062 -9.76507813 0.69578125 -9.12890625 0.5390625 C-7.72325215 0.18313541 -6.32520107 -0.20448452 -4.9375 -0.625 C-3 -1 -3 -1 0 0 Z " fill="#3E79A5" transform="translate(333,331)"/>
<path d="M0 0 C3.12188963 3.12188963 2.32541128 6.9444023 2.3359375 11.13671875 C2.3425943 12.04952103 2.3492511 12.9623233 2.35610962 13.90278625 C2.36624931 15.83873477 2.37092623 17.77471832 2.37060547 19.71069336 C2.37495739 22.65863706 2.41120333 25.6050579 2.44921875 28.55273438 C2.45509106 30.43489073 2.45905768 32.31705418 2.4609375 34.19921875 C2.47530853 35.07551437 2.48967957 35.95181 2.50448608 36.85466003 C2.46110122 42.73416096 1.3227897 46.13269336 -2 51 C-2.6875 49.3125 -2.6875 49.3125 -3 47 C-2.27623169 45.99030151 -2.27623169 45.99030151 -1.5378418 44.96020508 C0.65774424 40.73390238 0.37432422 37.01566453 0.29296875 32.32421875 C0.28872391 31.3990596 0.28447906 30.47390045 0.28010559 29.52070618 C0.26335993 26.5760037 0.22571522 23.6319944 0.1875 20.6875 C0.17244785 18.68685887 0.15876037 16.68620697 0.14648438 14.68554688 C0.11346983 9.79009893 0.06171575 4.89516685 0 0 Z " fill="#B7B7B9" transform="translate(749,478)"/>
<path d="M0 0 C0.66 0.33 1.32 0.66 2 1 C1.67 2.65 1.34 4.3 1 6 C-0.32 6 -1.64 6 -3 6 C-5.56771603 9.30134918 -6 10.72874492 -6 15 C-6.66 15 -7.32 15 -8 15 C-7.67 17.64 -7.34 20.28 -7 23 C-8.32 23.33 -9.64 23.66 -11 24 C-11.43758232 17.14454367 -10.5625516 11.04271413 -6.01953125 5.6484375 C-4.06690383 3.6923541 -2.08302066 1.81583986 0 0 Z " fill="#3A60AA" transform="translate(14,9)"/>
<path d="M0 0 C-0.33 0.99 -0.66 1.98 -1 3 C-2.32 3 -3.64 3 -5 3 C-5 3.66 -5 4.32 -5 5 C-6.65 5.33 -8.3 5.66 -10 6 C-10.33 6.99 -10.66 7.98 -11 9 C-15.99367864 9.7282448 -20.99109914 10.38487182 -26 11 C-26 11.66 -26 12.32 -26 13 C-29.3 13 -32.6 13 -36 13 C-36 12.67 -36 12.34 -36 12 C-35.09121094 11.78085937 -34.18242188 11.56171875 -33.24609375 11.3359375 C-23.05065263 8.76354928 -13.09468686 5.63768324 -3.69921875 0.8203125 C-2 0 -2 0 0 0 Z " fill="#5B9EB7" transform="translate(714,262)"/>
<path d="M0 0 C2.74480356 2.74480356 3.62310048 5.96921002 4.875 9.5625 C5.13676025 10.31104248 5.39852051 11.05958496 5.66821289 11.83081055 C7.5172959 17.26472321 9.08924633 22.73375027 10.4375 28.3125 C10.6132959 29.022854 10.7890918 29.73320801 10.97021484 30.46508789 C11.76171849 33.92093128 12.32345551 36.635136 11 40 C9.64560332 37.29120665 9.93498549 34.99066732 10 32 C9.34 32 8.68 32 8 32 C7.89453857 31.45061768 7.78907715 30.90123535 7.68041992 30.33520508 C7.19278158 27.82557422 6.69029013 25.31913732 6.1875 22.8125 C6.02185547 21.94818359 5.85621094 21.08386719 5.68554688 20.19335938 C4.7342571 15.50870593 3.63906686 12.04656918 1 8 C0.38580992 5.31350447 0.23386275 2.75958041 0 0 Z " fill="#71ACBE" transform="translate(786,92)"/>
<path d="M0 0 C0.9010928 2.96394572 1.02672515 5.1426635 0.546875 8.1953125 C0.42368896 8.98953613 0.30050293 9.78375977 0.17358398 10.60205078 C0.03380127 11.43462402 -0.10598145 12.26719727 -0.25 13.125 C-0.38913818 13.97433105 -0.52827637 14.82366211 -0.67163086 15.69873047 C-2.80441333 28.24097969 -2.80441333 28.24097969 -5 33 C-5.99 33.495 -5.99 33.495 -7 34 C-6.70715491 27.22063622 -5.62475645 20.77282507 -4.0625 14.1875 C-3.89266602 13.47086182 -3.72283203 12.75422363 -3.54785156 12.01586914 C-2.55097181 7.93673214 -1.38887599 3.96732737 0 0 Z " fill="#548EB0" transform="translate(497,111)"/>
<path d="M0 0 C-8.87473376 3.2690475 -17.76035802 6.3377714 -26.875 8.875 C-28.02427979 9.19730591 -28.02427979 9.19730591 -29.19677734 9.52612305 C-32.21524017 10.34813638 -34.85698463 11 -38 11 C-38 10.34 -38 9.68 -38 9 C-35.31547973 7.32217483 -32.97082759 6.7864842 -29.875 6.4375 C-26.21099576 6.24884956 -26.21099576 6.24884956 -24 5 C-22.00039988 4.960008 -19.99952758 4.95653201 -18 5 C-18 4.34 -18 3.68 -18 3 C-15.565036 2.30215669 -13.12772895 1.61646178 -10.6875 0.9375 C-9.65206055 0.63875977 -9.65206055 0.63875977 -8.59570312 0.33398438 C-3.33984375 -1.11328125 -3.33984375 -1.11328125 0 0 Z " fill="#59A0B6" transform="translate(771,195)"/>
<path d="M0 0 C0.66 0 1.32 0 2 0 C-0.01913147 6.9550982 -2.26599857 13.80030913 -4.6875 20.625 C-5.00783203 21.53378906 -5.32816406 22.44257813 -5.65820312 23.37890625 C-6.43673314 25.58667793 -7.21735244 27.79368537 -8 30 C-9.23026927 25.98226748 -8.32427317 23.9728195 -7 20 C-6.96045766 17.66700175 -6.95598268 15.33291811 -7 13 C-6.67 12.01 -6.34 11.02 -6 10 C-5.34 10 -4.68 10 -4 10 C-3.8453125 9.195625 -3.8453125 9.195625 -3.6875 8.375 C-2.81907303 5.37497956 -1.44379704 2.7620465 0 0 Z " fill="#4885AE" transform="translate(408,230)"/>
<path d="M0 0 C-1.91297061 1.15199331 -3.83052529 2.29637688 -5.75 3.4375 C-7.35101563 4.39462891 -7.35101563 4.39462891 -8.984375 5.37109375 C-13.05609894 7.57045759 -16.16828364 8.12712639 -20.765625 8.09765625 C-21.65507812 8.09443359 -22.54453125 8.09121094 -23.4609375 8.08789062 C-24.38132813 8.07951172 -25.30171875 8.07113281 -26.25 8.0625 C-27.65378906 8.05573242 -27.65378906 8.05573242 -29.0859375 8.04882812 C-31.39069041 8.03706918 -33.69531227 8.02063426 -36 8 C-36 7.67 -36 7.34 -36 7 C-35.14019531 6.97421875 -34.28039062 6.9484375 -33.39453125 6.921875 C-25.66367423 6.55092875 -18.96071719 5.37479843 -11.64453125 2.83984375 C-9 2 -9 2 -6 2 C-6 1.34 -6 0.68 -6 0 C-3.50907189 -1.24546405 -2.58919267 -0.7767578 0 0 Z " fill="#436C9C" transform="translate(160,327)"/>
<path d="M0 0 C9.55873417 2.05669485 15.65212002 6.07346923 21 14.3125 C23 17.66118421 23 17.66118421 23 20 C20 19 20 19 18 17 C17.71125 16.030625 17.4225 15.06125 17.125 14.0625 C15.89004224 10.70067054 14.89107036 9.92738024 12 8 C12 7.34 12 6.68 12 6 C10.948125 5.896875 9.89625 5.79375 8.8125 5.6875 C5.11371887 5.02050668 2.97013189 4.25009992 0 2 C0 1.34 0 0.68 0 0 Z " fill="#55A0B8" transform="translate(756,242)"/>
<path d="M0 0 C-0.33 0.99 -0.66 1.98 -1 3 C-3.3984375 3.84375 -3.3984375 3.84375 -6.375 4.5 C-10.31077599 5.37230919 -12.27284546 6.06181565 -15 9 C-17.625 9.125 -17.625 9.125 -20 9 C-20.33 9.33 -20.66 9.66 -21 10 C-22.66617115 10.04063832 -24.33388095 10.042721 -26 10 C-22.18395297 6.62984977 -17.68591106 5.10527268 -13 3.3125 C-12.19304688 2.99216797 -11.38609375 2.67183594 -10.5546875 2.34179688 C-9.77351562 2.03951172 -8.99234375 1.73722656 -8.1875 1.42578125 C-7.47980469 1.15161377 -6.77210938 0.87744629 -6.04296875 0.5949707 C-4 0 -4 0 0 0 Z " fill="#5C9BB8" transform="translate(604,6)"/>
<path d="M0 0 C1.81486676 5.44460028 -1.79534116 10.92684859 -4 16 C-5.23616337 18.42902165 -6.54944868 20.68986271 -8 23 C-8.625 21.1875 -8.625 21.1875 -9 19 C-8.01 17.515 -8.01 17.515 -7 16 C-6.60612212 13.67612053 -6.26513915 11.34206251 -6 9 C-5.01 9 -4.02 9 -3 9 C-2.87625 7.700625 -2.7525 6.40125 -2.625 5.0625 C-2.4140625 2.84765625 -2.4140625 2.84765625 -2 1 C-1.34 0.67 -0.68 0.34 0 0 Z " fill="#4572A5" transform="translate(175,296)"/>
<path d="M0 0 C10.23 0 20.46 0 31 0 C31 0.33 31 0.66 31 1 C20.13259582 3.02983124 10.86008397 2.85520488 0 1 C0 0.67 0 0.34 0 0 Z " fill="#DDF9FE" transform="translate(641,337)"/>
<path d="M0 0 C0.66 0 1.32 0 2 0 C-1.25542228 11.14735507 -4.9697961 22.10987456 -9 33 C-10.62090619 27.68574326 -8.70132327 23.57797737 -6.5 18.625 C-5.01419006 15.03429264 -4.21470541 11.72136995 -3.52734375 7.91796875 C-3 6 -3 6 -1 4 C-0.3574765 1.93125966 -0.3574765 1.93125966 0 0 Z " fill="#568BB0" transform="translate(420,196)"/>
<path d="M0 0 C0.33 0.66 0.66 1.32 1 2 C1.66 2 2.32 2 3 2 C2.98839844 2.59167969 2.97679687 3.18335938 2.96484375 3.79296875 C2.95582031 4.58316406 2.94679688 5.37335938 2.9375 6.1875 C2.92589844 6.96480469 2.91429687 7.74210938 2.90234375 8.54296875 C3.00521481 11.13120471 3.48655661 13.46298562 4 16 C4.21540083 18.26835684 4.40179086 20.53961354 4.5625 22.8125 C4.64628906 23.97394531 4.73007812 25.13539063 4.81640625 26.33203125 C4.87699219 27.21246094 4.93757813 28.09289062 5 29 C-0.37320757 20.94018864 0.44336147 9.40393022 0 0 Z " fill="#488BB1" transform="translate(491,192)"/>
<path d="M0 0 C0.33 0.66 0.66 1.32 1 2 C0.360625 2.61875 -0.27875 3.2375 -0.9375 3.875 C-3.03883584 5.82597612 -3.03883584 5.82597612 -4 8 C-4.66 8 -5.32 8 -6 8 C-6.66 9.65 -7.32 11.3 -8 13 C-10.475 12.01 -10.475 12.01 -13 11 C-13 11.66 -13 12.32 -13 13 C-14.32 12.67 -15.64 12.34 -17 12 C-16.19175781 11.46890625 -15.38351562 10.9378125 -14.55078125 10.390625 C-13.48214844 9.68421875 -12.41351562 8.9778125 -11.3125 8.25 C-10.25675781 7.55390625 -9.20101562 6.8578125 -8.11328125 6.140625 C-5.29705372 4.20424772 -2.6367115 2.17198499 0 0 Z " fill="#549DBB" transform="translate(731,249)"/>
<path d="M0 0 C1.33026868 3.99080603 0.30441533 5.69492455 -1.08984375 9.63671875 C-1.31321915 10.27615921 -1.53659454 10.91559967 -1.76673889 11.57441711 C-2.48184548 13.61521182 -3.20947377 15.65128289 -3.9375 17.6875 C-4.42465964 19.07067096 -4.91099794 20.45413149 -5.39648438 21.83789062 C-6.58814554 25.22867176 -7.79107625 28.61532956 -9 32 C-10.09375 30.23046875 -10.09375 30.23046875 -11 28 C-10.17465545 25.97102798 -9.32183749 23.95009434 -8.35546875 21.984375 C-6.25501312 17.35974071 -4.67544817 12.56287108 -3.01953125 7.76489258 C-1.07963004 2.15926009 -1.07963004 2.15926009 0 0 Z " fill="#5188AD" transform="translate(456,96)"/>
<path d="M0 0 C0.83595703 0.05220703 1.67191406 0.10441406 2.53320312 0.15820312 C4.58500789 0.28717371 6.63631306 0.42405021 8.6875 0.5625 C8.6875 1.2225 8.6875 1.8825 8.6875 2.5625 C1.0975 2.5625 -6.4925 2.5625 -14.3125 2.5625 C-14.3125 1.9025 -14.3125 1.2425 -14.3125 0.5625 C-9.49068019 -0.76325494 -4.92417933 -0.33812439 0 0 Z " fill="#BABABB" transform="translate(575.3125,435.4375)"/>
<path d="M0 0 C0.66 0.33 1.32 0.66 2 1 C2.99 1.33 3.98 1.66 5 2 C3.95837282 4.98683456 3.29792173 5.8550651 0.3984375 7.265625 C-0.59929688 7.59046875 -1.59703125 7.9153125 -2.625 8.25 C-3.62789062 8.58515625 -4.63078125 8.9203125 -5.6640625 9.265625 C-6.82035156 9.62914062 -6.82035156 9.62914062 -8 10 C-8 9.34 -8 8.68 -8 8 C-7.01 8 -6.02 8 -5 8 C-5 7.01 -5 6.02 -5 5 C-4.34 5 -3.68 5 -3 5 C-2.814375 4.0409375 -2.814375 4.0409375 -2.625 3.0625 C-2.41875 2.381875 -2.2125 1.70125 -2 1 C-1.34 0.67 -0.68 0.34 0 0 Z " fill="#48A2B8" transform="translate(781,184)"/>
<path d="M0 0 C0.99 0 1.98 0 3 0 C3.33 0.99 3.66 1.98 4 3 C3.55011719 3.40863281 3.10023438 3.81726563 2.63671875 4.23828125 C0.8834417 6.12546013 -0.08482329 7.86807658 -1.1875 10.1875 C-1.53167969 10.90292969 -1.87585938 11.61835937 -2.23046875 12.35546875 C-2.48441406 12.89816406 -2.73835938 13.44085938 -3 14 C-2.34 14.33 -1.68 14.66 -1 15 C-1.66 15.66 -2.32 16.32 -3 17 C-3.99 17 -4.98 17 -6 17 C-4.33846988 11.14340094 -2.52958084 5.5409866 0 0 Z " fill="#5292B7" transform="translate(504,93)"/>
<path d="M0 0 C-2.86074838 1.90716559 -4.02396537 2.35137465 -7.2734375 2.8515625 C-8.0984375 2.98046875 -8.9234375 3.109375 -9.7734375 3.2421875 C-11.06121094 3.43167969 -11.06121094 3.43167969 -12.375 3.625 C-13.22578125 3.7590625 -14.0765625 3.893125 -14.953125 4.03125 C-18.99823573 4.64872796 -22.89464503 5.18583911 -27 5 C-27 4.34 -27 3.68 -27 3 C-24.94921875 2.77213542 -22.8984375 2.54427083 -20.84765625 2.31640625 C-18.98859771 2.18113386 -18.98859771 2.18113386 -18 1 C-15.92180264 0.76224013 -13.83655612 0.58486887 -11.75 0.4375 C-10.04070313 0.31181641 -10.04070313 0.31181641 -8.296875 0.18359375 C-5.52033379 0.02897593 -2.77949497 -0.0365723 0 0 Z " fill="#5C9CB4" transform="translate(699,332)"/>
<path d="M0 0 C0.99 0 1.98 0 3 0 C3.79953138 3.28696233 4.09658936 4.71023192 3 8 C5.64 8.66 8.28 9.32 11 10 C9.32421875 11.171875 9.32421875 11.171875 7 12 C4.45703125 10.953125 4.45703125 10.953125 1.8125 9.25 C0.93207031 8.69828125 0.05164063 8.1465625 -0.85546875 7.578125 C-3 6 -3 6 -4 4 C-2.35 3.67 -0.7 3.34 1 3 C0.67 2.01 0.34 1.02 0 0 Z " fill="#4F76AD" transform="translate(108,321)"/>
<path d="M0 0 C0.33 0.66 0.66 1.32 1 2 C-0.09655288 3.31886772 -1.20253423 4.62990057 -2.3125 5.9375 C-2.92738281 6.66839844 -3.54226563 7.39929687 -4.17578125 8.15234375 C-6 10 -6 10 -9 11 C-9 11.66 -9 12.32 -9 13 C-10.98 13.66 -12.96 14.32 -15 15 C-10.45200375 9.40246616 -5.47668152 4.6856053 0 0 Z " fill="#468CB1" transform="translate(551,32)"/>
<path d="M0 0 C6.95143535 0.39722488 13.36470325 0.87670504 20 3 C22.32787927 3.36950465 24.66045145 3.71352467 27 4 C26.67 4.66 26.34 5.32 26 6 C17.10968231 5.35343144 8.62806252 3.12977433 0 1 C0 0.67 0 0.34 0 0 Z " fill="#5B9BB5" transform="translate(604,330)"/>
<path d="M0 0 C2.2477975 2.05233685 3.0022242 3.00667261 4 6 C4.99 6 5.98 6 7 6 C7.125 11.75 7.125 11.75 6 14 C5.01 13.67 4.02 13.34 3 13 C2.67 10.69 2.34 8.38 2 6 C1.34 6 0.68 6 0 6 C0 4.02 0 2.04 0 0 Z " fill="#42619F" transform="translate(1,42)"/>
<path d="M0 0 C-5.94 3.63 -11.88 7.26 -18 11 C-18 8 -18 8 -16.9375 6.5 C-14.21870802 4.39512879 -11.15133112 3.34223363 -8 2 C-7.67 1.34 -7.34 0.68 -7 0 C-4.0262656 -1.09036928 -3.11592499 -1.03864166 0 0 Z " fill="#559FB4" transform="translate(755,308)"/>
<path d="M0 0 C2.475 0.99 2.475 0.99 5 2 C5.25 8.625 5.25 8.625 3 12 C1 11 1 11 0 8 C-0.12781786 5.32605036 -0.04391871 2.67904143 0 0 Z " fill="#3684B6" transform="translate(441,121)"/>
<path d="M0 0 C2.475 0.99 2.475 0.99 5 2 C5 2.66 5 3.32 5 4 C6.98 3.67 8.96 3.34 11 3 C11.33 5.64 11.66 8.28 12 11 C7.19126013 8.52277037 3.56825335 5.01042883 0 1 C0 0.67 0 0.34 0 0 Z " fill="#3B8AB4" transform="translate(532,286)"/>
<path d="M0 0 C2.7972908 2.06756277 3.02692273 3.14440371 3.6875 6.6875 C3.790625 7.780625 3.89375 8.87375 4 10 C5.65 8.35 7.3 6.7 9 5 C8.45925627 8.78520613 6.92427254 10.59177555 4 13 C3.01 13 2.02 13 1 13 C-0.10228696 8.59085217 -0.07654536 4.51617599 0 0 Z " fill="#BDBDBF" transform="translate(321,419)"/>
<path d="M0 0 C-0.99 0.33 -1.98 0.66 -3 1 C-3.309375 1.66 -3.61875 2.32 -3.9375 3 C-4.288125 3.66 -4.63875 4.32 -5 5 C-5.61875 5.144375 -6.2375 5.28875 -6.875 5.4375 C-10.04382769 6.27630733 -11.14376429 8.41452883 -13 11 C-14 8 -14 8 -13.125 5.5625 C-10.29713599 2.1524287 -4.45233412 -2.22616706 0 0 Z " fill="#B9B9BB" transform="translate(195,418)"/>
<path d="M0 0 C2.53148969 1.26574484 2.7776667 2.27395168 3.9453125 4.81640625 C4.47705078 5.96206055 4.47705078 5.96206055 5.01953125 7.13085938 C5.38433594 7.93330078 5.74914062 8.73574219 6.125 9.5625 C6.49753906 10.36880859 6.87007812 11.17511719 7.25390625 12.00585938 C8.17492012 14.00138943 9.0899905 15.9994336 10 18 C9.01 18 8.02 18 7 18 C6.67 16.35 6.34 14.7 6 13 C5.34 13 4.68 13 4 13 C3.32942113 11.2097939 2.6636531 9.41778511 2 7.625 C1.62875 6.62726563 1.2575 5.62953125 0.875 4.6015625 C0 2 0 2 0 0 Z " fill="#57A2B6" transform="translate(776,72)"/>
<path d="M0 0 C2.475 0.495 2.475 0.495 5 1 C5.33 4.3 5.66 7.6 6 11 C5.01 11.495 5.01 11.495 4 12 C0.46209597 8.30827405 0.40884117 4.90609405 0 0 Z " fill="#3C66A6" transform="translate(57,203)"/>
<path d="M0 0 C2.9375 0.75 2.9375 0.75 6 2 C6.6875 3.875 6.6875 3.875 7 6 C7.98731742 7.34275169 8.98594743 8.67732273 10 10 C10 10.66 10 11.32 10 12 C10.99 12.33 11.98 12.66 13 13 C12.34 13.66 11.68 14.32 11 15 C9.34867151 13.06695667 7.70388959 11.12895263 6.0625 9.1875 C5.35963867 8.36668945 5.35963867 8.36668945 4.64257812 7.52929688 C2.53530517 5.02785775 1.04432364 3.13297093 0 0 Z " fill="#528FB1" transform="translate(520,271)"/>
<path d="M0 0 C2.18331576 2.18331576 3.15314469 4.10737659 4.5 6.875 C4.9228125 7.73867187 5.345625 8.60234375 5.78125 9.4921875 C6.1834375 10.31976563 6.585625 11.14734375 7 12 C7.66486912 13.33423059 8.33085617 14.66790813 9 16 C7.68 15.67 6.36 15.34 5 15 C5 14.34 5 13.68 5 13 C4.34 13 3.68 13 3 13 C-0.42857143 4.57142857 -0.42857143 4.57142857 0 0 Z " fill="#5595B2" transform="translate(570,222)"/>
<path d="M0 0 C1.2065625 0.0309375 1.2065625 0.0309375 2.4375 0.0625 C2.251875 0.660625 2.06625 1.25875 1.875 1.875 C1.21656313 4.22658762 1.21656313 4.22658762 2.4375 7.0625 C1.7775 7.0625 1.1175 7.0625 0.4375 7.0625 C0.1075 9.0425 -0.2225 11.0225 -0.5625 13.0625 C-0.8925 13.0625 -1.2225 13.0625 -1.5625 13.0625 C-1.92348063 11.08456479 -2.27611348 9.10510427 -2.625 7.125 C-2.82222656 6.02285156 -3.01945312 4.92070312 -3.22265625 3.78515625 C-3.33480469 2.88667969 -3.44695312 1.98820313 -3.5625 1.0625 C-2.5625 0.0625 -2.5625 0.0625 0 0 Z " fill="#3766AD" transform="translate(69.5625,224.9375)"/>
<path d="M0 0 C0.99 0.33 1.98 0.66 3 1 C4.1875 4.0625 4.1875 4.0625 5 7 C4.01 7.495 4.01 7.495 3 8 C2.31527335 9.88764903 2.31527335 9.88764903 1.875 12.0625 C1.70742188 12.79597656 1.53984375 13.52945313 1.3671875 14.28515625 C1.24601562 14.85105469 1.12484375 15.41695312 1 16 C0.67 16 0.34 16 0 16 C0 10.72 0 5.44 0 0 Z " fill="#3285B7" transform="translate(491,176)"/>
<path d="M0 0 C8.16240568 -0.33853295 15.95072024 0.70098079 24 2 C24 2.33 24 2.66 24 3 C18.72 3 13.44 3 8 3 C8 2.34 8 1.68 8 1 C5.36 1 2.72 1 0 1 C0 0.67 0 0.34 0 0 Z " fill="#62A5BE" transform="translate(653,0)"/>
<path d="M0 0 C0.99 0.33 1.98 0.66 3 1 C2.01 1.66 1.02 2.32 0 3 C-0.309375 3.94875 -0.61875 4.8975 -0.9375 5.875 C-2.08849513 9.26027979 -3.25068042 10.76617784 -6 13 C-6.66 13 -7.32 13 -8 13 C-8 12.34 -8 11.68 -8 11 C-7.34 11 -6.68 11 -6 11 C-6.1546875 9.9171875 -6.1546875 9.9171875 -6.3125 8.8125 C-5.87413189 4.86718704 -3.90882229 3.55408786 -1 1 C-0.67 0.67 -0.34 0.34 0 0 Z " fill="#3F82B4" transform="translate(374,315)"/>
<path d="M0 0 C0.66 0.33 1.32 0.66 2 1 C-2.73361656 5.37705843 -7.2733575 9.0173737 -13 12 C-13 11.34 -13 10.68 -13 10 C-12.34 10 -11.68 10 -11 10 C-10.34 8.68 -9.68 7.36 -9 6 C-8.01 6 -7.02 6 -6 6 C-6 5.01 -6 4.02 -6 3 C-4.03533587 1.93224776 -2.03144641 0.93446535 0 0 Z " fill="#55A1B5" transform="translate(769,294)"/>
<path d="M0 0 C3.73884332 2.65654657 5.64978174 4.58110387 7 9 C5.68 8.67 4.36 8.34 3 8 C3 8.99 3 9.98 3 11 C2.34 11 1.68 11 1 11 C0.67 7.37 0.34 3.74 0 0 Z " fill="#518FB8" transform="translate(464,12)"/>
<path d="M0 0 C1.98 0.66 3.96 1.32 6 2 C5.67 3.65 5.34 5.3 5 7 C2 7 2 7 -0.1875 5 C-0.785625 4.34 -1.38375 3.68 -2 3 C-1.34 2.67 -0.68 2.34 0 2 C0 1.34 0 0.68 0 0 Z " fill="#3F7FB1" transform="translate(313,320)"/>
<path d="M0 0 C4.40848053 0.48983117 6.01100783 1.82419582 9 5 C9.886875 5.515625 10.77375 6.03125 11.6875 6.5625 C14 8 14 8 15 11 C10.92584833 9.59790456 8.01720177 7.65552322 4.6875 4.9375 C3.80449219 4.22464844 2.92148437 3.51179688 2.01171875 2.77734375 C1.34785156 2.19082031 0.68398438 1.60429687 0 1 C0 0.67 0 0.34 0 0 Z " fill="#5895B4" transform="translate(547,300)"/>
<path d="M0 0 C0.99 0 1.98 0 3 0 C2.54803755 1.60597325 2.08817673 3.20972508 1.625 4.8125 C1.36976563 5.70582031 1.11453125 6.59914062 0.8515625 7.51953125 C0 10 0 10 -2 13 C-2.33 10.03 -2.66 7.06 -3 4 C-2.34 3.67 -1.68 3.34 -1 3 C-0.67 2.01 -0.34 1.02 0 0 Z " fill="#3483B8" transform="translate(436,144)"/>
<path d="M0 0 C-1.32 0.33 -2.64 0.66 -4 1 C-4 1.66 -4 2.32 -4 3 C-7.41831915 5.5393228 -9.75776898 6.3636198 -14 6 C-10.33829808 1.75242578 -5.68114185 -1.89371395 0 0 Z " fill="#59A2BA" transform="translate(746,243)"/>
<path d="M0 0 C3.92247359 3.69833224 7.1189547 7.42422217 10 12 C9.67 12.99 9.34 13.98 9 15 C7 12 7 12 7 10 C6.34 10 5.68 10 5 10 C5 9.34 5 8.68 5 8 C4.01 8 3.02 8 2 8 C2 6.68 2 5.36 2 4 C1.34 4 0.68 4 0 4 C0 2.68 0 1.36 0 0 Z " fill="#58A2B8" transform="translate(762,52)"/>
<path d="M0 0 C0.66 0.33 1.32 0.66 2 1 C1.67 2.65 1.34 4.3 1 6 C-0.32 6 -1.64 6 -3 6 C-4.78969026 8.42672567 -4.78969026 8.42672567 -6 11 C-6.99 10.67 -7.98 10.34 -9 10 C-7.8758824 8.70756532 -6.75067408 7.41607925 -5.625 6.125 C-4.99851562 5.40570312 -4.37203125 4.68640625 -3.7265625 3.9453125 C-2.52573166 2.5923402 -1.2791655 1.2791655 0 0 Z " fill="#526FA8" transform="translate(14,9)"/>
<path d="M0 0 C3.33333333 1.66666667 6.66666667 3.33333333 10 5 C10 5.66 10 6.32 10 7 C5.87248551 6.39301257 2.6678852 4.96189209 -1 3 C-1 4.65 -1 6.3 -1 8 C-1.66 7.34 -2.32 6.68 -3 6 C-1.125 1.125 -1.125 1.125 0 0 Z " fill="#4890B4" transform="translate(563,192)"/>
<path d="M0 0 C0.66 0 1.32 0 2 0 C3.01839999 2.99409596 4.01428117 5.99499309 5 9 C5.22429688 9.66515625 5.44859375 10.3303125 5.6796875 11.015625 C6.7753367 14.46767041 7.04445983 16.56074298 6 20 C4.99513105 17.04329782 3.99693976 14.08438423 3 11.125 C2.71382812 10.28324219 2.42765625 9.44148437 2.1328125 8.57421875 C1.86210938 7.76855469 1.59140625 6.96289062 1.3125 6.1328125 C1.06113281 5.38918457 0.80976562 4.64555664 0.55078125 3.87939453 C0 2 0 2 0 0 Z " fill="#5570A1" transform="translate(35,144)"/>
<path d="M0 0 C0.66 0.99 1.32 1.98 2 3 C-2.97601626 4.71050559 -6.42616295 3.00885647 -11 1 C-10.38253906 0.84789062 -9.76507813 0.69578125 -9.12890625 0.5390625 C-7.72325215 0.18313541 -6.32520107 -0.20448452 -4.9375 -0.625 C-3 -1 -3 -1 0 0 Z " fill="#5187B1" transform="translate(333,331)"/>
<path d="M0 0 C0.66 0 1.32 0 2 0 C2.66 1.65 3.32 3.3 4 5 C4.33 5 4.66 5 5 5 C5.33 9.29 5.66 13.58 6 18 C4.30631218 14.61262437 3.06221422 11.45423102 1.875 7.875 C1.52179688 6.82054687 1.16859375 5.76609375 0.8046875 4.6796875 C0 2 0 2 0 0 Z " fill="#4B7DAA" transform="translate(266,198)"/>
<path d="M0 0 C0.66 0.33 1.32 0.66 2 1 C-1 4 -1 4 -2.375 5.3125 C-4.72973849 7.75780535 -6.84408237 10.37793802 -9 13 C-9.33 12.34 -9.66 11.68 -10 11 C-9.09066991 9.72390677 -8.17217147 8.45434447 -7.25 7.1875 C-6.73953125 6.47980469 -6.2290625 5.77210938 -5.703125 5.04296875 C-3.97517642 2.97022309 -2.21473524 1.52624146 0 0 Z " fill="#DDEDF6" transform="translate(224,171)"/>
<path d="M0 0 C0.33 0 0.66 0 1 0 C0.78943471 9.85828397 0.78943471 9.85828397 -2.5625 13.125 C-3.366875 13.74375 -4.17125 14.3625 -5 15 C-5.66 14.67 -6.32 14.34 -7 14 C-6.21625 12.989375 -5.4325 11.97875 -4.625 10.9375 C-2.05758573 7.37366716 -0.95732243 4.26443627 0 0 Z " fill="#E0F6F9" transform="translate(799,169)"/>
<path d="M0 0 C-0.33 0.99 -0.66 1.98 -1 3 C-3.94140625 3.94921875 -3.94140625 3.94921875 -7.5625 4.6875 C-9.35880859 5.06455078 -9.35880859 5.06455078 -11.19140625 5.44921875 C-12.58166016 5.72185547 -12.58166016 5.72185547 -14 6 C-11.91821065 2.87731597 -11.44328863 2.49581425 -8.125 1.3125 C-7.44695313 1.06113281 -6.76890625 0.80976562 -6.0703125 0.55078125 C-4 0 -4 0 0 0 Z " fill="#5595B3" transform="translate(604,6)"/>
<path d="M0 0 C0.66 0.33 1.32 0.66 2 1 C1.07213211 2.00894372 0.13231567 3.00690907 -0.8125 4 C-1.59560547 4.8353125 -1.59560547 4.8353125 -2.39453125 5.6875 C-4 7 -4 7 -7 7 C-7.66 8.32 -8.32 9.64 -9 11 C-9.99 10.34 -10.98 9.68 -12 9 C-8.04 6.03 -4.08 3.06 0 0 Z " fill="#DAF2F7" transform="translate(761,302)"/>
<path d="M0 0 C1 3 1 3 -0.25 6 C-1.69149811 8.47113961 -2.85630917 10.16255071 -5 12 C-5.33 10.02 -5.66 8.04 -6 6 C-5.34 6 -4.68 6 -4 6 C-2.61061923 4.03852126 -1.2739589 2.03833424 0 0 Z " fill="#4EA0B6" transform="translate(778,280)"/>
<path d="M0 0 C1.140625 3.6796875 1.140625 3.6796875 -0.125 6.5625 C-2.16663081 9.21662005 -4.04234098 10.48120212 -7 12 C-5.44298069 7.32894208 -2.91552627 3.91294315 0 0 Z " fill="#5393B5" transform="translate(524,59)"/>
<path d="M0 0 C0 3 0 3 -1 6 C-1.99 6.495 -1.99 6.495 -3 7 C-3.72693904 8.97888961 -4.39816251 10.97954558 -5 13 C-5.33 13 -5.66 13 -6 13 C-5.63076923 5.73846154 -5.63076923 5.73846154 -2.4375 2 C-1.633125 1.34 -0.82875 0.68 0 0 Z " fill="#BEBEC0" transform="translate(422,500)"/>
<path d="M0 0 C4.9335117 2.35406142 9.51978158 4.86384711 14 8 C11 9 11 9 9.09765625 8.07421875 C8.42605469 7.61660156 7.75445313 7.15898437 7.0625 6.6875 C4.43746328 4.9223019 1.85803407 3.36188201 -1 2 C-0.67 1.34 -0.34 0.68 0 0 Z " fill="#569EB7" transform="translate(719,17)"/>
<path d="M0 0 C0.33 0 0.66 0 1 0 C1.22226864 1.76913824 1.42733873 3.54044371 1.625 5.3125 C1.74101563 6.29863281 1.85703125 7.28476562 1.9765625 8.30078125 C2 11 2 11 0 14 C-1.96994636 9.24895289 -2.08312062 6.02174105 -1 1 C-0.67 0.67 -0.34 0.34 0 0 Z " fill="#C7C7C9" transform="translate(126,424)"/>
<path d="M0 0 C0.66 0.33 1.32 0.66 2 1 C0.68 1.33 -0.64 1.66 -2 2 C-2 3.98 -2 5.96 -2 8 C-3.98 8.33 -5.96 8.66 -8 9 C-7.01 7.02 -6.02 5.04 -5 3 C-4.34 3 -3.68 3 -3 3 C-3 2.34 -3 1.68 -3 1 C-2.01 0.67 -1.02 0.34 0 0 Z " fill="#BEBEC0" transform="translate(305,413)"/>
<path d="M0 0 C0.33 0.66 0.66 1.32 1 2 C2.65 1.34 4.3 0.68 6 0 C5.34 2.97 4.68 5.94 4 9 C3.67 8.34 3.34 7.68 3 7 C2.34 7 1.68 7 1 7 C0.67 4.69 0.34 2.38 0 0 Z " fill="#3383B9" transform="translate(449,98)"/>
<path d="M0 0 C2.47114386 2.57410819 2.98892624 3.87597385 3.3125 7.5 C3.03133261 10.6490748 2.67527688 12.38237988 1 15 C-0.46507646 12.06984708 -0.0213589 9.32231769 0.0625 6.09375 C0.14500866 3.93974478 0.14500866 3.93974478 -1 2 C-0.67 1.34 -0.34 0.68 0 0 Z " fill="#BFBFBF" transform="translate(83,418)"/>
<path d="M0 0 C-8.07744875 5.74031891 -8.07744875 5.74031891 -14 5 C-11.08235 3.0549 -9.37462715 2.54723683 -6 2 C-6 1.34 -6 0.68 -6 0 C-3.50907189 -1.24546405 -2.58919267 -0.7767578 0 0 Z " fill="#4573A5" transform="translate(160,327)"/>
<path d="M0 0 C2.58227328 2.26949088 3.71422992 4.25388153 4.8125 7.5 C5.08707031 8.2734375 5.36164063 9.046875 5.64453125 9.84375 C6 12 6 12 4 15 C3.32779649 13.06441401 2.66241923 11.12645628 2 9.1875 C1.62875 8.10855469 1.2575 7.02960938 0.875 5.91796875 C0 3 0 3 0 0 Z " fill="#5274A5" transform="translate(78,265)"/>
<path d="M0 0 C1.258125 0.12375 2.51625 0.2475 3.8125 0.375 C4.87404297 0.47941406 4.87404297 0.47941406 5.95703125 0.5859375 C8 1 8 1 11 3 C12.65549531 3.38499891 14.3222433 3.72793135 16 4 C14.390625 5.1484375 14.390625 5.1484375 12 6 C8.984375 5.1015625 8.984375 5.1015625 5.75 3.625 C4.67234375 3.14289063 3.5946875 2.66078125 2.484375 2.1640625 C1.66453125 1.77992188 0.8446875 1.39578125 0 1 C0 0.67 0 0.34 0 0 Z " fill="#5D9DB9" transform="translate(573,199)"/>
<path d="M0 0 C1.28497537 3.85492611 0.4052209 5.40346836 -0.9375 9.1875 C-1.31777344 10.27417969 -1.69804687 11.36085938 -2.08984375 12.48046875 C-2.39019531 13.31191406 -2.69054687 14.14335937 -3 15 C-3.33 15 -3.66 15 -4 15 C-4.125 8.375 -4.125 8.375 -3 5 C-2.34 5 -1.68 5 -1 5 C-0.67 3.35 -0.34 1.7 0 0 Z " fill="#4C7BA7" transform="translate(192,245)"/>
<path d="M0 0 C5.98993047 -0.3152595 9.63560356 0.31780178 15 3 C15 3.33 15 3.66 15 4 C9.72684667 3.5547115 4.98229776 2.91626837 0 1 C0 0.67 0 0.34 0 0 Z " fill="#5594B1" transform="translate(588,205)"/>
<path d="M0 0 C0.33 0 0.66 0 1 0 C1 1.65 1 3.3 1 5 C1.66 5 2.32 5 3 5 C5.27678571 13.03571429 5.27678571 13.03571429 4 17 C2.64560332 14.29120665 2.93498549 11.99066732 3 9 C2.34 9 1.68 9 1 9 C0.67 6.03 0.34 3.06 0 0 Z " fill="#58A6B8" transform="translate(793,115)"/>
<path d="M0 0 C0.99 0.33 1.98 0.66 3 1 C3.33 2.98 3.66 4.96 4 7 C3.01 7.495 3.01 7.495 2 8 C1.01 7.67 0.02 7.34 -1 7 C-0.67 4.69 -0.34 2.38 0 0 Z " fill="#309EC0" transform="translate(786,100)"/>
<path d="M0 0 C6.33393082 -0.34548714 11.10261508 0.70657253 17 3 C17 3.33 17 3.66 17 4 C5.47835991 3.22095672 5.47835991 3.22095672 0 1 C0 0.67 0 0.34 0 0 Z " fill="#4797B3" transform="translate(673,3)"/>
<path d="M0 0 C1.36511719 0.29197266 1.36511719 0.29197266 2.7578125 0.58984375 C3.45648437 0.74582031 4.15515625 0.90179688 4.875 1.0625 C4.875 1.7225 4.875 2.3825 4.875 3.0625 C-2.50961538 3.43173077 -2.50961538 3.43173077 -5.625 1.5625 C-6.12 1.0675 -6.615 0.5725 -7.125 0.0625 C-4.4030754 -1.2984623 -2.9418043 -0.64116248 0 0 Z " fill="#BBBBBC" transform="translate(529.125,434.9375)"/>
<path d="M0 0 C0.66 0.33 1.32 0.66 2 1 C1.29445932 4.66881155 -0.27735506 7.70450534 -2 11 C-2.33 11 -2.66 11 -3 11 C-2.25 3.375 -2.25 3.375 0 0 Z " fill="#3180B9" transform="translate(379,304)"/>
<path d="M0 0 C1.20220203 3.53094302 0.79532349 6.12898982 0.0625 9.75 C-0.13214844 10.73484375 -0.32679688 11.7196875 -0.52734375 12.734375 C-0.68332031 13.48203125 -0.83929688 14.2296875 -1 15 C-1.66 14.34 -2.32 13.68 -3 13 C-2.64638402 8.4029922 -1.58012426 4.31900631 0 0 Z " fill="#5E94B8" transform="translate(497,111)"/>
<path d="M0 0 C-0.33 1.32 -0.66 2.64 -1 4 C-0.34 4.33 0.32 4.66 1 5 C0.34 5 -0.32 5 -1 5 C-0.67 5.99 -0.34 6.98 0 8 C-0.99 8.33 -1.98 8.66 -3 9 C-3.33 6.36 -3.66 3.72 -4 1 C-2 0 -2 0 0 0 Z " fill="#3760AB" transform="translate(15,68)"/>
<path d="M0 0 C1.40428987 4.98364524 0.50093672 8.4983139 -2 13 C-3.18771723 9.57056481 -2.80226223 7.62215325 -1.5625 4.25 C-1.27503906 3.45078125 -0.98757813 2.6515625 -0.69140625 1.828125 C-0.46324219 1.22484375 -0.23507812 0.6215625 0 0 Z " fill="#BEBEC0" transform="translate(425,432)"/>
<path d="M0 0 C0.33 0 0.66 0 1 0 C1.13277344 0.69867188 1.26554687 1.39734375 1.40234375 2.1171875 C1.57894531 3.02726562 1.75554687 3.93734375 1.9375 4.875 C2.11152344 5.77992188 2.28554688 6.68484375 2.46484375 7.6171875 C2.89963701 9.99956317 2.89963701 9.99956317 4 12 C3.01 13.485 3.01 13.485 2 15 C-0.08989546 9.68670645 -1.6112798 5.71271928 0 0 Z " fill="#B9B9BB" transform="translate(423,448)"/>
<path d="M0 0 C2.12046792 3.53411321 2.53199289 6.94393835 3 11 C2.34 11 1.68 11 1 11 C1 10.34 1 9.68 1 9 C0.34 9 -0.32 9 -1 9 C-1.09765625 2.84765625 -1.09765625 2.84765625 -1 1 C-0.67 0.67 -0.34 0.34 0 0 Z " fill="#3968AB" transform="translate(84,272)"/>
<path d="M0 0 C4.455 2.97 4.455 2.97 9 6 C7.68 6.33 6.36 6.66 5 7 C2.25 4.6875 2.25 4.6875 0 2 C0 1.34 0 0.68 0 0 Z " fill="#5496B5" transform="translate(592,254)"/>
<path d="M0 0 C0.94875 0.04125 1.8975 0.0825 2.875 0.125 C1.25160195 1.83384005 -0.41819053 3.49946717 -2.125 5.125 C-2.785 5.125 -3.445 5.125 -4.125 5.125 C-4.455 4.135 -4.785 3.145 -5.125 2.125 C-3.125 0.125 -3.125 0.125 0 0 Z " fill="#4072A5" transform="translate(222.125,169.875)"/>
<path d="M0 0 C1.32 0.66 2.64 1.32 4 2 C0.25 6.875 0.25 6.875 -2 8 C-2.125 5.125 -2.125 5.125 -2 2 C-1.34 1.34 -0.68 0.68 0 0 Z " fill="#3088B3" transform="translate(519,69)"/>
<path d="M0 0 C0.66 0.33 1.32 0.66 2 1 C0.9024777 3.99324263 0.32317108 4.84610901 -2.625 6.25 C-3.40875 6.4975 -4.1925 6.745 -5 7 C-3.70700306 4.11562221 -2.34058637 2.12780579 0 0 Z " fill="#F7F7F8" transform="translate(334,441)"/>
<path d="M0 0 C0.66 0.33 1.32 0.66 2 1 C-0.51407619 5.28324091 -2.12314139 7.64531705 -7 9 C-6.21654285 7.82780457 -5.42297164 6.66236332 -4.625 5.5 C-4.18414063 4.8503125 -3.74328125 4.200625 -3.2890625 3.53125 C-2.65097656 2.77328125 -2.65097656 2.77328125 -2 2 C-1.34 2 -0.68 2 0 2 C0 1.34 0 0.68 0 0 Z " fill="#BFBFC0" transform="translate(612,425)"/>
<path d="M0 0 C2.4375 0.8125 2.4375 0.8125 5 2 C5.33 2.99 5.66 3.98 6 5 C4.68 5.33 3.36 5.66 2 6 C0 3 0 3 0 0 Z " fill="#2F9EBD" transform="translate(768,251)"/>
<path d="M0 0 C0.33 0.66 0.66 1.32 1 2 C1.66 2 2.32 2 3 2 C2.4140625 8.15234375 2.4140625 8.15234375 2 10 C1.01 10.495 1.01 10.495 0 11 C0 7.37 0 3.74 0 0 Z " fill="#3DA1B9" transform="translate(794,169)"/>
<path d="M0 0 C0.99 0.33 1.98 0.66 3 1 C3 1.99 3 2.98 3 4 C2.34 4 1.68 4 1 4 C0.34 5.32 -0.32 6.64 -1 8 C-2 6 -2 6 -1.0625 2.875 C-0.5365625 1.451875 -0.5365625 1.451875 0 0 Z " fill="#3A86B1" transform="translate(499,109)"/>
<path d="M0 0 C0.66 0.33 1.32 0.66 2 1 C1.67 2.65 1.34 4.3 1 6 C-0.65 6.33 -2.3 6.66 -4 7 C-2.68 4.69 -1.36 2.38 0 0 Z " fill="#5593B8" transform="translate(516,71)"/>
<path d="M0 0 C0.98120464 3.05263664 0.98120464 4.94736336 0 8 C-0.99 7.67 -1.98 7.34 -3 7 C-3 5.68 -3 4.36 -3 3 C-2.34 3 -1.68 3 -1 3 C-0.67 2.01 -0.34 1.02 0 0 Z " fill="#3A5EAA" transform="translate(7,48)"/>
<path d="M0 0 C4.43090471 1.20842856 6.98112756 2.51668565 10 6 C8.68 6 7.36 6 6 6 C5.67 5.34 5.34 4.68 5 4 C3.35636866 3.27840576 1.68949614 2.60648579 0 2 C0 1.34 0 0.68 0 0 Z " fill="#578BAC" transform="translate(452,5)"/>
<path d="M0 0 C6.52307692 -0.36923077 6.52307692 -0.36923077 8.9375 1.5 C9.288125 1.995 9.63875 2.49 10 3 C8 4 8 4 6.0546875 3.44140625 C5.33539062 3.15136719 4.61609375 2.86132812 3.875 2.5625 C3.15054688 2.27503906 2.42609375 1.98757813 1.6796875 1.69140625 C0.84824219 1.34916016 0.84824219 1.34916016 0 1 C0 0.67 0 0.34 0 0 Z " fill="#639CB8" transform="translate(592,326)"/>
<path d="M0 0 C0.66 0 1.32 0 2 0 C1.55123384 1.64846769 1.09069512 3.29373455 0.625 4.9375 C0.36976563 5.85402344 0.11453125 6.77054688 -0.1484375 7.71484375 C-1 10 -1 10 -3 11 C-3.125 8.625 -3.125 8.625 -3 6 C-2.34 5.34 -1.68 4.68 -1 4 C-0.3574765 1.93125966 -0.3574765 1.93125966 0 0 Z " fill="#4B87AD" transform="translate(420,196)"/>
<path d="M0 0 C0.99 0 1.98 0 3 0 C3.33 0.99 3.66 1.98 4 3 C2.33333333 4.66666667 0.66666667 6.33333333 -1 8 C-1.125 2.25 -1.125 2.25 0 0 Z " fill="#438AB2" transform="translate(504,93)"/>
<path d="M0 0 C0.66 0.33 1.32 0.66 2 1 C1.34 4.3 0.68 7.6 0 11 C-0.33 10.01 -0.66 9.02 -1 8 C-1.66 7.67 -2.32 7.34 -3 7 C-2.34 7 -1.68 7 -1 7 C-1.33 5.68 -1.66 4.36 -2 3 C-1.34 3 -0.68 3 0 3 C0 2.01 0 1.02 0 0 Z " fill="#B8B7BB" transform="translate(198,488)"/>
<path d="M0 0 C2.00047023 2.54605302 3.82572785 4.9664636 5 8 C4.67 8.99 4.34 9.98 4 11 C1.52214277 7.33708062 0.51035831 4.3890815 0 0 Z " fill="#BEBEC0" transform="translate(697,438)"/>
<path d="M0 0 C2.64 0 5.28 0 8 0 C8 1.32 8 2.64 8 4 C2.25 2.25 2.25 2.25 0 0 Z " fill="#5997B9" transform="translate(578,320)"/>
<path d="M0 0 C4.41889613 1.35021826 6.34345343 3.26115668 9 7 C6 7 6 7 4.39453125 5.46875 C3.87246094 4.8190625 3.35039063 4.169375 2.8125 3.5 C2.28269531 2.8503125 1.75289062 2.200625 1.20703125 1.53125 C0.80871094 1.0259375 0.41039062 0.520625 0 0 Z " fill="#5194B3" transform="translate(532,286)"/>
<path d="M0 0 C0.33 1.32 0.66 2.64 1 4 C1.66 4.33 2.32 4.66 3 5 C2.01 5.66 1.02 6.32 0 7 C-0.72382467 9.05925139 -0.72382467 9.05925139 -1 11 C-1.66 11 -2.32 11 -3 11 C-2.01 7.37 -1.02 3.74 0 0 Z " fill="#D8EAF2" transform="translate(402,251)"/>
<path d="M0 0 C0.33 0 0.66 0 1 0 C1 2.64 1 5.28 1 8 C0.01 8 -0.98 8 -2 8 C-2.20086443 4.28400809 -2.1519437 3.22791555 0 0 Z " fill="#3563AA" transform="translate(37,136)"/>
<path d="M0 0 C2.92965912 2.92965912 3.94133569 5.680053 4.125 9.8125 C4.08375 10.534375 4.0425 11.25625 4 12 C0.46209597 8.30827405 0.40884117 4.90609405 0 0 Z " fill="#57A0B5" transform="translate(786,92)"/>
<path d="M0 0 C0.66 0.33 1.32 0.66 2 1 C-0.31 3.97 -2.62 6.94 -5 10 C-5.33 9.01 -5.66 8.02 -6 7 C-4.78515625 5.17578125 -4.78515625 5.17578125 -3.0625 3.3125 C-2.49660156 2.68988281 -1.93070313 2.06726562 -1.34765625 1.42578125 C-0.90292969 0.95527344 -0.45820312 0.48476563 0 0 Z " fill="#E2F8FD" transform="translate(526,55)"/>
<path d="M0 0 C0.33 0.66 0.66 1.32 1 2 C-1.77280706 5.08089673 -4.06326356 6.68775452 -8 8 C-5.33333333 5.33333333 -2.66666667 2.66666667 0 0 Z " fill="#5894B5" transform="translate(551,32)"/>
<path d="M0 0 C1.32 0.33 2.64 0.66 4 1 C4.33 2.65 4.66 4.3 5 6 C3.68 5.67 2.36 5.34 1 5 C0.67 3.35 0.34 1.7 0 0 Z " fill="#B6B6B8" transform="translate(699,448)"/>
<path d="M0 0 C0 0.66 0 1.32 0 2 C-4.455 3.485 -4.455 3.485 -9 5 C-9 4.34 -9 3.68 -9 3 C-2.25 0 -2.25 0 0 0 Z " fill="#BDBDBE" transform="translate(778,439)"/>
<path d="M0 0 C1.98 0 3.96 0 6 0 C5.34 1.98 4.68 3.96 4 6 C0 1.125 0 1.125 0 0 Z " fill="#4E75AD" transform="translate(95,313)"/>
<path d="M0 0 C0.33 0 0.66 0 1 0 C1.25 3.3125 1.25 3.3125 1 7 C-0.32 7.99 -1.64 8.98 -3 10 C-2.01 6.7 -1.02 3.4 0 0 Z " fill="#D9EFF6" transform="translate(437,153)"/>
<path d="M0 0 C0 3.64478912 -0.85802506 5.09303401 -3 8 C-5.109375 8.6484375 -5.109375 8.6484375 -7 9 C-6.02180976 7.68677212 -5.0424189 6.37443848 -4.0625 5.0625 C-3.51722656 4.33160156 -2.97195313 3.60070313 -2.41015625 2.84765625 C-1 1 -1 1 0 0 Z " fill="#5696B8" transform="translate(532,50)"/>
<path d="M0 0 C1.485 0.99 1.485 0.99 3 2 C2.67 4.97 2.34 7.94 2 11 C1.67 11 1.34 11 1 11 C0.67 7.37 0.34 3.74 0 0 Z " fill="#4288B3" transform="translate(464,12)"/>
<path d="M0 0 C2.0625 0.4375 2.0625 0.4375 4 1 C2.02 1.99 2.02 1.99 0 3 C0.33 3.99 0.66 4.98 1 6 C0.01 6 -0.98 6 -2 6 C-1.125 1.125 -1.125 1.125 0 0 Z " fill="#3A60A7" transform="translate(16,9)"/>
<path d="M0 0 C-3.22515763 1.73662334 -6.51329166 2.8905928 -10 4 C-10.66 3.34 -11.32 2.68 -12 2 C-7.82262526 0.40861915 -4.46839215 -0.21278058 0 0 Z " fill="#516BA1" transform="translate(32,4)"/>
<path d="M0 0 C0.66 0 1.32 0 2 0 C0.63016497 3.16115776 0.0109362 3.9927092 -3 6 C-3.33 4.68 -3.66 3.36 -4 2 C-2.68 2 -1.36 2 0 2 C0 1.34 0 0.68 0 0 Z " fill="#4D75A5" transform="translate(163,320)"/>
<path d="M0 0 C0.66 0 1.32 0 2 0 C4.4294516 3.6441774 4.16179575 5.71241272 4 10 C1.81024227 6.71536341 1.00193437 3.79303725 0 0 Z " fill="#5372A6" transform="translate(83,281)"/>
<path d="M0 0 C0.99 0.33 1.98 0.66 3 1 C1.35 2.65 -0.3 4.3 -2 6 C-2.33 4.68 -2.66 3.36 -3 2 C-2.01 2 -1.02 2 0 2 C0 1.34 0 0.68 0 0 Z " fill="#52A3B7" transform="translate(791,180)"/>
<path d="M0 0 C-4.30769231 3.07692308 -4.30769231 3.07692308 -7.8125 2.6875 C-8.534375 2.460625 -9.25625 2.23375 -10 2 C-6.80505194 -1.19494806 -4.22040044 -1.35655728 0 0 Z " fill="#DCEAF3" transform="translate(236,169)"/>
<path d="M0 0 C0.66 0 1.32 0 2 0 C1.01 3.3 0.02 6.6 -1 10 C-1.66 8.68 -2.32 7.36 -3 6 C-1.625 2.75 -1.625 2.75 0 0 Z " fill="#5D92B0" transform="translate(448,118)"/>
<path d="M0 0 C0.99 0 1.98 0 3 0 C3 2.64 3 5.28 3 8 C0.4345406 5.4345406 0.45953913 3.52313332 0 0 Z " fill="#3860AC" transform="translate(13,77)"/>
<path d="M0 0 C5.875 3.75 5.875 3.75 7 6 C5.35 6 3.7 6 2 6 C1.34 4.02 0.68 2.04 0 0 Z " fill="#4C9BB5" transform="translate(735,27)"/>
</svg>
