<?xml version="1.0" encoding="utf-8"?>
<!-- Generator: Adobe Illustrator 19.0.0, SVG Export Plug-In . SVG Version: 6.00 Build 0)  -->
<svg version="1.1" id="layer" xmlns="http://www.w3.org/2000/svg" xmlns:xlink="http://www.w3.org/1999/xlink" x="0px" y="0px"
	 viewBox="-153 -46 652 652" style="enable-background:new -153 -46 652 652;" xml:space="preserve">
<style type="text/css">
	.st0{fill:#161616;}
</style>
<path class="st0" d="M-14.9,304.4c-4.4,4.6-5.7,7-8.8,14L-52.6,385L-73,338.3L-93.3,385l-29.2-66.6c-3-6.9-4.3-9.2-8.8-14h37
	c-2.8,2.3-4.2,5.4-4.2,9.2c0,2.7,0.4,4.6,1.9,8.1l11,26.4l8.2-19.7l-4.6-10.7c-2.7-6.1-4.6-10-7.3-13.3h37c-3.6,2.3-5.4,5.4-5.4,9.2
	c0,2.7,0.4,4.6,1.9,8.1l11.3,26.4l11.1-26.4c1.4-3.5,2-5.4,2-7.9c0-3.3-2.3-7.4-5-9.3L-14.9,304.4L-14.9,304.4z"/>
<path class="st0" d="M26.3,363.7c-3.6,15.6-12.2,20.7-24.7,20.7c-14.3,0-27.7-10.4-27.7-30c0-18.8,11.8-32.1,27.4-32.1
	c10.2,0,24.4,5.2,24.4,27.4H-8c2.3,11.9,10.1,18,20.8,18C18.3,367.7,22.1,366.7,26.3,363.7z M-8.6,342v1.4H6.1
	c0-11.2-2.4-14.7-7.2-14.7C-5.8,328.8-8.6,333.6-8.6,342z"/>
<path class="st0" d="M96.8,324.6c-9.3-8.8-18.4-13.4-25.5-13.4v49.4c0,10,2.6,16,9.4,22.2H38.5c6.8-6.1,9.4-12.2,9.4-22.2v-49.4
	c-7,0-16.6,4.6-25.5,13.4l4.5-23.6c3,2.3,8.6,3.3,14.8,3.3h35.7c6.3,0,11.8-1,14.8-3.3L96.8,324.6z"/>
<path class="st0" d="M125.3,382.7H89.7c4.4-5.1,6.3-8.5,6.3-16.7v-18.2c0-6.4-0.9-9.4-5.1-13.3l-2.4-2.2l26.8-10.1v14
	c2.6-8.1,6.6-14,13.2-14c5.4,0,8.8,3.8,8.8,9.4c0,5.9-3.7,10.1-8.8,10.1c-1.1-2.6-3.8-3.8-6.3-3.8c-2,0-3.9,0.5-4.9,1.5v25.9
	C117.2,374,118.7,376.4,125.3,382.7z"/>
<path class="st0" d="M200.9,372.5c-1.3,7-7.2,12-15.1,12c-6.7,0-11.8-4-13.4-8.6c-3.3,6-9.6,8.6-16.3,8.6c-9.3,0-15.5-6.1-15.5-14.6
	c0-9.8,7-16.7,23.2-20.6l7.5-1.8v-10.1c0-6.3-2.1-8.8-5.9-8.8c-3.6,0-5.9,2.3-5.9,5.6c0,2.8,1.3,4.6,3.7,6.8c0,3.6-5.6,7.3-11.4,7.3
	c-5.7,0-9.7-4.4-9.7-9.7c0-9.5,10.5-16.2,25.9-16.2c16.1,0,24.6,6.8,24.6,22.1v24c0,3,1.8,5,4.6,5
	C198.7,373.5,200,373.1,200.9,372.5z M171.3,370.8v-18l-1.4,0.4c-4.8,1.4-8.1,4.6-8.1,10.9c0,5.4,2.1,8.6,5.6,8.6
	C169.2,372.7,170.6,372.1,171.3,370.8z"/>
<path class="st0" d="M233.9,382.7h-30.1c3.1-3,5.1-7.5,5.1-16.7v-18.2c0-6.1-0.8-9.3-4.5-12.8l-2.6-2.3l27.7-10.5v8.7
	c3.2-5.4,10.1-8.7,16.9-8.7c10.7,0,16.6,5.8,16.6,16.2v31.4c0,6.4,1.7,10.3,4.4,12.9h-29.3c2.9-2.8,3.7-6.6,3.7-9.6v-32
	c0-4.7-1.5-7-5.9-7c-2.4,0-4.5,0.9-5.8,2.2v36.8C230.2,376.2,231,379.9,233.9,382.7z"/>
<path class="st0" d="M275.8,379.5v-19.2c8.1,10.5,16.4,16.4,24.2,16.4c3.8,0,5.6-2,5.6-4.8c0-2.7-1.4-4.2-4-5.2l-12.9-4.8
	c-10-3.7-14.4-9.8-14.4-19c0-11.9,9.7-20.5,23.5-20.5c7.5,0,15.7,2.1,19.9,5.1v16.4c-5.1-9.1-13.5-14.1-21.6-14.1
	c-4.1,0-6.3,1.3-6.3,3.9c0,2.6,1.5,3.6,5,5l15.3,6.2c7.7,3.1,11.1,9.7,11.1,17.7c0,13.1-9.5,21.9-23.8,21.9
	C290.3,384.4,282.9,382.8,275.8,379.5z"/>
<path class="st0" d="M326.3,329.6l6.5-10c8.3-12.5,14.8-18.6,26-18.6c8.7,0,14.3,3.8,14.3,9.5c0,4.9-4,8.5-12.5,8.5
	c0-6.9-3.9-9.5-7.8-9.5c-3.9,0-6.9,2.8-6.9,7.4c0,3.1,1.7,6.3,6.8,7H365l-4.5,5.6h-7.6v33.2c0,6.3,1,11.9,7.5,17.6l2.7,2.3h-38.5
	c4.5-4.5,7.2-10,7.2-18v-35.1H326.3z"/>
<path class="st0" d="M416.6,363.7c-3.6,15.6-12.2,20.7-24.7,20.7c-14.3,0-27.7-10.4-27.7-30c0-18.8,11.8-32.1,27.4-32.1
	c10.2,0,24.4,5.2,24.4,27.4h-33.7c2.3,11.9,10.1,18,20.8,18C408.6,367.7,412.3,366.7,416.6,363.7z M381.6,342v1.4h14.7
	c0-11.2-2.4-14.7-7.2-14.7C384.5,328.8,381.6,333.6,381.6,342z"/>
<path class="st0" d="M456.8,382.7h-35.5c4.4-5.1,6.3-8.5,6.3-16.7v-18.2c0-6.4-0.9-9.4-5.1-13.3l-2.4-2.2l26.8-10.1v14
	c2.6-8.1,6.6-14,13.2-14c5.4,0,8.8,3.8,8.8,9.4c0,5.9-3.7,10.1-8.8,10.1c-1.1-2.6-3.8-3.8-6.3-3.8c-2,0-3.9,0.5-4.9,1.5v25.9
	C448.8,374,450.2,376.4,456.8,382.7z"/>
<path id="logo-path_1_" class="st0" d="M184,209.1c0-26.9,19.1-42.9,43.8-42.9c22.1,0,36.8,11.3,36.8,26.9
	c0,14.7-12.6,24.3-26.4,24.3c-7.8,0-13.4-1.3-17.3-4.3c-1.3-1.3-2.2-0.9-2.2,0.4c0,5.6,2.2,10,5.6,13.9c3,3,8.7,5.2,13.9,5.2
	c5.6,0,10.4-1.3,14.7-3.5c4.3-2.2,7.8-1.3,10,2.2c2.6,3.9-0.9,9.1-3.9,12.6c-5.6,6.1-16.5,10.4-30.3,10.4
	C200.5,253.3,184,234.3,184,209.1z M126.4,226.9c2.6,0,4.3,1.3,6.1,4.3l7.8,12.6c3,4.8,5.6,8.2,11.3,8.2c5.6,0,8.7-2.2,11.3-8.7
	c3.5-7.8,7.4-17.8,10.4-30.8c3.9-14.7,5.6-23.4,5.6-30.8s-2.2-11.7-10.4-13c-10.8-2.2-26-3-42-3s-31.2,0.9-42,2.6
	c-8.2,1.7-10.4,6.1-10.4,13.4s1.7,16,5.2,30.8c3.5,13,6.9,22.5,10.4,30.8c3,6.5,5.6,8.7,11.3,8.7c5.6,0,8.2-3.5,11.3-8.2l7.8-12.6
	C122,228.6,123.8,226.9,126.4,226.9z"/>
</svg>
